<svg width="288" height="299" viewBox="0 0 288 299" fill="none" xmlns="http://www.w3.org/2000/svg">
<path d="M266.205 59.4311C267.804 58.7249 269.161 57.5653 270.108 56.096C271.055 54.6266 271.55 52.9119 271.533 51.1639C271.533 46.2264 267.813 42.2106 263.185 42.1904C258.557 42.1702 254.79 46.1524 254.77 51.0899C254.737 52.8522 255.227 54.5848 256.177 56.0692C257.128 57.5536 258.497 58.7234 260.111 59.4311C247.216 61.3751 247.801 75.3937 247.801 75.3937L278.293 75.535C278.293 75.535 278.993 61.3617 266.205 59.4311Z" fill="#F5F5F5"/>
<path d="M86.0286 7.04965L66.0971 0L46.3608 6.95548C43.845 8.12594 41.6521 8.82552 41.6521 11.1395V22.649C41.6273 30.7326 43.8818 38.6594 48.1568 45.5201C52.4597 52.5129 58.7968 58.0238 66.3191 61.3145C74.3913 58.7314 80.405 51.8567 84.0913 45.9708C88.3613 39.1082 90.6132 31.1822 90.5893 23.0997V12.7472C90.5624 9.45111 88.7865 7.84341 86.0286 7.04965Z" fill="#F5F5F5"/>
<path d="M72.6964 25.629C72.7012 24.6019 72.4191 23.5938 71.8819 22.7184C71.3446 21.8429 70.5737 21.1349 69.6558 20.674C68.7378 20.213 67.7095 20.0176 66.6865 20.1096C65.6635 20.2016 64.6865 20.5774 63.8655 21.1947C63.0446 21.8119 62.4123 22.6462 62.0399 23.6034C61.6675 24.5607 61.5697 25.6029 61.7577 26.6127C61.9456 27.6224 62.4118 28.5597 63.1036 29.3188C63.7955 30.078 64.6856 30.6289 65.6736 30.9095V39.1632H68.6872V30.9095C69.8393 30.5858 70.8542 29.895 71.5778 28.9419C72.3014 27.9888 72.6941 26.8256 72.6964 25.629Z" fill="#EBEBEB"/>
<path d="M255.49 113.716L258.887 115.559L257.36 118.115L253.929 116.097L253.996 119.871H251.063V116.064L247.666 118.095L246.166 115.539L249.563 113.696L246.166 111.826L247.666 109.27L251.09 111.368V107.561H254.023L253.956 111.368L257.387 109.31L258.913 111.866L255.49 113.716Z" fill="#E0E0E0"/>
<path d="M269.643 113.716L273.04 115.559L271.513 118.115L268.082 116.097L268.149 119.871H265.216L265.25 116.064L261.819 118.122L260.319 115.566L263.716 113.723L260.319 111.853L261.819 109.296L265.25 111.355L265.216 107.547H268.149L268.082 111.355L271.513 109.296L273.04 111.853L269.643 113.716Z" fill="#E0E0E0"/>
<path d="M283.796 113.716L287.199 115.559L285.672 118.116L282.242 116.097L282.302 119.871H279.37L279.403 116.064L275.972 118.122L274.472 115.566L277.876 113.723L274.499 111.846L275.999 109.29L279.43 111.348L279.396 107.541H282.329L282.269 111.348L285.699 109.29L287.226 111.846L283.796 113.716Z" fill="#E0E0E0"/>
<path d="M139.789 274.735V295.628H170.342H204.043V274.735H139.789Z" fill="#F5F5F5"/>
<path d="M137.092 268.889V274.735H206.29V268.889H170.342H137.092Z" fill="#EBEBEB"/>
<path d="M171.687 295.628H204.043V274.735H206.29V268.889H170.342V274.19L171.687 295.628Z" fill="#EBEBEB"/>
<path d="M161.806 278.098H148.776V281.246H161.806V278.098Z" fill="#E0E0E0"/>
<path d="M163.83 285.181H147.094V291.821H163.83V285.181Z" fill="white"/>
<path d="M149.671 248.023V268.916H180.23H213.932V248.023H149.671Z" fill="#F5F5F5"/>
<path d="M146.973 242.177V248.023H216.178V242.177H180.231H146.973Z" fill="#EBEBEB"/>
<path d="M181.576 268.916H213.931V248.023H216.178V242.177H180.23V247.485L181.576 268.916Z" fill="#EBEBEB"/>
<path d="M171.687 251.393H158.657V254.541H171.687V251.393Z" fill="#E0E0E0"/>
<path d="M173.719 258.469H156.982V265.109H173.719V258.469Z" fill="white"/>
<path d="M288 295.79C288 295.884 223.524 295.965 144.007 295.965C64.4895 295.965 0 295.884 0 295.79C0 295.695 64.4626 295.615 144.007 295.615C223.551 295.615 288 295.682 288 295.79Z" fill="#263238"/>
<path d="M244.087 145.487H143.845C141.475 145.487 139.553 147.408 139.553 149.778V201.669C139.553 204.039 141.475 205.96 143.845 205.96H244.087C246.458 205.96 248.379 204.039 248.379 201.669V149.778C248.379 147.408 246.458 145.487 244.087 145.487Z" fill="white"/>
<path d="M244.094 205.96C244.094 205.96 244.384 205.96 244.935 205.859C245.753 205.682 246.503 205.274 247.095 204.682C247.526 204.247 247.859 203.724 248.07 203.148C248.191 202.816 248.272 202.47 248.312 202.119C248.312 201.756 248.312 201.366 248.312 200.962C248.312 199.348 248.312 197.484 248.312 195.392C248.312 187.004 248.278 174.882 248.258 159.902C248.258 158.025 248.258 156.108 248.258 154.151V151.177C248.258 150.175 248.359 149.159 247.949 148.231C247.666 147.528 247.196 146.916 246.59 146.46C245.984 146.005 245.265 145.724 244.511 145.648C244.014 145.614 243.462 145.648 242.937 145.648H236.446H208.315H143.859C143.172 145.647 142.496 145.817 141.892 146.144C141.288 146.47 140.776 146.943 140.401 147.518C140.02 148.088 139.788 148.745 139.729 149.428C139.695 150.101 139.729 150.841 139.729 151.541V176.416C139.729 181.798 139.729 187.089 139.729 192.291V199.987C139.729 200.619 139.729 201.258 139.729 201.877C139.759 202.482 139.92 203.074 140.199 203.612C140.486 204.141 140.883 204.601 141.364 204.962C141.844 205.323 142.397 205.576 142.984 205.704C143.582 205.801 144.189 205.832 144.794 205.799H171.075H195.588L231.078 205.852L240.724 205.886L231.078 205.92L195.588 205.974H171.075H144.794C144.166 206.006 143.537 205.972 142.917 205.873C142.283 205.736 141.686 205.463 141.168 205.073C140.65 204.682 140.223 204.184 139.917 203.612C139.608 203.035 139.431 202.396 139.399 201.742C139.399 201.07 139.399 200.478 139.399 199.839C139.399 197.303 139.399 194.733 139.399 192.143V176.416C139.399 171.035 139.399 165.552 139.399 159.969V151.561C139.399 150.848 139.399 150.162 139.399 149.422C139.449 148.686 139.68 147.974 140.072 147.35C140.481 146.728 141.035 146.216 141.686 145.856C142.345 145.506 143.079 145.319 143.825 145.312H208.281H236.412H242.904C243.442 145.312 243.953 145.312 244.505 145.312C245.044 145.368 245.569 145.523 246.052 145.769C247.012 146.256 247.764 147.073 248.171 148.069C248.368 148.557 248.472 149.077 248.48 149.603C248.48 150.108 248.48 150.612 248.48 151.117V154.09C248.48 156.045 248.48 157.962 248.48 159.841C248.48 174.822 248.433 186.944 248.42 195.332C248.42 197.424 248.42 199.287 248.42 200.902C248.42 201.305 248.42 201.689 248.42 202.065C248.377 202.424 248.291 202.776 248.164 203.115C247.947 203.699 247.605 204.23 247.162 204.669C246.556 205.264 245.789 205.669 244.955 205.832C244.747 205.871 244.535 205.894 244.323 205.9L244.094 205.96Z" fill="#263238"/>
<path d="M177.472 166.858V167.611H174.324V163.575H177.392V164.328H175.259V165.183H177.143V165.916H175.259V166.858H177.472Z" fill="#263238"/>
<path d="M181.952 163.548V167.584H181.179L179.161 165.115V167.584H178.232V163.548H178.979L180.997 166.017V163.548H181.952Z" fill="#263238"/>
<path d="M183.762 164.315H182.457V163.548H186.002V164.315H184.697V167.611H183.762V164.315Z" fill="#263238"/>
<path d="M189.655 166.858V167.611H186.507V163.575H189.581V164.328H187.442V165.183H189.332V165.916H187.442V166.858H189.655Z" fill="#263238"/>
<path d="M192.998 167.611L192.211 166.481H191.35V167.611H190.415V163.575H192.177C193.26 163.575 193.94 164.133 193.94 165.048C193.948 165.322 193.872 165.591 193.723 165.821C193.574 166.05 193.359 166.229 193.106 166.333L194.014 167.638L192.998 167.611ZM192.117 164.315H191.35V165.728H192.117C192.688 165.728 192.978 165.465 192.978 165.021C192.978 164.577 192.688 164.315 192.117 164.315Z" fill="#263238"/>
<path d="M196.065 165.58C196.092 165.141 196.246 164.72 196.51 164.369C196.773 164.018 197.134 163.752 197.548 163.604C197.962 163.457 198.409 163.434 198.836 163.539C199.262 163.643 199.649 163.871 199.947 164.194L199.341 164.752C199.215 164.603 199.059 164.483 198.882 164.401C198.706 164.319 198.514 164.275 198.319 164.275C197.99 164.298 197.682 164.446 197.457 164.687C197.232 164.929 197.107 165.246 197.107 165.576C197.107 165.906 197.232 166.224 197.457 166.465C197.682 166.707 197.99 166.854 198.319 166.878C198.514 166.881 198.708 166.839 198.885 166.757C199.062 166.674 199.218 166.552 199.341 166.4L199.947 166.959C199.65 167.284 199.265 167.515 198.838 167.622C198.411 167.729 197.962 167.707 197.547 167.56C197.133 167.412 196.771 167.146 196.507 166.794C196.243 166.441 196.09 166.019 196.065 165.58Z" fill="#263238"/>
<path d="M200.243 165.58C200.218 165.135 200.328 164.693 200.558 164.311C200.788 163.929 201.127 163.625 201.531 163.438C201.936 163.25 202.387 163.189 202.827 163.261C203.267 163.334 203.675 163.536 203.998 163.843C204.321 164.15 204.545 164.546 204.641 164.982C204.736 165.417 204.699 165.871 204.533 166.285C204.368 166.699 204.082 167.053 203.713 167.303C203.344 167.553 202.908 167.686 202.462 167.685C202.176 167.702 201.89 167.659 201.62 167.561C201.351 167.462 201.105 167.31 200.897 167.113C200.689 166.915 200.524 166.677 200.411 166.414C200.299 166.15 200.241 165.866 200.243 165.58ZM203.734 165.58C203.728 165.329 203.649 165.086 203.507 164.881C203.364 164.675 203.163 164.516 202.931 164.424C202.698 164.332 202.443 164.311 202.198 164.363C201.953 164.415 201.729 164.538 201.554 164.717C201.379 164.896 201.261 165.122 201.214 165.368C201.167 165.614 201.194 165.868 201.291 166.099C201.388 166.33 201.55 166.527 201.759 166.665C201.967 166.804 202.212 166.878 202.462 166.878C202.633 166.882 202.802 166.851 202.96 166.786C203.118 166.722 203.26 166.626 203.38 166.504C203.499 166.383 203.592 166.238 203.653 166.079C203.714 165.92 203.741 165.75 203.734 165.58Z" fill="#263238"/>
<path d="M205.402 163.548H207.232C207.767 163.548 208.28 163.761 208.659 164.139C209.037 164.518 209.25 165.031 209.25 165.566C209.25 166.101 209.037 166.615 208.659 166.993C208.28 167.372 207.767 167.584 207.232 167.584H205.388L205.402 163.548ZM207.198 166.837C207.532 166.837 207.851 166.705 208.087 166.469C208.323 166.233 208.456 165.913 208.456 165.58C208.456 165.246 208.323 164.926 208.087 164.69C207.851 164.454 207.532 164.322 207.198 164.322H206.344V166.837H207.198Z" fill="#263238"/>
<path d="M213.346 166.858V167.611H210.198V163.575H213.286V164.328H211.133V165.183H213.023V165.916H211.133V166.858H213.346Z" fill="#263238"/>
<path d="M162.041 174.103H152.16C150.692 174.103 149.502 175.292 149.502 176.76V192.144C149.502 193.611 150.692 194.801 152.16 194.801H162.041C163.509 194.801 164.698 193.611 164.698 192.144V176.76C164.698 175.292 163.509 174.103 162.041 174.103Z" fill="#EBEBEB"/>
<path d="M181.017 174.103H171.136C169.668 174.103 168.479 175.292 168.479 176.76V192.144C168.479 193.611 169.668 194.801 171.136 194.801H181.017C182.485 194.801 183.674 193.611 183.674 192.144V176.76C183.674 175.292 182.485 174.103 181.017 174.103Z" fill="#EBEBEB"/>
<path d="M199.994 174.103H190.112C188.644 174.103 187.455 175.292 187.455 176.76V192.144C187.455 193.611 188.644 194.801 190.112 194.801H199.994C201.461 194.801 202.651 193.611 202.651 192.144V176.76C202.651 175.292 201.461 174.103 199.994 174.103Z" fill="#EBEBEB"/>
<path d="M218.963 174.103H209.081C207.614 174.103 206.424 175.292 206.424 176.76V192.144C206.424 193.611 207.614 194.801 209.081 194.801H218.963C220.43 194.801 221.62 193.611 221.62 192.144V176.76C221.62 175.292 220.43 174.103 218.963 174.103Z" fill="#EBEBEB"/>
<path d="M237.939 174.103H228.058C226.59 174.103 225.401 175.292 225.401 176.76V192.144C225.401 193.611 226.59 194.801 228.058 194.801H237.939C239.407 194.801 240.596 193.611 240.596 192.144V176.76C240.596 175.292 239.407 174.103 237.939 174.103Z" fill="#EBEBEB"/>
<path d="M160.413 186.036C160.413 187.509 159.27 188.471 157.723 188.471C155.597 188.471 154.474 186.944 154.474 184.435C154.474 181.704 155.933 180.291 158.066 180.291C158.704 180.262 159.339 180.406 159.902 180.708L159.66 181.179C159.173 180.912 158.621 180.784 158.066 180.809C156.256 180.809 155.066 182 155.066 184.347C155.065 184.671 155.088 184.995 155.133 185.316C155.322 184.796 155.676 184.352 156.142 184.052C156.607 183.752 157.157 183.612 157.709 183.654C159.324 183.654 160.413 184.596 160.413 186.036ZM159.821 186.036C159.821 184.885 158.994 184.132 157.628 184.132C157.353 184.101 157.073 184.128 156.808 184.21C156.543 184.292 156.298 184.428 156.088 184.609C155.877 184.79 155.707 185.013 155.587 185.263C155.466 185.513 155.399 185.785 155.388 186.063C155.388 187.011 156.182 187.953 157.696 187.953C157.964 187.982 158.236 187.954 158.494 187.871C158.751 187.788 158.988 187.652 159.188 187.471C159.389 187.29 159.549 187.068 159.658 186.821C159.767 186.574 159.823 186.306 159.821 186.036Z" fill="#407BFF"/>
<path d="M179.181 186.19H177.486V188.43H176.907V186.19H172.299V185.767L176.685 180.352H177.358L173.053 185.672H176.934V183.702H177.499V185.672H179.194L179.181 186.19Z" fill="#407BFF"/>
<path d="M198.749 189.581C196.407 189.814 194.048 189.814 191.706 189.581C194.048 189.347 196.407 189.347 198.749 189.581Z" fill="#407BFF"/>
<path d="M146.462 153.175C147.372 153.175 148.11 152.437 148.11 151.527C148.11 150.617 147.372 149.879 146.462 149.879C145.552 149.879 144.814 150.617 144.814 151.527C144.814 152.437 145.552 153.175 146.462 153.175Z" fill="#263238"/>
<path d="M152.859 151.527C152.859 151.853 152.762 152.172 152.581 152.443C152.4 152.714 152.143 152.925 151.842 153.05C151.541 153.175 151.209 153.207 150.89 153.144C150.57 153.08 150.276 152.923 150.046 152.693C149.815 152.462 149.658 152.168 149.595 151.849C149.531 151.529 149.564 151.198 149.688 150.897C149.813 150.595 150.024 150.338 150.295 150.157C150.566 149.976 150.885 149.879 151.211 149.879C151.648 149.879 152.067 150.053 152.376 150.362C152.685 150.671 152.859 151.09 152.859 151.527Z" fill="#263238"/>
<path d="M155.873 153.175C156.783 153.175 157.521 152.437 157.521 151.527C157.521 150.617 156.783 149.879 155.873 149.879C154.963 149.879 154.225 150.617 154.225 151.527C154.225 152.437 154.963 153.175 155.873 153.175Z" fill="#263238"/>
<path d="M248.547 156.169C248.547 156.263 224.176 156.344 194.128 156.344C164.079 156.344 139.708 156.263 139.708 156.169C139.708 156.075 164.066 155.994 194.128 155.994C224.19 155.994 248.547 156.068 248.547 156.169Z" fill="#263238"/>
<path d="M228.562 12.6799H108.395C105.958 12.6799 103.982 14.6556 103.982 17.0927V127.647C103.982 130.084 105.958 132.06 108.395 132.06H228.562C230.999 132.06 232.975 130.084 232.975 127.647V17.0927C232.975 14.6556 230.999 12.6799 228.562 12.6799Z" fill="white"/>
<path d="M228.562 132.06H228.878C229.191 132.034 229.5 131.976 229.8 131.885C230.387 131.706 230.929 131.405 231.393 131.003C231.856 130.601 232.23 130.106 232.491 129.551C232.853 128.717 232.997 127.805 232.908 126.901C232.908 125.898 232.908 124.795 232.908 123.605C232.908 121.223 232.908 118.472 232.908 115.378C232.908 103 232.874 85.1072 232.847 62.9627C232.847 51.8971 232.847 39.7822 232.847 26.7659C232.847 23.5191 232.847 20.2163 232.847 16.8574C232.797 16.0362 232.509 15.2472 232.02 14.5858C231.53 13.9245 230.86 13.4191 230.089 13.1308C229.288 12.8773 228.444 12.7859 227.607 12.8617H203.599H108.409C107.399 12.8675 106.423 13.2323 105.657 13.8909C104.866 14.5591 104.349 15.4955 104.204 16.5211C104.158 17.0354 104.142 17.552 104.157 18.0682V59.4849C104.157 75.4072 104.157 90.7644 104.157 105.395C104.157 112.714 104.157 119.842 104.157 126.78C104.157 127.21 104.157 127.654 104.157 128.064C104.196 128.477 104.294 128.883 104.447 129.268C104.758 130.041 105.289 130.705 105.974 131.179C106.652 131.652 107.454 131.914 108.281 131.932H120.732H156.929L209.344 131.993H223.591L209.344 132.026L156.929 132.08H120.732H108.274C107.385 132.058 106.523 131.776 105.792 131.269C105.062 130.762 104.496 130.053 104.164 129.228C103.999 128.814 103.893 128.38 103.848 127.937C103.814 127.479 103.848 127.062 103.848 126.625C103.848 119.687 103.848 112.559 103.848 105.24C103.848 90.6097 103.848 75.2525 103.848 59.3302C103.848 51.3657 103.848 43.2689 103.848 35.0399V18.0346C103.829 17.5026 103.847 16.9699 103.902 16.4403C104.05 15.3463 104.596 14.3452 105.435 13.6285C106.26 12.9075 107.314 12.5023 108.409 12.485H203.599H227.567C228.441 12.4096 229.322 12.5102 230.157 12.781C230.981 13.0897 231.699 13.6307 232.223 14.3386C232.747 15.0465 233.055 15.8909 233.11 16.7699C233.11 20.1333 233.11 23.4429 233.11 26.6987C233.11 39.715 233.11 51.8299 233.11 62.8954C233.11 85.0265 233.069 102.933 233.056 115.31C233.056 118.405 233.056 121.156 233.056 123.537C233.056 124.728 233.056 125.831 233.056 126.833C233.141 127.754 232.988 128.68 232.612 129.524C232.274 130.231 231.754 130.835 231.105 131.274C230.456 131.713 229.701 131.97 228.919 132.02L228.562 132.06Z" fill="#263238"/>
<path d="M113.73 20.954C113.73 21.396 113.598 21.828 113.353 22.1954C113.107 22.5629 112.758 22.8491 112.349 23.0179C111.941 23.1868 111.491 23.2306 111.058 23.1439C110.625 23.0572 110.227 22.8438 109.915 22.5308C109.603 22.2178 109.39 21.8192 109.305 21.3856C109.22 20.9519 109.265 20.5026 109.435 20.0947C109.605 19.6867 109.892 19.3384 110.26 19.0938C110.629 18.8492 111.061 18.7194 111.503 18.7207C111.796 18.7207 112.086 18.7785 112.357 18.8908C112.627 19.0032 112.873 19.1678 113.08 19.3752C113.287 19.5827 113.45 19.829 113.562 20.0999C113.673 20.3708 113.73 20.661 113.73 20.954Z" fill="#263238"/>
<path d="M118.001 23.1805C119.231 23.1805 120.228 22.1837 120.228 20.954C120.228 19.7243 119.231 18.7274 118.001 18.7274C116.771 18.7274 115.774 19.7243 115.774 20.954C115.774 22.1837 116.771 23.1805 118.001 23.1805Z" fill="#263238"/>
<path d="M124.513 23.1805C125.742 23.1805 126.739 22.1837 126.739 20.954C126.739 19.7243 125.742 18.7274 124.513 18.7274C123.283 18.7274 122.286 19.7243 122.286 20.954C122.286 22.1837 123.283 23.1805 124.513 23.1805Z" fill="#263238"/>
<path d="M232.975 27.2838C232.975 27.3847 204.097 27.4587 168.479 27.4587C132.86 27.4587 103.982 27.3847 103.982 27.2838C103.982 27.1829 132.854 27.1089 168.479 27.1089C204.104 27.1089 232.975 27.1829 232.975 27.2838Z" fill="#263238"/>
<path d="M186.702 72.2521C186.702 72.2521 186.749 72.1781 186.856 72.0436L186.944 71.9292L187.031 71.7745C187.106 71.6494 187.171 71.519 187.226 71.3844C187.226 71.3104 187.294 71.2296 187.321 71.1422L187.401 70.8597C187.431 70.7559 187.453 70.6503 187.469 70.5435C187.469 70.4292 187.509 70.3148 187.516 70.1937C187.56 69.6342 187.533 69.0714 187.435 68.5188C187.152 67.006 186.634 65.5467 185.901 64.1934C184.956 62.3873 183.851 60.6695 182.598 59.0609C181.091 57.1045 179.448 55.2568 177.681 53.5315C175.658 51.5457 173.498 49.7048 171.217 48.0223C170.013 47.1344 168.741 46.2733 167.403 45.4661C166.038 44.6324 164.62 43.8886 163.158 43.2396C161.656 42.5537 160.074 42.0566 158.449 41.7597C157.619 41.6117 156.77 41.5913 155.934 41.6991C155.513 41.7588 155.104 41.8765 154.716 42.0489C154.336 42.2356 153.992 42.4884 153.7 42.7956C153.422 43.1178 153.207 43.4898 153.068 43.8921C152.941 44.2976 152.871 44.7186 152.859 45.1432C152.848 45.9876 152.964 46.8288 153.202 47.6389C153.685 49.2236 154.363 50.7421 155.22 52.1593C156.029 53.5379 156.928 54.8615 157.911 56.1213C158.866 57.3591 159.869 58.5295 160.884 59.626C162.817 61.7013 164.894 63.6368 167.1 65.4177C169.015 66.9787 171.038 68.4016 173.154 69.6758C174.895 70.7345 176.728 71.635 178.63 72.3665C180.059 72.937 181.568 73.2863 183.103 73.4024C183.662 73.43 184.222 73.3916 184.771 73.288C184.892 73.288 185 73.2275 185.108 73.2006C185.213 73.173 185.316 73.1393 185.417 73.0997L185.686 72.9853L185.921 72.8643C186.05 72.7946 186.171 72.7136 186.285 72.6221L186.426 72.5212L186.534 72.4203C186.655 72.2992 186.722 72.2454 186.722 72.2454L186.54 72.427L186.433 72.5279L186.298 72.6355C186.183 72.7285 186.059 72.8096 185.928 72.8777L185.706 73.0257L185.43 73.1401C185.332 73.1816 185.231 73.2154 185.128 73.241C185.015 73.2794 184.901 73.3109 184.785 73.3351C184.232 73.4484 183.666 73.4891 183.103 73.4562C181.564 73.3516 180.05 73.009 178.616 72.4405C176.707 71.7098 174.868 70.8092 173.12 69.7498C171.004 68.4754 168.981 67.0525 167.066 65.4917C164.854 63.713 162.772 61.7774 160.837 59.7C159.822 58.6035 158.819 57.433 157.857 56.1953C156.876 54.929 155.978 53.6011 155.167 52.2198C154.308 50.7961 153.63 49.2708 153.149 47.6792C152.904 46.8589 152.786 46.006 152.799 45.15C152.813 44.7184 152.885 44.2908 153.014 43.8786C153.167 43.4617 153.395 43.0763 153.687 42.7418C153.985 42.4221 154.341 42.1619 154.736 41.9749C155.133 41.7981 155.551 41.6759 155.981 41.6117C156.829 41.5038 157.688 41.5242 158.53 41.6722C160.167 41.9717 161.76 42.4733 163.272 43.1656C164.737 43.8154 166.157 44.5615 167.524 45.3989C168.869 46.2061 170.14 47.0671 171.345 47.9617C173.629 49.6472 175.79 51.4952 177.809 53.4912C179.58 55.2193 181.226 57.0717 182.733 59.034C183.982 60.6472 185.083 62.3694 186.022 64.18C186.754 65.5405 187.269 67.0065 187.549 68.5255C187.643 69.0832 187.666 69.6505 187.617 70.2139C187.606 70.3293 187.588 70.4439 187.563 70.557C187.552 70.6645 187.53 70.7706 187.496 70.8731L187.415 71.1624C187.386 71.2452 187.353 71.3261 187.314 71.4045C187.263 71.5426 187.196 71.6736 187.112 71.7947C187.088 71.8492 187.059 71.901 187.025 71.9494L186.937 72.0638L186.702 72.2521Z" fill="#407BFF"/>
<path d="M192.803 57.5071V57.2515V57.1102C192.803 57.0564 192.803 57.0026 192.769 56.9353C192.746 56.7905 192.708 56.6484 192.655 56.5115C192.655 56.4375 192.601 56.3501 192.568 56.2693L192.433 56.0003C192.389 55.9027 192.335 55.8102 192.272 55.7245C192.214 55.6235 192.148 55.5268 192.076 55.4352C191.742 54.9856 191.348 54.5828 190.906 54.2379C189.683 53.2985 188.321 52.5542 186.87 52.0315C184.963 51.3107 182.996 50.7636 180.991 50.3969C178.55 49.9387 176.079 49.6554 173.598 49.5493C170.765 49.4113 167.926 49.472 165.102 49.7309C163.616 49.8722 162.095 50.0807 160.555 50.37C158.981 50.6538 157.428 51.0426 155.907 51.5337C154.325 52.0127 152.81 52.6909 151.4 53.5517C150.681 53.9927 150.034 54.5418 149.483 55.1796C149.21 55.5031 148.983 55.8631 148.81 56.2492C148.644 56.6413 148.552 57.0611 148.541 57.4869C148.554 57.9118 148.643 58.3309 148.803 58.7246C148.979 59.1093 149.205 59.469 149.476 59.7942C150.032 60.4325 150.68 60.9835 151.4 61.4288C152.813 62.2857 154.326 62.9636 155.907 63.4468C157.43 63.9317 158.983 64.3203 160.555 64.6105C162.095 64.8998 163.616 65.1016 165.102 65.2429C167.926 65.5071 170.765 65.5701 173.598 65.4312C176.08 65.332 178.552 65.0623 180.997 64.624C183.002 64.2573 184.97 63.7102 186.877 62.9894C188.325 62.4613 189.686 61.7174 190.913 60.783C191.353 60.4363 191.747 60.0338 192.083 59.5856C192.155 59.4917 192.22 59.3928 192.278 59.2897C192.342 59.2039 192.396 59.1114 192.44 59.0139L192.574 58.7515C192.608 58.6641 192.635 58.5834 192.662 58.5026C192.715 58.3659 192.753 58.2238 192.776 58.0788C192.776 58.0183 192.776 57.9645 192.81 57.9107V57.7694V57.5071C192.81 57.5071 192.81 57.5945 192.81 57.7694V57.9107C192.81 57.9645 192.81 58.0183 192.81 58.0856C192.789 58.2303 192.753 58.3723 192.702 58.5094C192.702 58.5901 192.648 58.6708 192.615 58.7582L192.487 59.0273C192.439 59.1249 192.385 59.2193 192.325 59.3098C192.266 59.4098 192.201 59.5064 192.13 59.5991C191.796 60.0532 191.402 60.4604 190.96 60.8099C189.738 61.7572 188.377 62.5083 186.924 63.0365C185.016 63.7653 183.046 64.3192 181.038 64.6913C178.595 65.151 176.122 65.4387 173.638 65.5523C170.804 65.6959 167.962 65.6375 165.136 65.3774C163.642 65.2361 162.115 65.0343 160.575 64.7451C158.999 64.4541 157.442 64.0654 155.913 63.5813C154.326 63.101 152.805 62.423 151.386 61.5633C150.658 61.116 150.003 60.5603 149.442 59.9153C149.169 59.5819 148.943 59.213 148.77 58.8188C148.588 58.4172 148.494 57.9815 148.494 57.5407C148.494 57.0999 148.588 56.6642 148.77 56.2626C148.946 55.8697 149.172 55.5012 149.442 55.1661C150.009 54.5219 150.668 53.9664 151.4 53.5181C152.821 52.6596 154.344 51.9817 155.934 51.5001C157.458 51.0097 159.013 50.6209 160.588 50.3363C162.136 50.0471 163.656 49.8453 165.149 49.704C167.957 49.4309 170.78 49.3567 173.598 49.482C176.082 49.5944 178.555 49.8843 180.997 50.3498C183.006 50.7184 184.976 51.2701 186.883 51.9978C188.336 52.526 189.698 53.2772 190.919 54.2244C191.36 54.5756 191.754 54.9826 192.09 55.4352C192.162 55.5291 192.227 55.628 192.285 55.7312C192.346 55.8209 192.4 55.9154 192.446 56.0137L192.574 56.2761C192.608 56.3635 192.635 56.451 192.662 56.525C192.713 56.6643 192.749 56.8086 192.769 56.9555C192.769 57.016 192.769 57.0766 192.769 57.1236V57.2716C192.803 57.4196 192.803 57.5071 192.803 57.5071Z" fill="#407BFF"/>
<path d="M184.717 39.1632L184.495 39.022L184.374 38.9413C184.325 38.9127 184.273 38.888 184.22 38.8673C184.091 38.7972 183.956 38.7409 183.816 38.6991C183.735 38.6991 183.655 38.6386 183.567 38.6184L183.278 38.5578C183.174 38.5351 183.068 38.5193 182.962 38.5107C182.845 38.5039 182.728 38.5039 182.612 38.5107C182.05 38.5036 181.49 38.5669 180.944 38.6991C179.455 39.0943 178.035 39.7135 176.733 40.5355C174.995 41.5989 173.358 42.8193 171.842 44.1814C169.994 45.8197 168.263 47.5865 166.663 49.4687C164.819 51.6218 163.131 53.9034 161.611 56.2963C160.817 57.5542 160.037 58.8996 159.324 60.2449C158.585 61.6628 157.94 63.1279 157.393 64.6308C156.815 66.181 156.428 67.7962 156.243 69.4404C156.153 70.28 156.192 71.1283 156.357 71.9563C156.45 72.3708 156.597 72.7712 156.795 73.1469C157.003 73.5179 157.279 73.8465 157.609 74.1155C157.951 74.3648 158.336 74.5494 158.745 74.6604C159.157 74.7601 159.58 74.8031 160.003 74.7882C160.848 74.7412 161.68 74.5666 162.472 74.2703C164.02 73.6832 165.488 72.9059 166.844 71.9563C168.163 71.0527 169.421 70.064 170.611 68.9965C171.782 67.9538 172.878 66.8775 173.901 65.7878C175.836 63.7163 177.623 61.5112 179.249 59.1888C180.674 57.1718 181.955 55.0565 183.083 52.8589C184.023 51.0514 184.797 49.1624 185.397 47.2152C185.867 45.7474 186.11 44.216 186.117 42.6746C186.115 42.1153 186.038 41.5587 185.888 41.0198C185.888 40.8987 185.814 40.7911 185.78 40.6835C185.747 40.5759 185.706 40.4817 185.659 40.3875L185.531 40.1252C185.484 40.0444 185.43 39.9705 185.39 39.9032C185.314 39.7769 185.224 39.6596 185.121 39.5534L185.013 39.4189L184.906 39.3247L184.717 39.1498L184.913 39.318L185.02 39.4121C185.062 39.4517 185.1 39.4944 185.134 39.5399C185.236 39.6471 185.326 39.7643 185.404 39.8897C185.451 39.9637 185.504 40.031 185.552 40.1117L185.679 40.3808C185.731 40.4752 185.774 40.5743 185.807 40.6768C185.841 40.7844 185.888 40.892 185.915 41.0131C186.07 41.5535 186.152 42.1124 186.157 42.6746C186.159 44.2201 185.921 45.7565 185.451 47.2286C184.854 49.1813 184.084 51.0768 183.15 52.8926C182.023 55.0946 180.742 57.2143 179.316 59.2359C177.694 61.5656 175.907 63.7754 173.968 65.8483C172.946 66.9448 171.849 68.0278 170.672 69.0705C169.479 70.1398 168.219 71.1307 166.898 72.037C165.537 72.9938 164.062 73.7757 162.506 74.3644C161.705 74.6636 160.863 74.8405 160.01 74.8891C159.576 74.9037 159.141 74.8607 158.718 74.7613C158.297 74.6425 157.901 74.4488 157.548 74.1895C157.208 73.9131 156.923 73.5754 156.707 73.194C156.504 72.8099 156.352 72.4004 156.256 71.9764C156.093 71.1391 156.057 70.2819 156.149 69.4337C156.331 67.7795 156.72 66.1547 157.306 64.5972C157.852 63.0921 158.497 61.6248 159.236 60.2046C159.956 58.8054 160.73 57.4735 161.53 56.2089C163.059 53.817 164.754 51.5355 166.602 49.3812C168.205 47.4994 169.941 45.7347 171.795 44.1007C173.319 42.7401 174.963 41.5199 176.706 40.4548C178.015 39.6364 179.442 39.0238 180.937 38.6386C181.485 38.5031 182.048 38.4398 182.612 38.4502C182.733 38.4502 182.847 38.4502 182.962 38.4502C183.07 38.4583 183.178 38.4741 183.285 38.4973L183.574 38.5578L183.823 38.6453C183.963 38.6891 184.098 38.7477 184.226 38.8202C184.28 38.8409 184.331 38.8656 184.381 38.8942L184.502 38.9816L184.717 39.1632Z" fill="#407BFF"/>
<path d="M148.272 66.6489C148.386 66.7639 148.464 66.9101 148.495 67.0692C148.526 67.2282 148.51 67.393 148.448 67.5427C148.385 67.6924 148.28 67.8203 148.145 67.9103C148.01 68.0003 147.852 68.0483 147.69 68.0483C147.528 68.0483 147.369 68.0003 147.234 67.9103C147.099 67.8203 146.994 67.6924 146.932 67.5427C146.87 67.393 146.853 67.2282 146.885 67.0692C146.916 66.9101 146.994 66.7639 147.108 66.6489C147.184 66.5722 147.275 66.5114 147.375 66.4699C147.475 66.4284 147.582 66.407 147.69 66.407C147.798 66.407 147.905 66.4284 148.005 66.4699C148.105 66.5114 148.195 66.5722 148.272 66.6489Z" fill="#407BFF"/>
<path d="M194.68 41.1611C194.681 41.3251 194.634 41.4857 194.543 41.6226C194.453 41.7596 194.325 41.8667 194.174 41.9303C194.023 41.994 193.856 42.0113 193.695 41.9802C193.534 41.949 193.386 41.8708 193.27 41.7553C193.153 41.6399 193.074 41.4925 193.041 41.3318C193.009 41.1711 193.025 41.0044 193.087 40.8528C193.15 40.7012 193.256 40.5716 193.392 40.4804C193.528 40.3892 193.688 40.3405 193.852 40.3405C193.961 40.3396 194.068 40.3602 194.168 40.401C194.269 40.4419 194.36 40.5022 194.437 40.5785C194.514 40.6547 194.575 40.7455 194.617 40.8455C194.658 40.9455 194.68 41.0528 194.68 41.1611Z" fill="#407BFF"/>
<path d="M153.465 69.3529C153.465 69.3942 153.452 69.4345 153.43 69.4688C153.407 69.5031 153.374 69.5298 153.336 69.5456C153.298 69.5614 153.256 69.5655 153.215 69.5575C153.175 69.5494 153.138 69.5296 153.109 69.5004C153.08 69.4712 153.06 69.4341 153.052 69.3936C153.044 69.3532 153.048 69.3112 153.063 69.2731C153.079 69.235 153.106 69.2025 153.14 69.1796C153.175 69.1566 153.215 69.1444 153.256 69.1444C153.311 69.1444 153.364 69.1664 153.404 69.2055C153.443 69.2446 153.465 69.2976 153.465 69.3529Z" fill="#407BFF"/>
<path d="M157.925 46.307C157.925 46.3483 157.912 46.3886 157.889 46.4229C157.867 46.4572 157.834 46.4839 157.796 46.4997C157.758 46.5155 157.716 46.5196 157.675 46.5116C157.635 46.5035 157.598 46.4837 157.569 46.4545C157.539 46.4253 157.52 46.3882 157.512 46.3477C157.504 46.3073 157.508 46.2653 157.523 46.2272C157.539 46.1891 157.566 46.1566 157.6 46.1337C157.635 46.1107 157.675 46.0985 157.716 46.0985C157.771 46.0985 157.824 46.1205 157.864 46.1596C157.903 46.1987 157.925 46.2517 157.925 46.307Z" fill="#407BFF"/>
<path d="M190.543 57.5071C190.543 57.5624 190.521 57.6155 190.481 57.6546C190.442 57.6937 190.389 57.7156 190.334 57.7156C190.279 57.7156 190.226 57.6937 190.187 57.6546C190.147 57.6155 190.125 57.5624 190.125 57.5071C190.125 57.4518 190.147 57.3988 190.187 57.3597C190.226 57.3206 190.279 57.2986 190.334 57.2986C190.389 57.2986 190.442 57.3206 190.481 57.3597C190.521 57.3988 190.543 57.4518 190.543 57.5071Z" fill="#407BFF"/>
<path d="M193.449 47.7669C193.449 47.8222 193.427 47.8752 193.387 47.9143C193.348 47.9534 193.295 47.9754 193.24 47.9754C193.185 47.9754 193.132 47.9534 193.093 47.9143C193.053 47.8752 193.031 47.8222 193.031 47.7669C193.031 47.7116 193.053 47.6585 193.093 47.6194C193.132 47.5803 193.185 47.5583 193.24 47.5583C193.295 47.5583 193.348 47.5803 193.387 47.6194C193.427 47.6585 193.449 47.7116 193.449 47.7669Z" fill="#407BFF"/>
<path d="M179.363 62.1017H176.78V48.036C176.78 46.4429 176.147 44.9149 175.02 43.7884C173.894 42.6619 172.366 42.029 170.773 42.029C169.179 42.029 167.652 42.6619 166.525 43.7884C165.398 44.9149 164.766 46.4429 164.766 48.036V62.1017H162.162V48.036C162.162 45.7578 163.067 43.5729 164.678 41.9619C166.289 40.3509 168.474 39.4459 170.752 39.4459C173.031 39.4459 175.216 40.3509 176.827 41.9619C178.437 43.5729 179.343 45.7578 179.343 48.036L179.363 62.1017Z" fill="#407BFF"/>
<g opacity="0.3">
<path d="M179.363 62.1017H176.78V48.036C176.78 46.4429 176.147 44.9149 175.02 43.7884C173.894 42.6619 172.366 42.029 170.773 42.029C169.179 42.029 167.652 42.6619 166.525 43.7884C165.398 44.9149 164.766 46.4429 164.766 48.036V62.1017H162.162V48.036C162.162 45.7578 163.067 43.5729 164.678 41.9619C166.289 40.3509 168.474 39.4459 170.752 39.4459C173.031 39.4459 175.216 40.3509 176.827 41.9619C178.437 43.5729 179.343 45.7578 179.343 48.036L179.363 62.1017Z" fill="black"/>
</g>
<path d="M180.836 55.8457H160.709C159.873 55.8457 159.196 56.5233 159.196 57.3592V69.1849C159.196 70.0208 159.873 70.6984 160.709 70.6984H180.836C181.672 70.6984 182.349 70.0208 182.349 69.1849V57.3592C182.349 56.5233 181.672 55.8457 180.836 55.8457Z" fill="#407BFF"/>
<g opacity="0.3">
<path d="M172.71 61.3414C172.713 60.9802 172.614 60.6254 172.426 60.3171C172.238 60.0088 171.967 59.7592 171.645 59.5966C171.322 59.4339 170.961 59.3647 170.601 59.3966C170.241 59.4286 169.898 59.5605 169.609 59.7775C169.32 59.9945 169.098 60.2879 168.967 60.6245C168.836 60.9612 168.802 61.3278 168.868 61.6828C168.935 62.0378 169.099 62.3672 169.343 62.6338C169.587 62.9003 169.9 63.0934 170.248 63.1912V66.0838H171.297V63.1912C171.702 63.0795 172.06 62.8382 172.315 62.5042C172.57 62.1701 172.709 61.7617 172.71 61.3414Z" fill="black"/>
</g>
<path d="M160.434 69.2926C160.38 69.2926 160.333 66.8171 160.333 63.7632C160.333 60.7092 160.38 58.2271 160.434 58.2271C160.487 58.2271 160.528 60.7025 160.528 63.7632C160.528 66.8239 160.481 69.2926 160.434 69.2926Z" fill="#FAFAFA"/>
<path d="M169.259 63.8169C169.259 63.8169 169.165 63.8169 169.03 63.6891C168.84 63.5472 168.672 63.3771 168.533 63.1846C168.288 62.8675 168.116 62.4996 168.032 62.1079C167.947 61.7161 167.951 61.3104 168.043 60.9204C168.135 60.5303 168.313 60.1658 168.565 59.8535C168.816 59.5411 169.133 59.2888 169.495 59.1149C169.705 59.002 169.932 58.9225 170.167 58.8795C170.254 58.8633 170.343 58.8633 170.43 58.8795C170.132 58.9804 169.842 59.1017 169.562 59.2427C169.233 59.4239 168.947 59.6716 168.72 59.9701C168.493 60.2686 168.331 60.6113 168.244 60.9761C168.157 61.341 168.147 61.7199 168.216 62.0886C168.284 62.4574 168.429 62.8078 168.64 63.1173C168.827 63.3668 169.034 63.6007 169.259 63.8169Z" fill="#FAFAFA"/>
<path d="M205.146 83.4321H133.863C130.4 83.4321 127.594 86.239 127.594 89.7015V90.4683C127.594 93.9308 130.4 96.7377 133.863 96.7377H205.146C208.609 96.7377 211.416 93.9308 211.416 90.4683V89.7015C211.416 86.239 208.609 83.4321 205.146 83.4321Z" fill="#F5F5F5"/>
<path d="M205.759 101.675H134.475C131.012 101.675 128.206 104.482 128.206 107.945V108.712C128.206 112.174 131.012 114.981 134.475 114.981H205.759C209.221 114.981 212.028 112.174 212.028 108.712V107.945C212.028 104.482 209.221 101.675 205.759 101.675Z" fill="#F5F5F5"/>
<path d="M140.839 89.9774V88.0536H141.639V89.9505C141.639 90.6232 141.922 90.8721 142.406 90.8721C142.89 90.8721 143.173 90.603 143.173 89.9505V88.0536H143.96V89.9774C143.96 90.3913 143.795 90.7883 143.503 91.081C143.21 91.3736 142.813 91.5381 142.399 91.5381C141.985 91.5381 141.588 91.3736 141.296 91.081C141.003 90.7883 140.839 90.3913 140.839 89.9774Z" fill="#263238"/>
<path d="M144.437 91.2486L144.686 90.697C144.965 90.863 145.283 90.9513 145.608 90.9526C145.964 90.9526 146.092 90.8585 146.092 90.7105C146.092 90.28 144.498 90.7105 144.498 89.6678C144.498 89.1633 144.948 88.8068 145.722 88.8068C146.075 88.8011 146.424 88.882 146.738 89.0422L146.482 89.5871C146.251 89.4552 145.988 89.3878 145.722 89.392C145.379 89.392 145.231 89.4997 145.231 89.6342C145.231 90.0849 146.825 89.6342 146.825 90.6903C146.825 91.1813 146.375 91.5311 145.581 91.5311C145.181 91.54 144.787 91.4425 144.437 91.2486Z" fill="#263238"/>
<path d="M149.879 90.3877H147.861C147.902 90.5531 148.002 90.698 148.142 90.7957C148.282 90.8933 148.452 90.9372 148.621 90.9191C148.745 90.9246 148.868 90.9047 148.984 90.8608C149.1 90.8168 149.205 90.7497 149.294 90.6635L149.704 91.1075C149.564 91.2525 149.394 91.3655 149.206 91.4387C149.018 91.5118 148.816 91.5434 148.615 91.5313C148.424 91.5552 148.231 91.5383 148.048 91.4815C147.865 91.4247 147.696 91.3294 147.553 91.202C147.409 91.0746 147.295 90.918 147.217 90.7428C147.139 90.5675 147.1 90.3777 147.101 90.1859C147.101 90.0034 147.138 89.8228 147.21 89.655C147.281 89.4873 147.386 89.3358 147.519 89.21C147.651 89.0842 147.807 88.9865 147.978 88.923C148.149 88.8595 148.331 88.8314 148.514 88.8405C148.693 88.8361 148.872 88.8675 149.039 88.9331C149.206 88.9987 149.358 89.0971 149.487 89.2225C149.615 89.3479 149.717 89.4977 149.787 89.6632C149.857 89.8286 149.893 90.0064 149.893 90.1859C149.893 90.2397 149.879 90.3204 149.879 90.3877ZM147.861 89.937H149.16C149.121 89.7945 149.036 89.6687 148.919 89.579C148.802 89.4893 148.658 89.4408 148.51 89.4408C148.363 89.4408 148.219 89.4893 148.102 89.579C147.985 89.6687 147.9 89.7945 147.861 89.937Z" fill="#263238"/>
<path d="M152.072 88.8069V89.5199H151.898C151.803 89.5194 151.71 89.5388 151.624 89.5767C151.537 89.6146 151.46 89.6703 151.396 89.7401C151.333 89.8098 151.285 89.8922 151.255 89.9817C151.226 90.0713 151.215 90.166 151.225 90.2598V91.5043H150.458V88.8607H151.191V89.1701C151.299 89.0447 151.435 88.9465 151.589 88.8834C151.742 88.8203 151.907 88.7941 152.072 88.8069Z" fill="#263238"/>
<path d="M155.207 89.9773V91.4909H154.44V90.0984C154.44 89.6679 154.245 89.4728 153.902 89.4728C153.559 89.4728 153.27 89.7015 153.27 90.1859V91.4909H152.503V88.8473H153.236V89.1701C153.349 89.0544 153.486 88.9636 153.636 88.9034C153.787 88.8432 153.948 88.8149 154.11 88.8203C154.262 88.8104 154.414 88.834 154.556 88.8895C154.698 88.945 154.826 89.031 154.93 89.1415C155.035 89.2519 155.114 89.3841 155.162 89.5286C155.21 89.673 155.225 89.8263 155.207 89.9773Z" fill="#263238"/>
<path d="M158.241 89.9842V91.491H157.521V91.1883C157.432 91.3169 157.31 91.4192 157.168 91.4843C157.026 91.5495 156.869 91.575 156.714 91.5583C156.095 91.5583 155.725 91.2152 155.725 90.7578C155.725 90.3003 156.054 89.964 156.862 89.964H157.454C157.454 89.6411 157.259 89.446 156.842 89.446C156.568 89.4451 156.301 89.5324 156.081 89.6949L155.806 89.1568C156.146 88.9368 156.544 88.8243 156.949 88.8339C157.77 88.807 158.241 89.1703 158.241 89.9842ZM157.474 90.6569V90.3878H156.949C156.586 90.3878 156.478 90.5223 156.478 90.6972C156.478 90.8721 156.64 91.0201 156.909 91.0201C157.026 91.0236 157.142 90.9906 157.239 90.9255C157.337 90.8604 157.412 90.7665 157.454 90.6569H157.474Z" fill="#263238"/>
<path d="M163.4 89.9773V91.4908H162.633V90.0984C162.633 89.6679 162.445 89.4728 162.136 89.4728C161.826 89.4728 161.55 89.6948 161.55 90.1455V91.4908H160.817V90.0984C160.817 89.6679 160.635 89.4728 160.313 89.4728C159.99 89.4728 159.734 89.6948 159.734 90.1455V91.4908H158.934V88.8472H159.667V89.1701C159.771 89.0549 159.899 88.9639 160.042 88.9035C160.185 88.8431 160.339 88.8147 160.494 88.8203C160.665 88.8125 160.835 88.8485 160.988 88.9251C161.141 89.0016 161.272 89.1161 161.369 89.2575C161.483 89.1153 161.629 89.0017 161.794 88.9257C161.96 88.8498 162.142 88.8137 162.324 88.8203C162.475 88.811 162.626 88.8352 162.766 88.8913C162.906 88.9473 163.033 89.0338 163.135 89.1444C163.238 89.2551 163.316 89.3871 163.361 89.5312C163.407 89.6752 163.42 89.8275 163.4 89.9773Z" fill="#263238"/>
<path d="M166.696 90.3877H164.678C164.713 90.5556 164.81 90.704 164.95 90.8028C165.09 90.9015 165.262 90.9432 165.432 90.9191C165.555 90.9242 165.679 90.9042 165.794 90.8602C165.91 90.8163 166.015 90.7494 166.104 90.6635L166.508 91.1075C166.368 91.2533 166.198 91.3667 166.01 91.4399C165.822 91.5131 165.62 91.5443 165.418 91.5313C165.228 91.5542 165.036 91.5364 164.854 91.4792C164.671 91.4219 164.503 91.3265 164.361 91.1992C164.218 91.0719 164.104 90.9157 164.027 90.741C163.949 90.5662 163.91 90.377 163.911 90.1859C163.911 90.0034 163.948 89.8228 164.02 89.655C164.092 89.4873 164.197 89.3358 164.329 89.21C164.461 89.0842 164.617 88.9865 164.789 88.923C164.96 88.8595 165.142 88.8314 165.324 88.8405C165.681 88.8405 166.023 88.9823 166.275 89.2346C166.528 89.4869 166.669 89.8291 166.669 90.1859C166.71 90.2397 166.703 90.3204 166.696 90.3877ZM164.678 89.937H165.983C165.961 89.7777 165.88 89.6326 165.755 89.5314C165.63 89.4302 165.471 89.3804 165.311 89.3921C165.157 89.3894 165.009 89.4436 164.893 89.5442C164.777 89.6449 164.703 89.7849 164.685 89.937H164.678Z" fill="#263238"/>
<path d="M171.768 90.1455C171.768 91.0267 171.365 91.5312 170.759 91.5312C170.616 91.5407 170.473 91.5041 170.352 91.4266C170.231 91.3491 170.138 91.2349 170.087 91.1007C169.997 91.2406 169.872 91.3543 169.724 91.43C169.577 91.5056 169.411 91.5406 169.246 91.5312C168.938 91.4992 168.653 91.3542 168.446 91.1244C168.239 90.8946 168.124 90.5962 168.124 90.2868C168.124 89.9774 168.239 89.6789 168.446 89.4491C168.653 89.2193 168.938 89.0743 169.246 89.0423C169.388 89.0357 169.53 89.062 169.661 89.1191C169.792 89.1763 169.907 89.2628 169.999 89.3719V89.0827H170.672V90.6702C170.672 90.9056 170.773 90.9863 170.907 90.9863C171.042 90.9863 171.27 90.724 171.27 90.159C171.273 89.9242 171.227 89.6915 171.134 89.4759C171.041 89.2603 170.904 89.0666 170.731 88.9074C170.559 88.7482 170.355 88.627 170.133 88.5518C169.91 88.4765 169.674 88.4488 169.441 88.4705C168.968 88.4705 168.515 88.6583 168.18 88.9926C167.846 89.3269 167.658 89.7804 167.658 90.2531C167.658 90.7259 167.846 91.1793 168.18 91.5136C168.515 91.8479 168.968 92.0357 169.441 92.0357C169.775 92.0353 170.106 91.9618 170.409 91.8205L170.564 92.2712C170.212 92.4322 169.828 92.5127 169.441 92.5066C169.135 92.5233 168.829 92.4775 168.541 92.372C168.254 92.2665 167.991 92.1035 167.768 91.8929C167.546 91.6823 167.369 91.4286 167.248 91.1472C167.127 90.8659 167.064 90.5628 167.064 90.2565C167.064 89.9502 167.127 89.6471 167.248 89.3658C167.369 89.0844 167.546 88.8307 167.768 88.6201C167.991 88.4095 168.254 88.2465 168.541 88.141C168.829 88.0354 169.135 87.9897 169.441 88.0064C169.737 87.9823 170.034 88.0196 170.315 88.1161C170.596 88.2126 170.854 88.3661 171.072 88.567C171.291 88.7679 171.466 89.0118 171.585 89.2835C171.705 89.5551 171.767 89.8486 171.768 90.1455ZM170.013 90.2868C170.022 90.2006 170.013 90.1135 169.986 90.0311C169.959 89.9487 169.915 89.8731 169.856 89.8094C169.798 89.7456 169.726 89.6952 169.646 89.6615C169.566 89.6278 169.48 89.6116 169.394 89.6141C169.215 89.6141 169.044 89.685 168.918 89.8111C168.792 89.9373 168.721 90.1084 168.721 90.2868C168.721 90.4652 168.792 90.6363 168.918 90.7624C169.044 90.8886 169.215 90.9594 169.394 90.9594C169.48 90.9619 169.566 90.9457 169.646 90.9121C169.726 90.8784 169.798 90.8279 169.856 90.7642C169.915 90.7004 169.959 90.6248 169.986 90.5424C170.013 90.4601 170.022 90.3729 170.013 90.2868Z" fill="#263238"/>
<path d="M176.78 89.9775V91.491H176.013V90.0986C176.013 89.6681 175.824 89.473 175.515 89.473C175.206 89.473 174.93 89.695 174.93 90.1457V91.491H174.163V90.0986C174.163 89.6681 173.981 89.473 173.658 89.473C173.335 89.473 173.08 89.695 173.08 90.1457V91.491H172.313V88.8474H173.046V89.1703C173.15 89.0551 173.278 88.9641 173.421 88.9037C173.564 88.8433 173.719 88.8149 173.874 88.8205C174.045 88.8127 174.215 88.8487 174.368 88.9253C174.521 89.0018 174.652 89.1163 174.748 89.2577C174.861 89.116 175.006 89.0027 175.171 88.9267C175.335 88.8508 175.515 88.8144 175.697 88.8205C175.848 88.8101 176 88.8336 176.141 88.8892C176.282 88.9448 176.409 89.0311 176.513 89.1419C176.616 89.2526 176.694 89.3851 176.74 89.5296C176.786 89.6741 176.8 89.8271 176.78 89.9775Z" fill="#263238"/>
<path d="M179.807 89.9842V91.491H179.094V91.1883C179.005 91.3169 178.883 91.4192 178.741 91.4843C178.599 91.5495 178.442 91.575 178.286 91.5583C177.668 91.5583 177.298 91.2152 177.298 90.7578C177.298 90.3003 177.627 89.964 178.434 89.964H179.04C179.04 89.6411 178.845 89.446 178.434 89.446C178.16 89.4426 177.893 89.5301 177.674 89.6949L177.399 89.1568C177.737 88.9381 178.133 88.8257 178.535 88.8339C179.343 88.807 179.807 89.1703 179.807 89.9842ZM179.04 90.6569V90.3878H178.515C178.159 90.3878 178.044 90.5223 178.044 90.6972C178.044 90.8721 178.206 91.0201 178.475 91.0201C178.595 91.028 178.715 90.997 178.817 90.9316C178.919 90.8662 178.997 90.7699 179.04 90.6569Z" fill="#263238"/>
<path d="M180.412 88.0536C180.413 87.9932 180.426 87.9336 180.451 87.8785C180.476 87.8234 180.512 87.7741 180.557 87.7337C180.601 87.6932 180.654 87.6625 180.712 87.6435C180.769 87.6245 180.83 87.6175 180.89 87.6231C180.972 87.6322 181.05 87.6649 181.115 87.7174C181.179 87.7699 181.227 87.8398 181.252 87.9189C181.278 87.9979 181.28 88.0826 181.258 88.1628C181.237 88.243 181.193 88.3152 181.131 88.3708C181.069 88.4264 180.993 88.463 180.911 88.4761C180.829 88.4893 180.745 88.4784 180.669 88.4449C180.593 88.4114 180.528 88.3566 180.483 88.2872C180.437 88.2177 180.413 88.1366 180.412 88.0536ZM180.506 88.8474H181.266V91.491H180.506V88.8474Z" fill="#263238"/>
<path d="M181.986 87.8248H182.753V91.4707H181.986V87.8248Z" fill="#263238"/>
<path d="M183.278 91.0538C183.278 90.9271 183.328 90.8056 183.418 90.7161C183.507 90.6265 183.629 90.5762 183.755 90.5762C183.882 90.5762 184.004 90.6265 184.093 90.7161C184.183 90.8056 184.233 90.9271 184.233 91.0538C184.233 91.1804 184.183 91.3019 184.093 91.3915C184.004 91.4811 183.882 91.5314 183.755 91.5314C183.629 91.5314 183.507 91.4811 183.418 91.3915C183.328 91.3019 183.278 91.1804 183.278 91.0538Z" fill="#263238"/>
<path d="M184.522 90.1724C184.521 89.9844 184.56 89.7983 184.635 89.6262C184.711 89.454 184.821 89.2996 184.96 89.1729C185.099 89.0461 185.263 88.9498 185.441 88.8903C185.619 88.8307 185.808 88.8092 185.995 88.827C186.237 88.8066 186.48 88.8599 186.691 88.9799C186.903 89.1 187.073 89.2812 187.179 89.4997L186.587 89.8158C186.519 89.7156 186.426 89.6346 186.318 89.5806C186.209 89.5266 186.089 89.5014 185.968 89.5074C185.847 89.5135 185.729 89.5506 185.627 89.6151C185.524 89.6796 185.44 89.7695 185.382 89.876C185.324 89.9825 185.295 90.1021 185.297 90.2232C185.299 90.3444 185.331 90.463 185.392 90.5678C185.453 90.6726 185.54 90.7599 185.645 90.8214C185.749 90.8829 185.867 90.9165 185.989 90.919C186.112 90.9193 186.233 90.8855 186.339 90.8215C186.444 90.7574 186.53 90.6655 186.587 90.5558L187.179 90.8787C187.071 91.096 186.901 91.2761 186.69 91.396C186.479 91.5158 186.237 91.5699 185.995 91.5513C185.805 91.5696 185.614 91.5471 185.433 91.4856C185.252 91.424 185.087 91.3247 184.947 91.1943C184.808 91.0639 184.698 90.9053 184.625 90.7291C184.551 90.5529 184.516 90.3631 184.522 90.1724Z" fill="#263238"/>
<path d="M187.395 90.1723C187.373 89.8813 187.439 89.5906 187.585 89.3379C187.731 89.0852 187.95 88.8824 188.213 88.7557C188.476 88.6291 188.771 88.5845 189.059 88.6278C189.348 88.6711 189.617 88.8003 189.831 88.9985C190.045 89.1968 190.194 89.4549 190.26 89.7393C190.325 90.0237 190.303 90.3211 190.197 90.5929C190.091 90.8648 189.906 91.0984 189.665 91.2633C189.424 91.4282 189.139 91.5169 188.848 91.5177C188.662 91.5325 188.475 91.5088 188.3 91.4479C188.124 91.387 187.962 91.2902 187.826 91.1638C187.689 91.0373 187.581 90.8839 187.506 90.7133C187.432 90.5426 187.394 90.3584 187.395 90.1723ZM189.52 90.1723C189.509 90.0425 189.459 89.9189 189.379 89.8165C189.298 89.7141 189.189 89.6374 189.066 89.5956C188.942 89.5539 188.809 89.5489 188.683 89.5813C188.557 89.6137 188.443 89.682 188.355 89.7781C188.267 89.8741 188.208 89.9937 188.187 90.1223C188.165 90.2509 188.182 90.3829 188.234 90.5023C188.286 90.6218 188.372 90.7234 188.481 90.795C188.59 90.8666 188.717 90.905 188.848 90.9055C188.941 90.9059 189.034 90.8867 189.12 90.8492C189.206 90.8117 189.283 90.7566 189.346 90.6876C189.409 90.6186 189.458 90.5371 189.488 90.4483C189.518 90.3596 189.529 90.2656 189.52 90.1723Z" fill="#263238"/>
<path d="M195.278 89.9775V91.491H194.511V90.0986C194.511 89.6681 194.316 89.473 194.007 89.473C193.698 89.473 193.422 89.695 193.422 90.1457V91.491H192.655V90.0986C192.655 89.6681 192.473 89.473 192.157 89.473C191.841 89.473 191.579 89.695 191.579 90.1457V91.491H190.812V88.8474H191.538V89.1703C191.644 89.055 191.773 88.9639 191.917 88.9035C192.061 88.8431 192.216 88.8148 192.372 88.8205C192.543 88.8119 192.712 88.8476 192.864 88.9243C193.016 89.0009 193.146 89.1159 193.24 89.2577C193.355 89.1163 193.501 89.0032 193.667 88.9274C193.832 88.8515 194.013 88.815 194.195 88.8205C194.347 88.8101 194.498 88.8336 194.64 88.8892C194.781 88.9448 194.908 89.0311 195.012 89.1419C195.115 89.2526 195.193 89.3851 195.239 89.5296C195.285 89.6741 195.299 89.8271 195.278 89.9775Z" fill="#263238"/>
<path d="M151.11 108.402L152.355 109.075L151.796 110.01L150.538 109.27V110.655H149.462V109.256L148.244 110.023L147.693 109.088L148.944 108.415L147.693 107.743L148.244 106.808L149.502 107.561V106.169H150.579V107.561L151.837 106.808L152.395 107.743L151.11 108.402Z" fill="#263238"/>
<path d="M156.297 108.402L157.541 109.075L156.983 110.023L155.725 109.283V110.669H154.655V109.27L153.418 110.023L152.866 109.088L154.11 108.415L152.866 107.743L153.418 106.808L154.675 107.561V106.169H155.745V107.561L157.003 106.808L157.561 107.743L156.297 108.402Z" fill="#263238"/>
<path d="M161.49 108.402L162.734 109.075L162.163 110.023L160.911 109.283V110.669H159.835V109.27L158.611 110.023L158.066 109.088L159.31 108.415L158.066 107.743L158.611 106.808L159.869 107.561V106.169H160.945V107.561L162.196 106.808L162.761 107.743L161.49 108.402Z" fill="#263238"/>
<path d="M166.663 108.402L167.907 109.075L167.349 110.01L166.091 109.27V110.655H165.015V109.256L163.797 110.023L163.245 109.088L164.497 108.415L163.245 107.743L163.797 106.808L165.055 107.561V106.169H166.131V107.561L167.389 106.808L167.947 107.743L166.663 108.402Z" fill="#263238"/>
<path d="M171.849 108.402L173.094 109.074L172.535 110.009L171.277 109.27V110.655H170.235V109.256L168.983 110.023L168.432 109.088L169.676 108.415L168.432 107.743L168.983 106.808L170.235 107.534V106.142H171.304V107.534L172.562 106.781L173.12 107.716L171.849 108.402Z" fill="#263238"/>
<path d="M177.035 108.402L178.28 109.075L177.721 110.01L176.463 109.27V110.655H175.387V109.256L174.163 110.023L173.618 109.088L174.862 108.415L173.618 107.743L174.163 106.808L175.421 107.561V106.169H176.497V107.561L177.755 106.808L178.313 107.743L177.035 108.402Z" fill="#263238"/>
<path d="M182.215 108.402L183.459 109.075L182.901 110.01L181.643 109.27V110.655H180.567V109.256L179.349 110.023L178.798 109.088L180.049 108.415L178.798 107.743L179.349 106.808L180.607 107.561V106.169H181.67V107.561L182.928 106.808L183.486 107.743L182.215 108.402Z" fill="#263238"/>
<path d="M187.401 108.402L188.646 109.075L188.087 110.01L186.83 109.27V110.655H185.76V109.256L184.536 110.023L183.984 109.088L185.229 108.415L183.984 107.743L184.536 106.808L185.794 107.561V106.169H186.863V107.561L188.121 106.808L188.679 107.743L187.401 108.402Z" fill="#263238"/>
<path d="M126.309 71.2432H73.9072C73.5488 71.2432 73.194 71.3138 72.8631 71.4512C72.5321 71.5885 72.2315 71.7898 71.9784 72.0435C71.7253 72.2972 71.5248 72.5983 71.3883 72.9296C71.2518 73.2609 71.1819 73.6159 71.1828 73.9742V97.8408C71.1783 98.1998 71.2457 98.5561 71.381 98.8887C71.5163 99.2213 71.7168 99.5234 71.9707 99.7773C72.2246 100.031 72.5267 100.232 72.8593 100.367C73.1919 100.502 73.5482 100.57 73.9072 100.565H95.8903L100.559 106.559L104.453 100.565H126.309C126.666 100.565 127.021 100.495 127.351 100.358C127.682 100.221 127.982 100.02 128.235 99.7672C128.488 99.5142 128.689 99.2139 128.826 98.8834C128.963 98.5528 129.033 98.1986 129.033 97.8408V73.9742C129.033 73.2511 128.746 72.5574 128.236 72.0454C127.725 71.5335 127.032 71.2449 126.309 71.2432Z" fill="white"/>
<path d="M126.309 71.2432H126.564C126.82 71.2653 127.071 71.3219 127.311 71.4114C127.704 71.5522 128.058 71.7825 128.347 72.084C128.759 72.5275 129.012 73.0954 129.067 73.6985C129.12 76.295 129.107 80.0754 129.127 84.8649C129.127 87.2596 129.127 89.9033 129.127 92.7689C129.127 94.2084 129.127 95.695 129.127 97.2422C129.145 97.6376 129.127 98.0339 129.073 98.4261C128.991 98.8342 128.821 99.2197 128.576 99.5562C128.324 99.9012 127.998 100.185 127.622 100.388C127.246 100.59 126.829 100.706 126.403 100.727H104.42L104.554 100.659C103.33 102.536 102.012 104.574 100.666 106.646L100.538 106.841L100.39 106.66L95.722 100.673L95.8565 100.74H74.7143C74.3309 100.74 73.9743 100.74 73.564 100.74C72.967 100.669 72.4067 100.415 71.9598 100.013C71.513 99.6103 71.2016 99.0796 71.0684 98.4933C71.0013 98.1161 70.9765 97.7325 70.9944 97.3498V87.4951C70.9944 84.6295 70.9944 81.8199 70.9944 79.0664V73.9743C70.9946 73.6198 71.0608 73.2686 71.1895 72.9383C71.4389 72.2819 71.9165 71.7374 72.5348 71.4046C72.8437 71.2466 73.1788 71.1463 73.5236 71.1086C73.8553 71.092 74.1876 71.092 74.5192 71.1086H80.2437H87.4952H100.505L119.34 71.1625L124.459 71.1961L119.34 71.2297L100.505 71.2835H87.4952H74.573C74.2501 71.2835 73.9004 71.2835 73.6111 71.2835C73.3055 71.3186 73.009 71.4098 72.7366 71.5526C72.1803 71.8376 71.7473 72.316 71.5191 72.898C71.4037 73.1915 71.3444 73.5041 71.3442 73.8195V74.8285C71.3442 76.1739 71.3442 77.5193 71.3442 78.9117V87.3403C71.3442 90.2015 71.3442 93.1164 71.3442 96.0851V97.2018C71.3229 97.5595 71.3432 97.9184 71.4047 98.2714C71.5233 98.7867 71.7983 99.2527 72.1921 99.6055C72.5859 99.9584 73.0792 100.181 73.6044 100.242C73.9474 100.276 74.3443 100.242 74.7143 100.242H95.9709L96.0247 100.31L100.693 106.296H100.417L104.312 100.31L104.359 100.236H104.453H126.423C126.81 100.223 127.189 100.121 127.53 99.9395C127.872 99.7576 128.167 99.4999 128.394 99.1862C128.622 98.8842 128.778 98.5347 128.851 98.1637C128.903 97.7872 128.921 97.4067 128.905 97.0269C128.905 95.4797 128.905 93.9931 128.905 92.5536C128.905 89.688 128.905 87.0444 128.905 84.6496C128.905 79.8736 128.905 76.0932 128.939 73.4899C128.879 72.9272 128.644 72.3976 128.266 71.9764C127.99 71.6679 127.647 71.4263 127.264 71.2701C126.948 71.2157 126.627 71.2066 126.309 71.2432Z" fill="#263238"/>
<path d="M90.2936 77.9833V78.8645H89.7218V77.9766L88.7532 76.389H89.3653L90.038 77.4922L90.7107 76.389H91.2757L90.2936 77.9833Z" fill="#263238"/>
<path d="M91.2487 77.6201C91.2366 77.3518 91.3051 77.086 91.4454 76.8569C91.5857 76.6279 91.7913 76.446 92.0359 76.3349C92.2804 76.2237 92.5526 76.1883 92.8174 76.2331C93.0822 76.278 93.3276 76.4011 93.5218 76.5866C93.7161 76.7722 93.8504 77.0116 93.9074 77.2741C93.9644 77.5365 93.9415 77.8101 93.8417 78.0595C93.7419 78.3088 93.5697 78.5226 93.3474 78.6733C93.125 78.824 92.8626 78.9047 92.594 78.9049C92.4203 78.9131 92.2467 78.886 92.0837 78.8251C91.9208 78.7642 91.7719 78.6709 91.6461 78.5507C91.5203 78.4306 91.4203 78.2862 91.3519 78.1262C91.2836 77.9662 91.2485 77.7941 91.2487 77.6201ZM93.3878 77.6201C93.3865 77.4661 93.3396 77.3159 93.253 77.1885C93.1665 77.061 93.0442 76.9621 92.9015 76.904C92.7588 76.846 92.6021 76.8315 92.4512 76.8624C92.3003 76.8932 92.1618 76.9681 92.0534 77.0775C91.9449 77.1869 91.8713 77.3259 91.8417 77.4771C91.8121 77.6283 91.828 77.7848 91.8872 77.927C91.9465 78.0692 92.0465 78.1907 92.1747 78.2761C92.3028 78.3616 92.4534 78.4072 92.6075 78.4072C92.7113 78.41 92.8146 78.3915 92.911 78.3529C93.0074 78.3142 93.0948 78.2562 93.1679 78.1825C93.2411 78.1088 93.2983 78.0208 93.3361 77.9241C93.3739 77.8274 93.3915 77.7239 93.3878 77.6201Z" fill="#263238"/>
<path d="M94.3901 77.768V76.389H94.9686V77.7344C94.9686 78.2053 95.1772 78.4071 95.5202 78.4071C95.8633 78.4071 96.0786 78.212 96.0786 77.7344V76.389H96.6503V77.7815C96.6503 78.0812 96.5313 78.3686 96.3193 78.5806C96.1074 78.7925 95.8199 78.9116 95.5202 78.9116C95.2205 78.9116 94.9331 78.7925 94.7211 78.5806C94.5092 78.3686 94.3901 78.0812 94.3901 77.7815V77.768Z" fill="#263238"/>
<path d="M98.8094 78.8645L98.3318 78.1918H97.8004V78.8645H97.2219V76.389H98.2982C98.9709 76.389 99.3812 76.7321 99.3812 77.2904C99.3887 77.4585 99.3434 77.6248 99.2517 77.7659C99.1601 77.907 99.0266 78.0159 98.87 78.0775L99.4283 78.8779L98.8094 78.8645ZM98.2713 76.8465H97.8004V77.7344H98.2713C98.6211 77.7344 98.796 77.5662 98.796 77.2972C98.796 77.0281 98.6211 76.8397 98.2578 76.8397L98.2713 76.8465Z" fill="#263238"/>
<path d="M100.693 77.6202C100.695 77.3444 100.782 77.0758 100.942 76.851C101.102 76.6262 101.327 76.4561 101.587 76.3635C101.847 76.271 102.129 76.2607 102.395 76.3338C102.661 76.407 102.898 76.5602 103.074 76.7727L102.704 77.1157C102.628 77.0218 102.532 76.9464 102.422 76.8952C102.313 76.8439 102.193 76.8181 102.072 76.8197C101.873 76.838 101.689 76.9299 101.554 77.0774C101.419 77.2248 101.345 77.4173 101.345 77.6169C101.345 77.8165 101.419 78.0089 101.554 78.1564C101.689 78.3038 101.873 78.3957 102.072 78.414C102.193 78.4169 102.312 78.3924 102.422 78.3423C102.531 78.2922 102.628 78.2178 102.704 78.1247L103.074 78.4611C102.899 78.6731 102.662 78.8261 102.397 78.8995C102.132 78.9729 101.85 78.9631 101.59 78.8714C101.331 78.7797 101.106 78.6106 100.945 78.3869C100.785 78.1631 100.697 77.8955 100.693 77.6202Z" fill="#263238"/>
<path d="M103.256 77.6201C103.244 77.3518 103.312 77.086 103.453 76.8569C103.593 76.6279 103.799 76.446 104.043 76.3349C104.288 76.2237 104.56 76.1883 104.825 76.2331C105.09 76.278 105.335 76.4011 105.529 76.5866C105.723 76.7722 105.858 77.0116 105.915 77.2741C105.972 77.5365 105.949 77.8101 105.849 78.0595C105.749 78.3088 105.577 78.5226 105.355 78.6733C105.132 78.824 104.87 78.9047 104.601 78.9049C104.428 78.9131 104.254 78.886 104.091 78.8251C103.928 78.7642 103.779 78.6709 103.653 78.5507C103.528 78.4306 103.428 78.2862 103.359 78.1262C103.291 77.9662 103.256 77.7941 103.256 77.6201ZM105.395 77.6201C105.392 77.4664 105.344 77.3169 105.257 77.1903C105.17 77.0638 105.047 76.9659 104.904 76.9089C104.761 76.8519 104.605 76.8383 104.455 76.87C104.304 76.9016 104.166 76.9769 104.058 77.0866C103.951 77.1962 103.878 77.3353 103.849 77.4862C103.82 77.6372 103.836 77.7934 103.895 77.9352C103.955 78.077 104.055 78.1981 104.183 78.2833C104.311 78.3684 104.461 78.4139 104.615 78.4139C104.719 78.4168 104.823 78.3981 104.92 78.359C105.017 78.32 105.105 78.2614 105.178 78.1869C105.251 78.1125 105.308 78.0237 105.346 77.9262C105.383 77.8286 105.4 77.7245 105.395 77.6201Z" fill="#263238"/>
<path d="M106.417 76.3891H107.554C107.729 76.3709 107.905 76.3896 108.071 76.4438C108.238 76.4981 108.391 76.5868 108.522 76.7041C108.652 76.8214 108.756 76.9648 108.827 77.1249C108.898 77.285 108.935 77.4583 108.935 77.6335C108.935 77.8087 108.898 77.982 108.827 78.1421C108.756 78.3022 108.652 78.4456 108.522 78.5629C108.391 78.6802 108.238 78.7689 108.071 78.8232C107.905 78.8774 107.729 78.8961 107.554 78.878H106.417V76.3891ZM107.521 78.4071C107.726 78.4071 107.923 78.3256 108.068 78.1805C108.213 78.0354 108.294 77.8387 108.294 77.6335C108.294 77.4283 108.213 77.2316 108.068 77.0865C107.923 76.9414 107.726 76.8599 107.521 76.8599H107.003V78.4071H107.521Z" fill="#263238"/>
<path d="M111.295 78.4071V78.8712H109.364V76.389H111.248V76.8465H109.936V77.3913H111.093V77.842H109.936V78.4071H111.295Z" fill="#263238"/>
<path d="M121.196 81.4813H79.0262C77.7073 81.4813 76.6382 82.5505 76.6382 83.8693V92.7756C76.6382 94.0944 77.7073 95.1636 79.0262 95.1636H121.196C122.515 95.1636 123.584 94.0944 123.584 92.7756V83.8693C123.584 82.5505 122.515 81.4813 121.196 81.4813Z" fill="#F5F5F5"/>
<path d="M86.1498 89.17C86.1511 89.4516 86.0933 89.7304 85.9803 89.9884C85.8674 90.2464 85.7016 90.4778 85.4938 90.6679C85.286 90.858 85.0407 91.0025 84.7737 91.092C84.5067 91.1816 84.2239 91.2143 83.9434 91.188C82.2079 91.188 81.2864 89.9368 81.2864 87.865C81.2864 85.6183 82.477 84.468 84.2327 84.468C84.7537 84.4454 85.2713 84.5614 85.7328 84.8043L85.5377 85.1945C85.1387 84.9759 84.6872 84.8712 84.2327 84.8918C82.7461 84.8918 81.7707 85.8672 81.7707 87.791C81.7686 88.0566 81.7866 88.3219 81.8245 88.5848C81.9825 88.1614 82.2741 87.8011 82.6553 87.5583C83.0364 87.3155 83.4863 87.2036 83.9367 87.2394C85.2888 87.1923 86.1498 87.9659 86.1498 89.17ZM85.6655 89.17C85.6655 88.2215 84.9928 87.6094 83.8695 87.6094C83.6439 87.5863 83.4159 87.6094 83.1995 87.6774C82.9832 87.7453 82.783 87.8567 82.6111 88.0046C82.4392 88.1526 82.2993 88.334 82.1999 88.5378C82.1005 88.7417 82.0438 88.9636 82.033 89.1902C82.033 89.9638 82.7057 90.7441 83.93 90.7441C84.1522 90.7719 84.3777 90.7519 84.5915 90.6853C84.8052 90.6187 85.0022 90.5071 85.1692 90.3579C85.3362 90.2088 85.4693 90.0256 85.5596 89.8207C85.6498 89.6158 85.6951 89.3939 85.6924 89.17H85.6655Z" fill="#407BFF"/>
<path d="M94.9686 89.2776H93.5829V91.114H93.1053V89.2776H89.3315V88.9278L92.9304 84.4882H93.4685L89.937 88.8471H93.1187V87.2327H93.5829V88.8471H94.9686V89.2776Z" fill="#407BFF"/>
<path d="M102.328 89.244C102.328 90.3472 101.534 91.1612 100.007 91.1612C99.5777 91.1778 99.1494 91.107 98.7482 90.9532C98.347 90.7994 97.9811 90.5658 97.6729 90.2665L97.915 89.8965C98.1898 90.1676 98.5172 90.3797 98.8769 90.5196C99.2367 90.6596 99.6213 90.7245 100.007 90.7105C101.198 90.7105 101.837 90.1454 101.837 89.244C101.837 88.3427 101.231 87.7776 99.9061 87.7776H99.4891V87.4278L101.447 84.9187H97.915V84.4613H102.072V84.7976L100.054 87.3471C101.621 87.4076 102.328 88.1678 102.328 89.244Z" fill="#407BFF"/>
<path d="M110.366 84.4613V84.7976L107.521 91.0872H106.989L109.808 84.8918H106.088V86.1632H105.617V84.4613H110.366Z" fill="#407BFF"/>
<path d="M113.729 87.8247C113.729 85.7528 114.799 84.4613 116.319 84.4613C117.84 84.4613 118.916 85.7461 118.916 87.8247C118.916 89.9033 117.846 91.1881 116.319 91.1881C114.792 91.1881 113.729 89.8427 113.729 87.8247ZM118.438 87.8247C118.438 85.9816 117.577 84.912 116.326 84.912C115.075 84.912 114.214 85.9816 114.214 87.8247C114.214 89.6678 115.075 90.7374 116.326 90.7374C117.577 90.7374 118.438 89.6409 118.438 87.8247Z" fill="#407BFF"/>
<path d="M257.952 261.053C266.757 257.313 276.955 249.96 281.495 240.94C271.724 244.995 263.484 252.035 257.952 261.053Z" fill="#263238"/>
<path d="M259.828 247.054C268.634 243.321 278.831 235.968 283.372 226.948C273.599 230.997 265.358 238.035 259.828 247.054Z" fill="#263238"/>
<path d="M262.391 233.446C271.203 229.706 281.394 222.353 285.935 213.34C276.163 217.39 267.922 224.428 262.391 233.446Z" fill="#263238"/>
<path d="M265.566 219.199C273.874 214.288 283.136 205.543 286.608 196.005C277.376 201.383 270.034 209.485 265.586 219.199" fill="#263238"/>
<path d="M268.983 208.295C275.037 200.377 280.681 188.592 280.607 178.381C273.878 186.994 269.835 197.398 268.983 208.295Z" fill="#263238"/>
<path d="M267.288 213.481C266.064 202.772 261.907 189.312 254.83 181.28C256.025 192.935 260.327 204.056 267.288 213.481Z" fill="#263238"/>
<path d="M264.443 225.192C262.29 214.154 256.842 200.498 248.81 192.756C251.009 204.777 256.409 215.983 264.443 225.192Z" fill="#263238"/>
<path d="M261.174 239.473C259.028 228.414 253.566 214.779 245.574 207.037C247.773 219.058 253.174 230.264 261.207 239.473" fill="#263238"/>
<path d="M258.55 257.01C256.391 245.971 250.942 232.316 242.917 224.573C245.116 236.595 250.517 247.801 258.55 257.01Z" fill="#263238"/>
<path d="M269.394 206.216C269.361 206.267 269.338 206.324 269.327 206.384C269.28 206.512 269.226 206.673 269.158 206.875C269.01 207.339 268.802 207.978 268.546 208.785C268.015 210.447 267.302 212.862 266.461 215.862C265.62 218.862 264.692 222.448 263.737 226.45C262.781 230.452 261.84 234.885 260.952 239.554C260.064 244.222 259.371 248.702 258.786 252.779C258.201 256.855 257.783 260.541 257.481 263.636C257.178 266.73 256.963 269.246 256.855 270.988C256.801 271.835 256.761 272.501 256.727 273.006C256.727 273.221 256.727 273.389 256.727 273.531C256.718 273.589 256.718 273.648 256.727 273.706C256.748 273.649 256.759 273.59 256.761 273.531C256.761 273.396 256.761 273.221 256.815 273.013C256.862 272.528 256.929 271.862 257.01 270.995C257.158 269.266 257.407 266.757 257.743 263.662C258.079 260.568 258.544 256.895 259.122 252.826C259.701 248.756 260.467 244.289 261.315 239.621C262.163 234.953 263.145 230.533 264.066 226.524C264.988 222.515 265.903 218.929 266.717 215.923C267.531 212.916 268.203 210.494 268.694 208.826L269.246 206.895C269.3 206.693 269.34 206.525 269.38 206.391C269.393 206.333 269.397 206.274 269.394 206.216Z" fill="#263238"/>
<path d="M253.646 266.878C257.38 259.062 260.097 248.043 258.268 239.48C254.093 247.968 252.487 257.49 253.646 266.878Z" fill="#455A64"/>
<path d="M247.451 256.754C251.185 248.931 253.902 237.919 252.066 229.356C247.89 237.844 246.286 247.367 247.451 256.754Z" fill="#455A64"/>
<path d="M241.881 246.456C245.615 238.632 248.332 227.621 246.496 219.057C242.32 227.545 240.716 237.068 241.881 246.456Z" fill="#455A64"/>
<path d="M236.392 235.35C239.17 227.076 240.563 215.788 237.738 207.534C234.603 216.48 234.136 226.143 236.392 235.35Z" fill="#455A64"/>
<path d="M232.793 226.255C232.518 217.45 229.928 206.418 224.459 199.913C224.581 209.323 227.481 218.487 232.793 226.255Z" fill="#455A64"/>
<path d="M234.468 230.621C227.99 224.513 218.142 218.439 209.29 217.645C216.214 224.366 224.977 228.882 234.468 230.621Z" fill="#455A64"/>
<path d="M238.848 239.89C231.589 234.132 220.8 228.737 211.476 228.717C219.292 235.07 228.818 238.959 238.848 239.89Z" fill="#455A64"/>
<path d="M244.296 251.063C237.038 245.312 226.255 239.91 216.932 239.89C224.746 246.242 234.27 250.131 244.296 251.063Z" fill="#455A64"/>
<path d="M251.904 263.925C244.646 258.167 233.856 252.772 224.533 252.745C232.346 259.103 241.874 262.995 251.904 263.925Z" fill="#455A64"/>
<path d="M231.973 224.661C231.973 224.661 231.973 224.708 232.013 224.802L232.161 225.219L232.767 226.8C233.298 228.145 234.112 230.163 235.141 232.572C237.213 237.408 240.287 244.007 244.101 251.097C246.012 254.629 247.929 257.952 249.718 260.932C251.507 263.912 253.209 266.562 254.669 268.755C256.129 270.948 257.36 272.703 258.194 273.901L259.189 275.246L259.452 275.596C259.512 275.677 259.546 275.717 259.553 275.71C259.531 275.664 259.506 275.619 259.479 275.576L259.243 275.206C259.008 274.863 258.698 274.392 258.301 273.8C257.467 272.582 256.283 270.807 254.864 268.6C253.445 266.394 251.77 263.73 249.98 260.75C248.191 257.77 246.301 254.44 244.391 250.909C240.576 243.886 237.502 237.294 235.356 232.45C234.294 230.042 233.453 228.085 232.888 226.726L232.215 225.165L232.033 224.762C232.017 224.726 231.996 224.693 231.973 224.661Z" fill="#263238"/>
<path d="M235.874 267.826H272.979V274.977H269.165L265.956 295.373H243.018L239.715 274.977H235.874V267.826Z" fill="#407BFF"/>
<path d="M235.874 274.829C235.874 274.735 244.121 274.654 254.292 274.654C264.463 274.654 272.71 274.735 272.71 274.829C272.71 274.923 264.47 274.997 254.292 274.997C244.115 274.997 235.874 274.923 235.874 274.829Z" fill="#263238"/>
<path d="M23.3285 295.386H17.308L15.0747 268.271H22.1647L23.3285 295.386Z" fill="#263238"/>
<path d="M75.5283 295.386H81.5488L83.7821 268.271H76.692L75.5283 295.386Z" fill="#263238"/>
<path d="M87.9191 271.708L10.3998 273.524L8.04545 223.457C7.9899 222.295 8.17077 221.135 8.5771 220.045C8.98343 218.956 9.60675 217.96 10.4093 217.118C11.2119 216.277 12.1769 215.607 13.246 215.149C14.3151 214.692 15.4659 214.456 16.6288 214.457H82.679C83.8578 214.457 85.0241 214.699 86.1052 215.169C87.1864 215.639 88.1594 216.326 88.9638 217.187C89.7682 218.049 90.3867 219.067 90.781 220.178C91.1752 221.289 91.3368 222.469 91.2556 223.645L87.9191 271.708Z" fill="#407BFF"/>
<path d="M91.8946 223.289H91.6794H91.0403L88.5985 223.329H79.6115C72.0237 223.329 61.5434 223.262 49.9734 223.531C38.3966 223.914 27.9028 223.847 20.3218 223.733C16.5279 223.672 13.4537 223.598 11.3348 223.531L8.89298 223.45H8.26067C8.18921 223.459 8.11687 223.459 8.04541 223.45H8.26067H8.89298H11.3348L20.3218 223.537C27.9096 223.591 38.3899 223.618 49.9666 223.228C61.5434 222.966 72.0237 223.087 79.6115 223.141L88.5985 223.215L91.0403 223.248H91.6794L91.8946 223.289Z" fill="#263238"/>
<path d="M36.3178 215.237C34.5754 215.492 32.88 216.001 31.2862 216.75C29.7429 217.599 28.3349 218.674 27.1089 219.939C27.3558 219.47 27.6811 219.047 28.0708 218.688C29.8589 216.848 32.2049 215.651 34.7438 215.284C35.2616 215.176 35.7945 215.16 36.3178 215.237Z" fill="#263238"/>
<path d="M68.2029 124.203L77.6742 141.511L91.5313 133.749L98.2581 135.975C98.2581 135.975 81.2797 154.42 78.515 155.382C75.7503 156.344 70.5169 156.499 67.5302 152.752C64.8395 149.341 56.875 131.448 56.875 131.448L68.2029 124.203Z" fill="#FFBE9D"/>
<path d="M107.211 112.902C107.09 112.753 106.932 112.638 106.753 112.567C106.574 112.496 106.379 112.473 106.189 112.499L99.6033 113.387C99.317 113.429 99.0433 113.533 98.8008 113.691C98.5582 113.849 98.3524 114.057 98.1974 114.301L84.468 135.39L85.5174 135.975L92.8227 135.746L107.42 113.165L107.211 112.902Z" fill="#263238"/>
<path d="M102.536 115.64C102.589 115.724 102.667 115.788 102.758 115.825C102.85 115.862 102.951 115.87 103.047 115.846C103.142 115.823 103.229 115.77 103.293 115.695C103.357 115.62 103.396 115.526 103.404 115.428C103.412 115.329 103.389 115.231 103.338 115.146C103.288 115.062 103.211 114.995 103.121 114.956C103.03 114.917 102.929 114.908 102.833 114.929C102.737 114.95 102.649 115.001 102.584 115.075C102.506 115.146 102.458 115.243 102.449 115.348C102.44 115.453 102.472 115.557 102.536 115.64Z" fill="white"/>
<path d="M107.42 113.165C107.001 113.282 106.574 113.365 106.142 113.413L102.644 113.958L100.229 114.308C100.024 114.326 99.8262 114.39 99.6493 114.495C99.4724 114.6 99.3212 114.743 99.2066 114.914L98.4263 116.124C97.3433 117.786 96.1661 119.609 94.9284 121.506C92.4328 125.327 90.1591 128.777 88.4909 131.266L86.5065 134.24C86.2757 134.609 86.0171 134.959 85.7329 135.289C85.9223 134.893 86.1475 134.514 86.4056 134.159L88.2891 131.159C89.8968 128.629 92.1301 125.158 94.6257 121.338C95.8769 119.434 97.0675 117.618 98.1505 115.956C98.4263 115.546 98.6954 115.142 98.951 114.745C99.0944 114.539 99.2815 114.367 99.4989 114.242C99.7163 114.116 99.9587 114.04 100.209 114.019L102.637 113.709L106.155 113.292C106.573 113.216 106.996 113.174 107.42 113.165Z" fill="#455A64"/>
<path d="M100.094 120.692C100.094 120.692 99.5091 120.591 99.1862 122.199C98.8633 123.806 97.8408 128.421 97.8408 128.421L94.76 126.786L90.8988 127.291C90.8988 127.291 90.0579 128.064 90.6768 128.488C91.2957 128.912 93.7308 129.342 93.7308 129.342L95.5268 131.932L90.3674 129.443C90.3674 129.443 88.6453 129.894 89.1498 130.943C89.6543 131.993 93.1321 135.282 93.1321 135.282L90.549 135.087L87.495 133.217C87.495 133.217 86.5533 133.264 86.9031 134.065C87.2529 134.865 90.4548 137.771 90.4548 137.771L94.3294 139.655C94.3294 139.655 96.4484 139.486 96.6502 138.861C96.7872 138.369 96.8728 137.864 96.9058 137.354C96.9058 137.354 98.0292 137.051 98.2512 136.506C98.3747 136.048 98.3999 135.569 98.3251 135.101C98.3251 135.101 100.088 135.41 100.31 134.428C100.464 133.204 100.414 131.963 100.162 130.755C99.9867 129.995 100.915 122.965 100.834 122.757C100.754 122.548 101.204 120.228 100.094 120.692Z" fill="#FFBE9D"/>
<path d="M96.7512 138.875C96.445 139.058 96.0987 139.164 95.7422 139.184C94.0234 139.433 92.2741 139.017 90.8519 138.02C90.3205 137.637 90.0581 137.348 90.0917 137.287C90.1254 137.226 91.39 138.249 93.2735 138.686C95.157 139.123 96.7311 138.753 96.7512 138.875Z" fill="#EB996E"/>
<path d="M95.8363 137.482C95.7758 137.569 95.0829 137.213 94.3497 136.607C93.6165 136.002 93.1322 135.403 93.2062 135.329C93.2802 135.255 93.8789 135.713 94.6053 136.305C95.3318 136.897 95.8969 137.388 95.8363 137.482Z" fill="#EB996E"/>
<path d="M97.8746 134.139C97.8141 134.226 97.128 133.876 96.4418 133.237C95.7557 132.598 95.3521 131.953 95.4328 131.892C95.5135 131.832 96.0517 132.343 96.7109 132.955C97.3701 133.567 97.9352 134.045 97.8746 134.139Z" fill="#EB996E"/>
<path d="M100.02 131.441C99.9127 131.488 99.5226 130.768 98.9105 129.968C98.2983 129.167 97.6996 128.623 97.7669 128.515C97.8342 128.407 98.5741 128.878 99.2199 129.726C99.6624 130.198 99.9429 130.799 100.02 131.441Z" fill="#EB996E"/>
<path d="M102.637 256.196C102.688 255.986 102.688 255.767 102.637 255.557C102.528 254.975 102.299 254.423 101.964 253.936C101.855 253.766 101.726 253.611 101.581 253.471C101.486 253.381 101.368 253.319 101.24 253.291C101.112 253.262 100.979 253.269 100.854 253.31C100.781 253.335 100.715 253.377 100.66 253.432C100.605 253.486 100.564 253.553 100.538 253.626C100.491 253.766 100.491 253.917 100.538 254.057C100.63 254.29 100.743 254.516 100.875 254.729C101.124 255.153 101.332 255.57 101.655 256.075C101.749 256.21 101.878 256.317 102.029 256.385C102.179 256.453 102.345 256.478 102.509 256.458C102.81 256.404 103.094 256.28 103.337 256.095C103.782 255.768 104.188 255.391 104.547 254.971C104.72 254.772 104.882 254.563 105.032 254.346C105.195 254.133 105.316 253.891 105.388 253.633C105.429 253.481 105.414 253.32 105.348 253.177C105.281 253.034 105.167 252.92 105.025 252.853C104.892 252.813 104.751 252.809 104.616 252.839C104.48 252.87 104.355 252.935 104.251 253.027C103.944 253.296 103.673 253.604 103.444 253.942C103.106 254.418 102.836 254.939 102.644 255.489C102.555 255.684 102.509 255.895 102.509 256.108C102.828 255.401 103.213 254.725 103.66 254.09C103.887 253.788 104.149 253.512 104.44 253.27C104.595 253.162 104.783 253.088 104.897 253.148C104.964 253.188 105.015 253.248 105.042 253.321C105.069 253.393 105.07 253.472 105.045 253.545C104.975 253.756 104.868 253.952 104.729 254.124C104.588 254.326 104.433 254.521 104.272 254.716C103.923 255.107 103.536 255.461 103.115 255.772C102.918 255.924 102.687 256.025 102.442 256.068C102.342 256.08 102.24 256.064 102.148 256.021C102.057 255.978 101.979 255.911 101.924 255.826C101.662 255.442 101.406 254.965 101.157 254.568C101.043 254.359 100.902 254.158 100.834 253.989C100.767 253.821 100.834 253.687 100.935 253.633C101.224 253.518 101.514 253.848 101.709 254.124C102.146 254.75 102.461 255.453 102.637 256.196Z" fill="#263238"/>
<path d="M86.1096 256.761L77.903 274.553L64.658 268.432L73.1471 246.415L86.1096 256.761Z" fill="#FFBE9D"/>
<path d="M79.423 273.363L74.6268 282.511C74.6268 282.511 86.9031 295.204 85.7529 298.043L56.895 284.206L64.8191 265.862L79.423 273.363Z" fill="#455A64"/>
<path d="M66.3327 276.982C66.0155 276.942 65.6945 277.016 65.427 277.191C65.1595 277.366 64.9631 277.63 64.8729 277.937C64.8121 278.253 64.8753 278.58 65.0494 278.851C65.2235 279.121 65.4952 279.314 65.808 279.39C66.1449 279.441 66.4887 279.365 66.7731 279.178C67.0575 278.99 67.2625 278.704 67.3484 278.374C67.377 278.037 67.2738 277.703 67.0605 277.44C66.8472 277.178 66.5404 277.009 66.2049 276.968" fill="#E0E0E0"/>
<g opacity="0.6">
<path d="M56.9219 284.206L58.1192 281.906L85.3425 296.032C85.3425 296.032 86.3582 297.202 85.7797 298.05L56.9219 284.206Z" fill="white"/>
</g>
<path d="M75.1919 282.585C75.1247 282.726 74.3847 282.451 73.4766 282.585C72.5685 282.72 71.9093 283.123 71.8084 283.002C71.7075 282.881 72.3061 282.175 73.4093 282.047C74.5125 281.919 75.2861 282.471 75.1919 282.585Z" fill="#263238"/>
<path d="M77.6204 285.289C77.6204 285.444 76.8602 285.39 76.1001 285.753C75.34 286.117 74.896 286.688 74.7548 286.614C74.6135 286.54 74.9095 285.7 75.8714 285.269C76.8333 284.839 77.6809 285.155 77.6204 285.289Z" fill="#263238"/>
<path d="M77.5999 289.736C77.4587 289.736 77.6 288.908 78.3332 288.309C79.0664 287.711 79.8736 287.717 79.8736 287.865C79.8736 288.013 79.2749 288.229 78.6762 288.726C78.0776 289.224 77.7479 289.789 77.5999 289.736Z" fill="#263238"/>
<path d="M76.5709 279.067C76.4498 279.168 75.8982 278.663 75.0775 278.334C74.2569 278.004 73.5102 277.957 73.4967 277.802C73.4833 277.648 74.3174 277.432 75.2793 277.802C76.2413 278.172 76.692 278.986 76.5709 279.067Z" fill="#263238"/>
<path d="M82.1542 270.988L103.794 216.844C103.794 216.844 103.303 207.602 101.601 204.689C99.8994 201.776 48.3589 184.751 48.3589 184.751C48.3589 184.751 35.235 181.589 26.4767 184.751C17.7185 187.912 11.1599 198.877 12.3505 204.931C13.5412 210.985 18.6939 215.472 18.6939 215.472L56.5992 216.602L77.2571 224.136L63.3462 264.006L82.1542 270.988Z" fill="#263238"/>
<path d="M101.399 233.991L101.891 253.572L87.3002 253.936L85.2014 230.432L101.399 233.991Z" fill="#FFBE9D"/>
<path d="M102.758 251.824L102.489 262.149C102.489 262.149 119.104 268.116 119.306 271.176L87.307 271.499L86.3181 251.541L102.758 251.824Z" fill="#455A64"/>
<path d="M92.5806 260.864C92.2737 260.961 92.0134 261.168 91.8495 261.444C91.6856 261.721 91.6298 262.049 91.6927 262.365C91.7782 262.675 91.9793 262.94 92.2545 263.106C92.5298 263.273 92.8583 263.328 93.1726 263.259C93.4969 263.155 93.7712 262.934 93.9426 262.64C94.114 262.346 94.1704 261.998 94.1009 261.665C93.9799 261.35 93.7408 261.094 93.4344 260.952C93.1279 260.81 92.7783 260.793 92.4596 260.905" fill="#E0E0E0"/>
<g opacity="0.6">
<path d="M87.3269 271.499L87.3874 268.903L118.048 269.576C118.048 269.576 119.474 270.181 119.326 271.19L87.3269 271.499Z" fill="white"/>
</g>
<path d="M103.007 261.981C103.007 262.136 102.22 262.216 101.46 262.728C100.7 263.239 100.29 263.898 100.148 263.838C100.007 263.777 100.229 262.869 101.164 262.27C102.099 261.672 103.041 261.84 103.007 261.981Z" fill="#263238"/>
<path d="M106.377 263.333C106.417 263.488 105.738 263.757 105.213 264.423C104.689 265.089 104.541 265.768 104.393 265.768C104.245 265.768 104.124 264.88 104.796 264.059C105.469 263.239 106.37 263.185 106.377 263.333Z" fill="#263238"/>
<path d="M108.348 267.335C108.207 267.369 107.985 266.589 108.348 265.728C108.711 264.867 109.471 264.524 109.539 264.651C109.606 264.779 109.155 265.243 108.866 265.95C108.577 266.656 108.476 267.315 108.348 267.335Z" fill="#263238"/>
<path d="M102.684 258.214C102.624 258.355 101.904 258.147 101.023 258.214C100.141 258.281 99.4553 258.57 99.3679 258.436C99.2804 258.301 99.9396 257.763 100.982 257.676C102.025 257.588 102.765 258.086 102.684 258.214Z" fill="#263238"/>
<path d="M92.8767 179.612C92.8767 179.612 101.622 178.939 102.59 188.397C103.559 197.855 104.514 242.13 104.514 242.13L84.1319 243.832L80.9703 198.608L48.3926 184.751C48.3926 184.751 87.0446 178.401 92.8767 179.612Z" fill="#263238"/>
<path d="M56.8616 166.817C56.8616 166.817 62.1623 181.69 61.1533 183.345C60.1443 185 46.5091 191.821 46.5091 191.821L12.3775 204.931C12.3775 204.931 8.8728 199.355 8.8728 190.805C8.8728 182.255 20.7456 166.831 20.7456 166.831L56.8616 166.817Z" fill="#263238"/>
<path d="M46.7446 184.018C46.7953 184.052 46.8494 184.082 46.9061 184.105L47.3904 184.327L49.2806 185.168L56.3774 188.262L80.8695 198.803L80.7552 198.648C81.0646 203.115 81.4279 207.938 81.744 212.929C82.5781 224.6 83.345 235.356 83.9504 243.872V244.027H84.1051L98.9847 242.722L103.081 242.339L104.151 242.231L104.514 242.177C104.391 242.167 104.267 242.167 104.144 242.177L103.075 242.245L98.9713 242.547L84.0782 243.718L84.2464 243.859C83.6612 235.35 82.901 224.587 82.1207 212.916C81.7709 207.925 81.448 203.101 81.1117 198.635V198.527L81.0108 198.48L56.4648 188.054L49.3277 185.067L47.4173 184.28L46.9195 184.085C46.8631 184.058 46.8046 184.035 46.7446 184.018Z" fill="#455A64"/>
<path d="M19.6021 185.477C19.9308 185.426 20.2533 185.341 20.564 185.222L23.1336 184.388C25.9381 183.44 28.8125 182.714 31.7304 182.215C34.6497 181.739 37.6298 181.777 40.5358 182.329C42.7556 182.793 44.0337 183.426 44.0606 183.352C43.7848 183.165 43.4864 183.013 43.1727 182.901C42.3391 182.55 41.4772 182.271 40.5963 182.067C37.6598 181.427 34.6286 181.349 31.6632 181.838C28.7218 182.335 25.8326 183.103 23.0327 184.132C21.9564 184.515 21.0954 184.845 20.4967 185.08C20.1881 185.188 19.8888 185.321 19.6021 185.477Z" fill="#455A64"/>
<path d="M24.4248 177.641C25.4194 177.58 26.4169 177.58 27.4115 177.641C28.3331 177.701 29.4295 177.843 30.6403 177.984C31.8512 178.125 33.1898 178.293 34.5755 178.556C36.9465 178.933 39.2191 179.777 41.2619 181.038C42.0771 181.605 42.8525 182.228 43.5827 182.901C43.4488 182.665 43.2811 182.45 43.0849 182.262C42.5805 181.719 42.0189 181.232 41.4099 180.809C39.3678 179.459 37.0604 178.563 34.6428 178.179C33.2436 177.917 31.8983 177.762 30.6807 177.634C29.4632 177.506 28.36 177.399 27.4249 177.372C26.6881 177.339 25.9499 177.371 25.2186 177.466C24.947 177.486 24.6797 177.545 24.4248 177.641Z" fill="#455A64"/>
<path d="M39.4998 58.1465C35.5781 57.4738 32.1004 58.9873 28.811 61.2004C25.4444 63.5668 22.8788 66.9029 21.4559 70.7641C20.0331 74.6253 19.8205 78.8285 20.8465 82.8135C21.4146 84.8388 22.3869 86.7281 23.7049 88.3674C25.0228 90.0067 26.6591 91.3622 28.515 92.3521C33.6206 94.9419 40.1523 94.0405 44.7265 90.583C49.3007 87.1254 51.904 81.4144 52.126 75.6899C52.3378 71.7198 51.2979 67.7834 49.1527 64.436C48.0652 62.7822 46.6486 61.3703 44.9913 60.2882C43.334 59.2061 41.4715 58.477 39.52 58.1465" fill="#263238"/>
<path d="M28.333 71.499C28.9115 69.9922 28.6828 68.3172 28.9115 66.723C29.416 63.2183 32.2749 60.4065 35.5038 59.041C38.5443 57.7697 42.2305 58.0454 45.9168 59.2294C48.4595 60 50.7299 61.4794 52.462 63.4941C53.5642 64.8611 54.3227 66.4723 54.6738 68.1928C55.0249 69.9133 54.9585 71.693 54.48 73.3825L36.5464 70.7725C34.8647 72.1582 33.1427 73.5776 31.1045 74.3511C30.5169 74.6088 29.8728 74.7108 29.2344 74.6471C28.9164 74.6093 28.616 74.4807 28.3691 74.2767C28.1222 74.0727 27.9392 73.802 27.842 73.4968C27.6805 72.8174 28.0841 72.1515 28.333 71.499Z" fill="#263238"/>
<path d="M46.3004 64.1801L30.6405 67.5031C29.9147 67.5513 29.2329 67.8681 28.728 68.3916C28.2231 68.9152 27.9312 69.6081 27.9094 70.3351L28.0978 104.231C28.1136 106.546 28.8888 108.791 30.3042 110.622L31.7975 112.546C35.208 116.938 42.1029 116.494 44.7062 111.584C44.8654 111.305 44.9875 111.006 45.0694 110.696C45.1165 110.393 45.1972 110.191 45.2107 109.936L45.5134 106.626C45.6614 103.612 45.6883 100.572 45.6883 100.572C45.6883 100.572 52.0989 99.7647 53.7604 91.5043C54.5743 87.4009 54.6282 80.6136 54.4936 75.064C54.3524 70.093 51.2917 63.8505 46.3004 64.1801Z" fill="#FFBE9D"/>
<path d="M52.0921 81.4546C52.0833 81.7318 51.9666 81.9946 51.7668 82.1869C51.5669 82.3792 51.2999 82.4857 51.0225 82.4838C50.8864 82.4902 50.7503 82.469 50.6225 82.4217C50.4947 82.3743 50.3777 82.3017 50.2785 82.2082C50.1793 82.1146 50.1 82.0021 50.0452 81.8773C49.9905 81.7524 49.9614 81.6179 49.9597 81.4816C49.9701 81.2043 50.0872 80.9418 50.2865 80.7488C50.4857 80.5558 50.7518 80.4472 51.0293 80.4456C51.1658 80.4402 51.302 80.4622 51.4298 80.5103C51.5577 80.5585 51.6746 80.6317 51.7737 80.7258C51.8728 80.8198 51.952 80.9328 52.0067 81.058C52.0614 81.1832 52.0904 81.318 52.0921 81.4546Z" fill="#263238"/>
<path d="M52.8726 78.5553C52.7313 78.6899 51.951 78.0643 50.8007 78.0239C49.6504 77.9836 48.7827 78.5217 48.6751 78.3737C48.5674 78.2257 48.7558 78.0643 49.1325 77.8154C49.6425 77.4877 50.2423 77.3278 50.8478 77.358C51.4426 77.3782 52.0153 77.588 52.4824 77.9567C52.8255 78.2459 52.9398 78.5015 52.8726 78.5553Z" fill="#263238"/>
<path d="M41.8136 81.1923C41.8066 81.4707 41.6906 81.7351 41.4906 81.9289C41.2906 82.1226 41.0225 82.2301 40.7441 82.2282C40.6085 82.2336 40.4731 82.2118 40.3461 82.164C40.2191 82.1162 40.1029 82.0435 40.0044 81.9501C39.906 81.8566 39.8273 81.7444 39.7729 81.62C39.7186 81.4957 39.6897 81.3617 39.688 81.2259C39.695 80.9488 39.8101 80.6853 40.0086 80.4917C40.2072 80.2982 40.4735 80.1899 40.7508 80.19C40.8868 80.1846 41.0224 80.2064 41.1498 80.2541C41.2773 80.3018 41.3939 80.3745 41.4929 80.4678C41.5918 80.5612 41.6712 80.6733 41.7263 80.7977C41.7814 80.9221 41.8111 81.0563 41.8136 81.1923Z" fill="#263238"/>
<path d="M41.9816 78.2796C41.8404 78.4141 41.0601 77.7818 39.9098 77.7415C38.7595 77.7011 37.8918 78.2392 37.7841 78.098C37.6765 77.9567 37.8649 77.7885 38.2483 77.5329C38.7581 77.2103 39.3541 77.0507 39.9569 77.0755C40.5541 77.0995 41.1285 77.3114 41.5982 77.6809C41.9346 77.9634 42.0489 78.2191 41.9816 78.2796Z" fill="#263238"/>
<path d="M45.4194 86.9976C46.033 86.8395 46.6626 86.7515 47.2961 86.7353C47.5921 86.7353 47.8679 86.668 47.9284 86.4729C47.963 86.1718 47.9068 85.8673 47.767 85.5984C47.5181 84.8787 47.2558 84.1253 46.9867 83.3315C45.9037 80.1094 45.1368 77.4658 45.2646 77.4254C45.3925 77.385 46.3813 79.9614 47.4576 83.1835C47.7132 83.9773 47.9621 84.7307 48.1975 85.4572C48.3703 85.8176 48.4085 86.228 48.3051 86.6142C48.2577 86.7152 48.1885 86.8043 48.1024 86.8753C48.0163 86.9463 47.9155 86.9972 47.8074 87.0245C47.6437 87.0583 47.4767 87.0741 47.3096 87.0716C46.679 87.1307 46.0434 87.1059 45.4194 86.9976Z" fill="#263238"/>
<path d="M45.6882 100.606C41.7737 100.516 37.9611 99.3403 34.6765 97.2089C34.6765 97.2089 37.2461 103.068 45.5941 102.59L45.6882 100.606Z" fill="#EB996E"/>
<path d="M44.8272 89.7421C44.6196 89.4592 44.3432 89.2341 44.0241 89.0881C43.7051 88.9421 43.354 88.8801 43.0042 88.908C42.7458 88.9217 42.493 88.9885 42.2615 89.1042C42.03 89.2199 41.8249 89.3821 41.6589 89.5807C41.5014 89.7638 41.403 89.9903 41.3766 90.2304C41.3502 90.4705 41.397 90.713 41.5109 90.926C41.6875 91.138 41.9231 91.2927 42.1878 91.3705C42.4524 91.4484 42.7343 91.4458 42.9975 91.3633C43.5479 91.1939 44.0582 90.9148 44.4976 90.5426C44.632 90.4585 44.7485 90.3488 44.8406 90.2197C44.8829 90.1559 44.9054 90.081 44.9054 90.0045C44.9054 89.9279 44.8829 89.853 44.8406 89.7892" fill="#EB996E"/>
<path d="M42.0157 87.6635C42.2041 87.6635 42.157 88.9012 43.1862 89.8295C44.2154 90.7578 45.5473 90.6704 45.554 90.8453C45.554 90.9193 45.2446 91.074 44.6863 91.0673C43.9557 91.0483 43.2553 90.772 42.7086 90.287C42.189 89.8288 41.8661 89.1879 41.8072 88.4976C41.7534 87.9528 41.9283 87.6501 42.0157 87.6635Z" fill="#263238"/>
<path d="M41.9145 74.8758C41.7934 75.1852 40.6499 74.9901 39.2978 75.0977C37.9457 75.2054 36.8492 75.535 36.6811 75.2457C36.6071 75.1112 36.8021 74.822 37.2528 74.5394C37.8504 74.1858 38.5239 73.9805 39.2171 73.9407C39.9054 73.8822 40.5977 73.9906 41.2351 74.2569C41.7531 74.4722 41.9683 74.7278 41.9145 74.8758Z" fill="#263238"/>
<path d="M52.7314 73.5304C52.5229 73.786 51.7426 73.4833 50.7941 73.4295C49.8456 73.3757 49.0317 73.5371 48.8568 73.2613C48.7761 73.1268 48.9173 72.8712 49.2738 72.6357C49.7566 72.3508 50.3163 72.2238 50.8748 72.2725C51.4314 72.3025 51.965 72.5046 52.4018 72.851C52.7247 73.1335 52.8256 73.4093 52.7314 73.5304Z" fill="#263238"/>
<path d="M25.4608 69.0774C27.0887 64.3081 34.2056 57.8101 39.1969 58.2608L47.1345 63.2318C46.8456 64.5969 46.1929 65.8584 45.2455 66.8827C44.2982 67.907 43.0914 68.6561 41.753 69.0505C40.3202 69.4541 38.6116 69.5415 37.717 70.7456C36.8223 71.9497 37.2999 73.7996 36.4725 75.0642C35.3222 76.8266 32.2885 76.6787 31.414 78.5891C31.0373 79.4232 31.2055 80.4322 30.8086 81.2798C30.2839 82.383 27.4452 83.735 26.2815 83.3449C25.1177 82.9547 25.1581 80.9703 24.8016 79.921C24.3427 78.7405 24.3094 77.437 24.7074 76.2347C25.2859 73.8736 24.6872 71.3511 25.4608 69.0774Z" fill="#263238"/>
<path d="M29.7256 84.374C29.7256 83.7552 29.0529 82.2686 28.4812 82.1475C26.86 81.8313 23.9137 81.8515 23.7253 85.9952C23.4697 91.6591 29.2077 90.7443 29.2278 90.5829C29.248 90.4214 29.6449 86.5132 29.7256 84.374Z" fill="#FFBE9D"/>
<path d="M27.627 88.3631C27.627 88.3631 27.5261 88.4237 27.3512 88.4909C27.1159 88.5856 26.8532 88.5856 26.618 88.4909C26.026 88.242 25.5686 87.2667 25.582 86.2509C25.593 85.7629 25.7101 85.2832 25.9251 84.845C25.9873 84.6709 26.0908 84.5145 26.2267 84.3891C26.3626 84.2637 26.5269 84.1732 26.7054 84.1253C26.8194 84.0992 26.939 84.1147 27.0425 84.169C27.1461 84.2233 27.2269 84.3127 27.2705 84.4212C27.3377 84.5827 27.2705 84.697 27.331 84.7038C27.3915 84.7105 27.4521 84.6163 27.4185 84.3809C27.3973 84.2394 27.3256 84.1103 27.2167 84.0176C27.142 83.9538 27.0554 83.9054 26.9618 83.8754C26.8683 83.8453 26.7697 83.8342 26.6718 83.8427C26.4374 83.8797 26.2163 83.9756 26.0292 84.1215C25.8421 84.2674 25.6952 84.4585 25.6022 84.6769C25.3408 85.1561 25.2 85.6917 25.1919 86.2375C25.1919 87.381 25.7099 88.4775 26.5372 88.7533C26.6872 88.8036 26.8464 88.82 27.0034 88.8014C27.1604 88.7828 27.3114 88.7296 27.4454 88.6456C27.5732 88.4977 27.627 88.3698 27.627 88.3631Z" fill="#EB996E"/>
<path d="M24.2636 67.6445C24.2636 65.8687 22.0706 64.7117 20.3419 64.2812C18.578 63.9782 16.7642 64.3247 15.2362 65.2565C14.3281 65.7543 13.4133 66.4674 13.2182 67.4831C13.0231 68.4988 13.9918 69.7097 14.9604 69.3464C14.487 69.5013 14.0539 69.7594 13.6924 70.102C13.3309 70.4447 13.05 70.8633 12.8701 71.3278C12.6901 71.7922 12.6155 72.2908 12.6517 72.7876C12.6879 73.2844 12.834 73.7669 13.0794 74.2003C13.3249 74.6338 13.6635 75.0073 14.0709 75.2939C14.4782 75.5805 14.9442 75.773 15.435 75.8576C15.9259 75.9422 16.4294 75.9167 16.9092 75.783C17.389 75.6493 17.8331 75.4106 18.2095 75.0844C17.7181 76.7272 16.6781 78.1518 15.2631 79.1204C16.7268 79.3305 18.22 79.1511 19.5923 78.6005C20.9646 78.0499 22.1676 77.1473 23.0802 75.9838C23.9927 74.8203 24.5825 73.4369 24.7903 71.9729C24.998 70.5089 24.8164 69.016 24.2636 67.6445Z" fill="#263238"/>
<path d="M20.3217 76.6182C20.1533 76.0674 20.0805 75.4918 20.1064 74.9164C20.0839 72.118 21.0031 69.3933 22.7164 67.1806C23.0399 66.7048 23.4453 66.2902 23.9138 65.9563C22.7307 67.4668 21.7869 69.1502 21.1154 70.9476C20.0728 73.9746 20.4495 76.625 20.3217 76.6182Z" fill="#407BFF"/>
<path d="M45.4797 61.5232C45.9977 63.8305 49.5158 66.7836 51.0428 68.5796C53.9756 72.0035 54.5541 73.1404 54.5272 80.8022C55.913 78.1585 56.9758 75.562 56.8682 72.582C56.8028 69.5634 55.6352 66.6731 53.5855 64.4561C52.5598 63.3744 51.2965 62.5463 49.8955 62.0373C48.4944 61.5283 46.9942 61.3523 45.5134 61.5232" fill="#263238"/>
<path d="M69.5011 124.54C69.5011 124.54 63.3932 114.362 61.698 112.304C60.3369 110.713 58.6264 109.458 56.7 108.638C55.9392 108.309 55.1422 108.072 54.3255 107.931L45.5403 105.987C45.5403 105.987 45.5403 111.981 39.2508 112.351C32.9613 112.721 27.6875 103.969 27.6875 103.969C27.6875 103.969 17.5368 105.543 15.1151 106.794C12.6935 108.046 8.8727 109.626 6.77394 120.113L5.30078 130.392L22.7904 132.006L24.4654 157.999L33.1362 164.053C33.1362 164.053 57.1844 170.302 58.6979 170.712C60.2114 171.123 60.7159 132.02 60.7159 132.02C60.7159 132.02 66.9449 128.044 69.5011 124.54Z" fill="#263238"/>
<path d="M57.9849 120.167C58.1266 120.405 58.2417 120.658 58.3279 120.921C58.523 121.412 58.7786 122.131 59.0612 123.033C60.5316 127.756 61.1378 132.705 60.8505 137.643C60.7967 138.585 60.7227 139.345 60.6419 139.87C60.6241 140.143 60.5768 140.414 60.5007 140.677C60.4685 140.405 60.4685 140.129 60.5007 139.856C60.5343 139.332 60.5747 138.572 60.5949 137.63C60.6604 135.181 60.548 132.73 60.2585 130.298C59.9552 127.869 59.474 125.465 58.819 123.107C58.5701 122.199 58.3481 121.466 58.1867 120.968C58.0914 120.709 58.0238 120.44 57.9849 120.167Z" fill="#455A64"/>
<path d="M57.2245 162.741L24.2633 155.57L22.7431 132.027L8.09888 130.681C8.09888 130.681 8.64375 146.772 9.20207 151.534C10.016 158.416 14.079 167.806 16.4603 169.696C18.8415 171.587 58.6707 170.726 58.6707 170.726L57.2245 162.741Z" fill="#FFBE9D"/>
<path d="M75.9317 167.006C75.8222 167.233 75.647 167.423 75.4288 167.55C75.2106 167.677 74.9594 167.736 74.7075 167.719C74.6 167.711 74.4939 167.691 74.3913 167.658C73.6581 167.423 73.7186 165.936 73.7186 165.936L70.2342 165.371C70.2342 165.371 65.6936 168.297 64.0792 170.235C62.4647 172.172 58.3479 170.605 58.3479 170.605L56.9219 163.165L63.3459 157.36C63.3459 157.36 62.9558 157.703 63.3997 156.62C63.8437 155.537 65.855 155.947 65.855 155.947C66.1712 155.409 67.4896 155.22 67.4896 155.22L73.1267 155.893C73.6994 155.96 74.2499 156.154 74.7377 156.461C75.2255 156.768 75.6381 157.181 75.9452 157.669L78.3332 161.443C78.3332 161.443 79.5911 164.133 79.3893 164.806C79.2994 165.076 79.111 165.302 78.8616 165.44C78.6122 165.577 78.3202 165.615 78.0439 165.546C78.0439 165.546 77.7681 167.335 77.2973 167.396C76.8163 167.371 76.3442 167.257 75.9048 167.06L75.9317 167.006Z" fill="#FFBE9D"/>
<path d="M63.9514 161.664C63.9514 161.725 64.7048 161.664 65.9089 161.705C67.4725 161.78 69.0184 162.07 70.5033 162.566C71.3207 162.84 72.1147 163.18 72.8778 163.582C73.5505 163.965 74.2636 164.254 74.4855 164.772C74.5357 164.88 74.5564 164.999 74.5458 165.117C74.5352 165.235 74.4935 165.348 74.425 165.445C74.323 165.604 74.1752 165.728 74.0012 165.801C73.8414 165.857 73.6725 165.882 73.5034 165.875C73.5034 165.875 73.6783 166.03 74.0416 165.936C74.2609 165.876 74.4531 165.743 74.5864 165.559C74.6833 165.437 74.7467 165.291 74.7703 165.136C74.7938 164.982 74.7769 164.824 74.721 164.678C74.5776 164.354 74.3441 164.079 74.0483 163.884C73.7389 163.689 73.416 163.481 73.0595 163.286C72.2869 162.862 71.4789 162.506 70.6446 162.223C69.1276 161.71 67.5371 161.449 65.9358 161.449C65.2671 161.416 64.5974 161.489 63.9514 161.664Z" fill="#EB996E"/>
<path d="M63.5479 165.257C63.5479 165.364 65.8484 165.257 68.6669 165.432C71.4854 165.606 73.7456 165.943 73.7658 165.835C73.2955 165.65 72.8021 165.53 72.2994 165.479C71.1039 165.276 69.8979 165.141 68.6871 165.075C67.475 165.008 66.2601 165.008 65.0479 165.075C64.5419 165.066 64.0371 165.127 63.5479 165.257Z" fill="#EB996E"/>
<path d="M75.8981 166.864C75.9477 166.669 75.9725 166.468 75.9721 166.266C76.0064 165.715 76.0064 165.162 75.9721 164.611C75.9529 164.226 75.9012 163.844 75.8173 163.467C75.7159 163.027 75.5285 162.611 75.2658 162.243C74.7104 161.392 73.9927 160.658 73.1535 160.084C72.3251 159.51 71.4191 159.057 70.4628 158.739C69.6696 158.515 68.8517 158.39 68.0277 158.369C67.3551 158.369 66.7766 158.369 66.3864 158.369C66.1826 158.355 65.9781 158.375 65.781 158.429C66.5212 158.535 67.2668 158.598 68.0143 158.617C68.8129 158.671 69.6028 158.815 70.3687 159.048C71.2863 159.383 72.1568 159.835 72.9585 160.393C73.7519 160.95 74.436 161.647 74.9765 162.452C75.4189 163.106 75.6726 163.869 75.7097 164.658C75.8577 165.997 75.8241 166.864 75.8981 166.864Z" fill="#EB996E"/>
<path d="M67.7656 156.64C67.7656 156.694 68.6065 156.72 69.9518 156.875C71.2972 157.03 73.3152 157.164 74.5059 158.954C75.6515 160.289 76.6068 161.776 77.3446 163.373C77.5888 164.059 77.7689 164.766 77.8827 165.485C77.9224 165.288 77.9224 165.084 77.8827 164.887C77.8483 164.34 77.7373 163.801 77.5531 163.286C76.8712 161.626 75.9238 160.088 74.748 158.732C74.434 158.316 74.0677 157.943 73.6583 157.622C73.2545 157.33 72.7974 157.12 72.3129 157.003C71.5322 156.793 70.732 156.665 69.9249 156.62C69.2069 156.541 68.4821 156.548 67.7656 156.64Z" fill="#EB996E"/>
<path d="M65.2969 169.037C65.4161 168.962 65.5287 168.876 65.6332 168.782L66.575 168.021C67.76 167.1 68.9975 166.249 70.2814 165.472H70.2007L73.6852 166.064L73.5641 165.916C73.553 166.202 73.5756 166.489 73.6314 166.77C73.6772 167.084 73.8153 167.376 74.0282 167.611C74.156 167.727 74.3152 167.802 74.4857 167.826C74.648 167.856 74.8144 167.856 74.9767 167.826C75.3155 167.777 75.6242 167.604 75.8445 167.342C75.9034 167.281 75.9553 167.213 75.9992 167.14L76.0328 167.08L75.831 167.154L75.9387 167.194C76.0866 167.255 76.2346 167.308 76.3893 167.355C76.5441 167.403 76.6988 167.443 76.8669 167.477C76.9542 167.484 77.042 167.484 77.1293 167.477C77.2403 167.483 77.3512 167.463 77.4522 167.416C77.6052 167.296 77.7216 167.135 77.7885 166.952C77.8597 166.798 77.9181 166.638 77.9634 166.474C78.058 166.15 78.1322 165.819 78.1854 165.485L77.9836 165.627C78.2199 165.676 78.4652 165.661 78.6936 165.583C78.922 165.505 79.1252 165.366 79.2818 165.183C79.4373 164.993 79.5228 164.755 79.524 164.51C79.5052 164.282 79.4647 164.057 79.4029 163.837C79.1388 162.98 78.8174 162.142 78.441 161.328L77.1696 159.31L76.3624 158.039C76.1172 157.594 75.8215 157.179 75.4812 156.801C75.1208 156.438 74.6906 156.152 74.2166 155.96C73.7547 155.789 73.2692 155.689 72.7771 155.664L67.4696 155.066H67.4293C67.11 155.117 66.7967 155.2 66.4943 155.315C66.1714 155.411 65.8884 155.609 65.687 155.88L65.8821 155.819C65.5953 155.687 65.2803 155.626 64.9648 155.644C64.6493 155.662 64.3429 155.756 64.0726 155.92C63.6019 156.262 63.2814 156.773 63.178 157.346L63.2183 157.272L58.7921 161.254L57.6015 162.351C57.4547 162.47 57.3216 162.606 57.2046 162.754C57.3624 162.651 57.511 162.534 57.6486 162.405L58.893 161.362L63.3932 157.474H63.4269V157.427C63.5231 156.928 63.8042 156.483 64.2139 156.182C64.4452 156.051 64.7044 155.977 64.97 155.967C65.2356 155.956 65.4999 156.009 65.7409 156.122L65.8619 156.169L65.9359 156.061C66.1114 155.853 66.346 155.703 66.6086 155.631C66.8899 155.528 67.1805 155.454 67.4764 155.409H67.4293L72.7367 156.034C73.1967 156.061 73.6501 156.157 74.0821 156.317C74.5115 156.489 74.9008 156.748 75.2256 157.077C75.5467 157.437 75.8265 157.832 76.0597 158.254L76.8669 159.532C77.3042 160.205 77.7347 160.878 78.1383 161.55C78.5126 162.343 78.8295 163.161 79.0868 163.999C79.1463 164.194 79.1846 164.394 79.2011 164.598C79.2048 164.772 79.145 164.942 79.033 165.075C78.9186 165.209 78.7698 165.309 78.6027 165.365C78.4355 165.421 78.2564 165.43 78.0845 165.391H77.9029V165.559C77.8516 165.879 77.7819 166.196 77.6943 166.508C77.6373 166.785 77.5125 167.044 77.3311 167.261C77.2843 167.269 77.2366 167.269 77.1898 167.261H76.9746C76.8333 167.261 76.6853 167.194 76.5373 167.154L76.1068 167.006L76.0059 166.965L75.7974 167.039V167.08C75.7648 167.137 75.7265 167.191 75.683 167.241C75.5121 167.446 75.2733 167.582 75.0104 167.625C74.884 167.651 74.7533 167.651 74.6269 167.625C74.5082 167.613 74.3957 167.566 74.304 167.49C74.0088 167.064 73.8753 166.546 73.9273 166.03V165.903H73.8063L70.3083 165.358H70.268H70.2343C68.9546 166.158 67.7299 167.044 66.5683 168.008C66.1646 168.351 65.8619 168.627 65.6601 168.815C65.5314 168.876 65.4096 168.95 65.2969 169.037Z" fill="#EB996E"/>
<path d="M118.654 145.365L75.2862 145.722C73.8736 145.722 72.535 146.395 72.3197 147.787L67.611 179.403H45.2377C44.9087 179.427 44.6008 179.574 44.3761 179.816C44.1513 180.057 44.0264 180.375 44.0264 180.705C44.0264 181.034 44.1513 181.352 44.3761 181.594C44.6008 181.835 44.9087 181.983 45.2377 182.006H116.595L121.472 148.641C121.533 148.236 121.506 147.822 121.392 147.428C121.279 147.033 121.081 146.668 120.814 146.357C120.546 146.046 120.215 145.797 119.842 145.626C119.469 145.455 119.064 145.366 118.654 145.365Z" fill="#E0E0E0"/>
<path d="M118.653 145.366C118.88 145.356 119.106 145.379 119.326 145.433C119.903 145.57 120.424 145.882 120.816 146.326C121.209 146.771 121.454 147.326 121.519 147.915C121.535 148.514 121.481 149.112 121.358 149.698L120.732 154.104C119.777 160.73 118.404 170.282 116.696 182.027V182.141H116.582L47.3563 182.181H45.493C45.1544 182.214 44.8136 182.148 44.5109 181.993C44.2794 181.866 44.0863 181.679 43.9518 181.452C43.8173 181.225 43.7463 180.966 43.7463 180.702C43.7463 180.437 43.8173 180.178 43.9518 179.951C44.0863 179.724 44.2794 179.537 44.5109 179.41C44.8146 179.258 45.1551 179.195 45.493 179.228H67.5837L67.4155 179.376C69.1174 168.055 70.7117 157.494 72.1243 148.016C72.1709 147.383 72.4601 146.793 72.9315 146.368C73.4021 145.971 73.9762 145.717 74.5863 145.635C75.1674 145.578 75.7516 145.558 76.3352 145.574H78.0371L84.5688 145.534L96.1725 145.46L112.693 145.373H118.64C118.64 145.373 118.512 145.373 118.256 145.373H117.113L112.693 145.433L96.1725 145.615L84.5688 145.736L78.0371 145.796H76.3352C75.7673 145.786 75.1992 145.806 74.6334 145.857C74.0746 145.931 73.549 146.164 73.1198 146.53C72.9106 146.718 72.7405 146.945 72.6193 147.199C72.4981 147.453 72.4281 147.728 72.4135 148.009C71.0009 157.487 69.4268 168.048 67.7048 179.37V179.518H45.5064C45.23 179.483 44.9494 179.529 44.6992 179.652C44.4716 179.783 44.2959 179.988 44.2016 180.233C44.1072 180.478 44.1001 180.748 44.1813 180.997C44.2774 181.25 44.4581 181.462 44.6925 181.596C44.9453 181.719 45.2273 181.767 45.5064 181.737H47.3698L116.595 181.778L116.46 181.892C118.203 170.154 119.615 160.609 120.597 153.983C120.846 152.335 121.068 150.862 121.27 149.59C121.395 149.013 121.456 148.425 121.452 147.835C121.395 147.259 121.163 146.714 120.786 146.275C120.41 145.836 119.907 145.523 119.346 145.379C119.116 145.363 118.884 145.358 118.653 145.366Z" fill="#263238"/>
<path d="M95.1302 166.003C96.6311 166.003 97.8478 164.787 97.8478 163.286C97.8478 161.785 96.6311 160.568 95.1302 160.568C93.6293 160.568 92.4126 161.785 92.4126 163.286C92.4126 164.787 93.6293 166.003 95.1302 166.003Z" fill="white"/>
<path d="M69.3329 181.71C69.3935 181.71 70.7725 173.672 72.4138 163.736C74.0551 153.801 75.34 145.729 75.2794 145.722C75.2189 145.715 73.8332 153.761 72.1918 163.696C70.5505 173.632 69.2791 181.704 69.3329 181.71Z" fill="#263238"/>
</svg>
