<svg width="407" height="374" viewBox="0 0 407 374" fill="none" xmlns="http://www.w3.org/2000/svg">
<path d="M292.913 81.1277C323.601 111.631 355.032 133.206 377.8 166.437C400.569 199.668 414.676 244.307 402.549 280.018C390.174 315.481 351.567 342.016 313.702 357.887C275.836 373.511 238.714 378.223 207.53 370.039C176.347 361.855 151.104 340.776 112.744 325.152C74.3834 309.777 23.154 299.857 6.57246 272.826C-10.009 245.795 8.05738 201.9 24.6389 159.245C40.9729 116.839 55.822 75.6719 85.2728 44.9208C114.476 13.9217 158.033 -7.15767 194.909 2.26605C231.784 11.4418 261.977 50.8726 292.913 81.1277Z" fill="#C5C6D0" fill-opacity="0.4"/>
<path d="M100.328 291.403C155.829 319.779 245.816 319.779 301.311 291.403C356.806 263.027 356.812 216.993 301.311 188.648C245.809 160.304 155.829 160.272 100.328 188.648C44.8268 217.024 44.8331 263.034 100.328 291.403Z" fill="#F5F5F5"/>
<path d="M281.839 246.076C284.884 247.833 290.862 247.226 295.189 244.725L320.151 230.225C324.484 227.723 325.522 224.272 322.477 222.508C319.432 220.745 313.46 221.37 309.127 223.872L284.178 238.385C279.844 240.867 278.8 244.319 281.839 246.076Z" fill="#EBEBEB"/>
<path d="M131.505 259.451L106.106 244.787L131.505 230.124V259.451Z" fill="#EBEBEB"/>
<path d="M203.296 268.224L162.357 244.575L203.302 220.97L203.296 268.224Z" fill="#EBEBEB"/>
<path d="M97.1453 225.166C97.2203 219.225 93.0683 206.863 86.9967 199.078C80.9251 191.293 71.283 185.534 64.4048 187.804C57.9642 189.924 58.5582 198.34 66.2807 204.012C74.0031 209.683 85.6023 216.824 88.9101 226.523L95.9447 238.403L97.1453 225.166Z" fill="#407BFF"/>
<path opacity="0.1" d="M97.1453 225.166C97.2203 219.225 93.0683 206.863 86.9967 199.078C80.9251 191.293 71.283 185.534 64.4048 187.804C57.9642 189.924 58.5582 198.34 66.2807 204.012C74.0031 209.683 85.6023 216.824 88.9101 226.523L95.9447 238.403L97.1453 225.166Z" fill="black"/>
<path d="M97.4893 233.301C97.3944 233.292 97.3049 233.253 97.2347 233.188C97.1646 233.124 97.1178 233.038 97.1016 232.944C93.3498 212.616 77.1546 195.933 67.3812 192.175C67.3222 192.159 67.2672 192.131 67.2197 192.092C67.1723 192.053 67.1335 192.005 67.1058 191.95C67.0782 191.896 67.0623 191.836 67.0592 191.775C67.056 191.714 67.0658 191.653 67.0878 191.596C67.1097 191.538 67.1435 191.486 67.1867 191.443C67.23 191.4 67.2819 191.366 67.339 191.344C67.3961 191.322 67.4572 191.312 67.5183 191.315C67.5795 191.319 67.6393 191.334 67.6939 191.362C77.6549 195.195 94.1627 212.153 97.952 232.788C97.9628 232.844 97.9626 232.901 97.9511 232.957C97.9397 233.013 97.9174 233.066 97.8854 233.113C97.8534 233.16 97.8125 233.2 97.7649 233.231C97.7173 233.262 97.664 233.284 97.6081 233.294L97.4893 233.301Z" fill="white"/>
<path d="M94.3065 246.244C93.3936 242.893 89.3792 237.334 82.8386 232.7C75.5977 227.579 66.3933 225.153 64.3111 221.207C61.8099 216.468 65.8305 212.065 73.3153 213.078C80.8001 214.091 93.8563 224.496 95.7822 239.916L94.3065 246.244Z" fill="#407BFF"/>
<path d="M95.8008 242.755C95.7173 242.748 95.6376 242.717 95.5711 242.666C95.5046 242.615 95.4541 242.546 95.4256 242.468C89.4165 225.015 76.2353 218.756 70.1074 217.887C69.9938 217.871 69.8911 217.811 69.8219 217.72C69.7527 217.628 69.7227 217.513 69.7385 217.399C69.7542 217.286 69.8145 217.183 69.9059 217.114C69.9974 217.045 70.1126 217.015 70.2262 217.03C77.0044 217.993 90.1169 224.371 96.251 242.18C96.2873 242.289 96.2795 242.409 96.2293 242.513C96.1791 242.616 96.0905 242.697 95.9822 242.736C95.9236 242.755 95.8619 242.761 95.8008 242.755Z" fill="white"/>
<path d="M318.857 208.239C318.857 208.239 319.688 195.733 327.067 186.416C334.445 177.099 333.995 173.285 328.905 171.409C323.815 169.533 312.022 180.757 314.623 195.733C317.225 210.709 318.857 208.239 318.857 208.239Z" fill="#407BFF"/>
<path opacity="0.1" d="M318.857 208.239C318.857 208.239 319.688 195.733 327.067 186.416C334.445 177.099 333.995 173.285 328.905 171.409C323.815 169.533 312.022 180.757 314.623 195.733C317.225 210.709 318.857 208.239 318.857 208.239Z" fill="black"/>
<path d="M316.599 201.098C316.525 201.098 316.454 201.071 316.4 201.021C316.345 200.971 316.312 200.903 316.305 200.829C315.449 187.035 325.185 175.717 328.811 173.153C328.842 173.131 328.877 173.115 328.913 173.106C328.95 173.097 328.989 173.096 329.026 173.103C329.063 173.109 329.099 173.123 329.131 173.143C329.163 173.164 329.19 173.191 329.211 173.222C329.256 173.286 329.273 173.364 329.26 173.44C329.247 173.516 329.205 173.584 329.143 173.629C325.566 176.13 316.011 187.241 316.862 200.792C316.865 200.868 316.839 200.942 316.789 200.999C316.739 201.056 316.669 201.092 316.593 201.098H316.599Z" fill="white"/>
<path d="M316.849 218.594C320.172 219.68 323.576 220.499 327.029 221.045C332.744 221.945 335.271 219.213 335.271 219.213C335.271 219.213 333.02 213.854 329.774 212.335C333.286 213.123 336.639 214.5 339.691 216.405C339.691 216.405 343.181 216.462 344.569 211.134C344.569 211.134 342.505 207.926 335.565 206.194C335.565 206.194 339.785 205.131 345.869 206.682C346.326 206.863 348.271 199.979 348.858 196.802C349.446 193.626 348.17 193.676 345.694 192.994C343.218 192.313 335.008 190.493 333.457 191.85C331.907 193.207 331.119 197.871 331.119 197.871C330.504 195.962 330.424 193.921 330.887 191.969C330.887 191.969 328.661 191.1 325.197 192.106C322.371 192.925 322.233 194.851 322.358 197.027C322.526 198.918 322.946 200.777 323.609 202.555C323.609 202.555 321.402 199.729 321.333 193.594C321.333 193.594 315.543 196.471 314.555 202.224C313.979 205.344 313.216 214.492 316.849 218.594Z" fill="#407BFF"/>
<path d="M317.937 217.481C317.998 217.481 318.058 217.464 318.11 217.432C318.162 217.4 318.204 217.354 318.231 217.3C322.84 207.714 339.992 196.577 346.132 195.383C346.174 195.375 346.213 195.36 346.249 195.337C346.284 195.314 346.315 195.284 346.339 195.249C346.363 195.214 346.379 195.175 346.388 195.133C346.396 195.092 346.396 195.049 346.388 195.008C346.37 194.924 346.32 194.85 346.249 194.803C346.178 194.755 346.091 194.736 346.007 194.751C339.754 195.971 322.333 207.257 317.65 217.018C317.613 217.095 317.608 217.184 317.636 217.265C317.664 217.345 317.723 217.412 317.8 217.45C317.843 217.469 317.89 217.479 317.937 217.481Z" fill="white"/>
<path d="M94.9068 250.671C94.2002 250.671 93.775 250.09 93.775 249.108V143.927L222.605 69.5607V174.317C222.56 175.191 222.311 176.043 221.876 176.803C221.442 177.564 220.835 178.211 220.104 178.694L95.9323 250.353C95.6242 250.547 95.2706 250.657 94.9068 250.671Z" fill="#FAFAFA"/>
<path d="M222.217 70.1922V174.317C222.165 175.128 221.926 175.916 221.519 176.62C221.113 177.324 220.549 177.924 219.872 178.375L95.751 250.034C95.4983 250.197 95.2073 250.292 94.9068 250.309C94.2128 250.309 94.1377 249.465 94.1377 249.108V144.14L222.217 70.1922ZM222.949 68.9416L93.4061 143.715V249.108C93.4061 250.359 94.0314 251.04 94.9068 251.04C95.3344 251.025 95.7505 250.898 96.1137 250.671L220.241 179.006C221.029 178.492 221.685 177.8 222.155 176.985C222.626 176.17 222.897 175.256 222.949 174.317V68.9229V68.9416Z" fill="#E0E0E0"/>
<path d="M93.4125 143.715V161.317L222.949 86.5249V68.9229L93.4125 143.715Z" fill="#407BFF"/>
<path d="M103.567 144.652V147.154C103.567 147.666 103.936 147.879 104.38 147.623L144.205 124.63V120.253L104.38 143.246C104.145 143.401 103.949 143.609 103.808 143.853C103.667 144.097 103.584 144.371 103.567 144.652Z" fill="#FAFAFA"/>
<path d="M148.476 117.79C148.926 117.527 149.289 117.74 149.289 118.259V120.76C149.273 121.042 149.191 121.316 149.049 121.56C148.908 121.804 148.712 122.012 148.476 122.167L144.205 124.63V120.253L148.476 117.79Z" fill="#455A64"/>
<path d="M93.4061 138.043C93.4575 137.104 93.7293 136.19 94.1997 135.375C94.6701 134.56 95.3258 133.868 96.1137 133.353L220.241 61.6882C221.736 60.8253 222.949 61.5256 222.949 63.2514V68.9228L93.4061 143.715V138.043Z" fill="#455A64"/>
<path d="M208.548 71.3866C208.182 71.6285 207.878 71.9533 207.661 72.3346C207.444 72.7159 207.319 73.143 207.298 73.5814C207.298 74.3942 207.867 74.7194 208.548 74.3192C208.914 74.0759 209.218 73.7499 209.436 73.3676C209.653 72.9853 209.777 72.5573 209.799 72.1182C209.824 71.299 209.255 70.9801 208.548 71.3866Z" fill="#407BFF"/>
<path d="M212.6 69.0604C212.234 69.3023 211.93 69.6271 211.713 70.0084C211.496 70.3897 211.371 70.8168 211.35 71.2551C211.35 72.068 211.919 72.3932 212.6 71.993C212.966 71.749 213.269 71.4228 213.486 71.0407C213.703 70.6585 213.828 70.2309 213.851 69.792C213.851 68.9791 213.276 68.6539 212.6 69.0604Z" fill="#407BFF"/>
<path d="M216.596 66.7343C216.23 66.9763 215.926 67.3011 215.708 67.6824C215.491 68.0637 215.367 68.4908 215.345 68.9291C215.345 69.742 215.914 70.0671 216.596 69.6669C216.961 69.4229 217.265 69.0968 217.482 68.7146C217.699 68.3325 217.824 67.9049 217.846 67.4659C217.865 66.653 217.296 66.3279 216.596 66.7343Z" fill="#407BFF"/>
<g opacity="0.1">
<path d="M182.304 97.9804C181.497 98.5087 180.825 99.2201 180.344 100.057C179.863 100.893 179.585 101.831 179.534 102.795C179.534 104.565 180.785 105.296 182.304 104.396C183.113 103.87 183.786 103.16 184.269 102.324C184.751 101.489 185.029 100.551 185.081 99.5874C185.087 97.8178 183.836 97.0987 182.304 97.9804Z" fill="black"/>
<path d="M169.611 105.315C168.802 105.841 168.129 106.551 167.647 107.387C167.165 108.222 166.886 109.16 166.835 110.124C166.835 111.893 168.085 112.625 169.611 111.731C170.419 111.202 171.09 110.491 171.572 109.654C172.053 108.818 172.33 107.88 172.381 106.916C172.381 105.146 171.143 104.44 169.611 105.315Z" fill="black"/>
<path d="M195.004 90.6831C194.197 91.2102 193.525 91.9203 193.044 92.7559C192.562 93.5914 192.285 94.5287 192.234 95.4917C192.234 97.2613 193.485 97.9928 195.004 97.0924C195.813 96.5665 196.487 95.8567 196.969 95.021C197.451 94.1854 197.73 93.2475 197.781 92.2839C197.781 90.483 196.543 89.7639 195.004 90.6831Z" fill="black"/>
<path d="M207.71 83.3047C206.902 83.831 206.229 84.5409 205.746 85.3765C205.264 86.212 204.985 87.1497 204.934 88.1132C204.934 89.8828 206.185 90.6144 207.71 89.714C208.519 89.1876 209.192 88.4778 209.674 87.6422C210.157 86.8066 210.435 85.8689 210.487 84.9055C210.487 83.1359 209.242 82.4168 207.71 83.3047Z" fill="black"/>
</g>
<path d="M106.3 162.686L136.445 145.278C137.94 144.415 139.153 145.115 139.153 146.841V175.786C139.102 176.725 138.83 177.64 138.359 178.454C137.889 179.269 137.233 179.962 136.445 180.476L106.3 197.878C104.805 198.741 103.592 198.04 103.592 196.315V167.376C103.644 166.436 103.915 165.522 104.386 164.708C104.856 163.893 105.512 163.2 106.3 162.686Z" fill="#E0E0E0"/>
<path d="M149.445 137.755L212.6 101.313C214.095 100.444 215.308 101.144 215.308 102.876V131.815C215.256 132.754 214.985 133.669 214.514 134.483C214.044 135.298 213.388 135.991 212.6 136.505L149.445 172.947C147.951 173.81 146.738 173.11 146.738 171.384V142.445C146.789 141.506 147.061 140.592 147.531 139.777C148.002 138.962 148.657 138.27 149.445 137.755Z" fill="#E0E0E0"/>
<path d="M106.3 206.676L154.223 179.006C155.723 178.143 156.936 178.756 156.936 180.376C156.869 181.285 156.59 182.166 156.119 182.947C155.649 183.728 155.001 184.387 154.229 184.871L106.3 212.541C104.805 213.404 103.592 212.791 103.592 211.171C103.659 210.262 103.939 209.381 104.409 208.6C104.88 207.819 105.527 207.16 106.3 206.676Z" fill="#E0E0E0"/>
<path d="M106.3 216.943L154.223 189.274C155.723 188.411 156.936 189.024 156.936 190.643C156.869 191.552 156.59 192.433 156.119 193.214C155.649 193.995 155.001 194.655 154.229 195.139L106.3 222.808C104.805 223.671 103.592 223.058 103.592 221.439C103.659 220.53 103.939 219.649 104.409 218.868C104.88 218.087 105.527 217.427 106.3 216.943Z" fill="#E0E0E0"/>
<path d="M106.3 227.204L154.223 199.535C155.723 198.672 156.936 199.284 156.936 200.904C156.869 201.813 156.59 202.694 156.119 203.475C155.649 204.256 155.001 204.916 154.229 205.4L106.3 233.069C104.805 233.932 103.592 233.319 103.592 231.7C103.659 230.791 103.939 229.91 104.409 229.129C104.88 228.348 105.527 227.688 106.3 227.204Z" fill="#E0E0E0"/>
<path d="M128.967 192.4C128.999 191.837 129.162 191.289 129.445 190.8C129.727 190.311 130.12 189.895 130.592 189.586L213.701 141.607C214.204 141.351 214.761 141.218 215.326 141.218C215.891 141.218 216.448 141.351 216.952 141.607L218.784 142.664C219.256 142.973 219.649 143.389 219.93 143.877C220.212 144.366 220.374 144.915 220.404 145.478V209.183C220.373 209.746 220.21 210.294 219.929 210.783C219.648 211.272 219.256 211.687 218.784 211.997L135.689 259.976C135.185 260.232 134.628 260.365 134.063 260.365C133.498 260.365 132.941 260.232 132.437 259.976L130.605 258.919C130.132 258.61 129.739 258.195 129.457 257.706C129.174 257.217 129.011 256.669 128.979 256.105L128.967 192.4Z" fill="#407BFF"/>
<path opacity="0.4" d="M129.436 190.799L134.05 193.463L219.922 143.877C219.648 143.382 219.254 142.963 218.778 142.658L216.977 141.607C216.476 141.352 215.921 141.218 215.358 141.218C214.795 141.218 214.24 141.352 213.738 141.607L130.592 189.586C130.111 189.887 129.713 190.304 129.436 190.799Z" fill="white"/>
<path opacity="0.1" d="M128.967 192.4V256.105C128.998 256.669 129.162 257.217 129.444 257.706C129.727 258.195 130.12 258.61 130.592 258.919L132.425 259.976C132.565 260.057 132.714 260.124 132.869 260.176C133.086 260.249 133.31 260.302 133.538 260.332C133.965 260.385 134.398 260.368 134.819 260.282C134.927 260.263 135.034 260.235 135.138 260.201L135.332 260.126C135.209 260.179 135.076 260.206 134.941 260.206C134.807 260.206 134.674 260.179 134.551 260.126C134.378 260.011 134.24 259.85 134.153 259.661C134.065 259.472 134.032 259.263 134.057 259.057V195.339C134.04 195.049 134.112 194.761 134.263 194.514C134.413 194.266 134.636 194.069 134.901 193.951L134.057 193.463L129.436 190.799C129.146 191.284 128.985 191.835 128.967 192.4Z" fill="black"/>
<path opacity="0.2" d="M134.057 193.463L172.543 207.845C173.874 208.341 175.335 208.369 176.684 207.925C178.033 207.48 179.19 206.59 179.966 205.4L186.144 195.933L220.235 143.702L187.376 196.29L220.404 209.214C220.376 209.789 220.202 210.346 219.897 210.834L187.288 196.452L180.085 207.926C179.287 209.201 178.056 210.146 176.618 210.587C175.18 211.028 173.631 210.936 172.256 210.327L167.141 208.07L134.55 260.139C134.377 260.023 134.24 259.862 134.152 259.674C134.065 259.485 134.032 259.276 134.057 259.069V258.013L166.997 208.033L134.057 193.463Z" fill="black"/>
<path d="M202.627 120.329V266.585C202.627 268.311 203.84 269.011 205.334 268.149L271.04 230.212C271.828 229.698 272.484 229.005 272.954 228.19C273.425 227.376 273.696 226.462 273.748 225.522V79.2653C273.748 77.5395 272.535 76.8392 271.04 77.7021L205.334 115.639C204.546 116.152 203.889 116.845 203.419 117.66C202.948 118.474 202.677 119.389 202.627 120.329Z" fill="#FAFAFA" stroke="#E0E0E0" stroke-width="1.16981" stroke-miterlimit="10"/>
<path d="M206.435 123.048C206.456 122.817 206.531 122.593 206.653 122.396C206.776 122.198 206.943 122.032 207.141 121.91L214.645 117.59C215.033 117.365 215.345 117.515 215.345 117.921C215.325 118.152 215.251 118.375 215.13 118.573C215.008 118.771 214.842 118.937 214.645 119.059L207.141 123.38C206.754 123.605 206.435 123.455 206.435 123.048Z" fill="#455A64"/>
<path d="M206.435 125.962C206.455 125.731 206.53 125.507 206.653 125.309C206.775 125.112 206.943 124.946 207.141 124.824L214.645 120.504C215.033 120.278 215.345 120.428 215.345 120.829C215.326 121.061 215.253 121.285 215.131 121.484C215.01 121.683 214.843 121.85 214.645 121.973L207.141 126.288C206.754 126.513 206.435 126.369 206.435 125.962Z" fill="#455A64"/>
<path d="M206.435 128.876C206.455 128.645 206.53 128.421 206.653 128.223C206.775 128.026 206.943 127.859 207.141 127.738L214.645 123.417C215.033 123.192 215.345 123.336 215.345 123.743C215.326 123.974 215.253 124.198 215.131 124.395C215.009 124.593 214.843 124.759 214.645 124.881L207.141 129.201C206.754 129.452 206.435 129.283 206.435 128.876Z" fill="#455A64"/>
<path d="M268.67 91.371V90.2017C268.671 90.1875 268.668 90.1733 268.661 90.1608C268.655 90.1482 268.645 90.1376 268.633 90.13C268.621 90.1224 268.607 90.1181 268.593 90.1175C268.578 90.1169 268.564 90.1201 268.552 90.1266L267.651 90.5331C267.637 90.5401 267.622 90.5438 267.606 90.5441C267.59 90.5443 267.574 90.541 267.56 90.5344C267.545 90.5278 267.533 90.5181 267.523 90.506C267.512 90.4939 267.505 90.4796 267.501 90.4643C267.454 90.3084 267.386 90.1592 267.301 90.0203C267.284 89.9864 267.275 89.9489 267.275 89.9109C267.275 89.8729 267.284 89.8354 267.301 89.8015L267.926 88.5884C267.942 88.5577 267.945 88.5221 267.934 88.4894C267.923 88.4566 267.901 88.4293 267.87 88.4133L267.245 88.0381C267.215 88.0231 267.181 88.0193 267.149 88.0273C267.117 88.0353 267.089 88.0547 267.07 88.0819L266.319 89.2074C266.297 89.2376 266.268 89.2619 266.234 89.2783C266.2 89.2946 266.163 89.3025 266.126 89.3012C265.962 89.2999 265.798 89.3167 265.638 89.3513C265.623 89.356 265.606 89.3572 265.591 89.3549C265.575 89.3525 265.56 89.3466 265.546 89.3376C265.533 89.3286 265.522 89.3167 265.514 89.3028C265.506 89.2889 265.501 89.2734 265.5 89.2575L265.4 88.2758C265.4 88.207 265.338 88.1757 265.281 88.2132L264.268 88.7947C264.236 88.8158 264.209 88.8434 264.189 88.8757C264.168 88.9081 264.155 88.9444 264.15 88.9823L264.05 90.1079C264.036 90.1877 263.999 90.2618 263.943 90.3205C263.74 90.5146 263.552 90.7236 263.38 90.9458C263.356 90.9738 263.325 90.9941 263.289 91.0042C263.253 91.0142 263.216 91.0134 263.18 91.002L262.555 90.7769C262.522 90.7663 262.485 90.7673 262.452 90.7798C262.42 90.7923 262.392 90.8155 262.374 90.8457L261.63 92.1338C261.615 92.1644 261.609 92.199 261.615 92.2327C261.621 92.2663 261.637 92.2974 261.661 92.3214L262.186 92.7716C262.212 92.7973 262.23 92.8295 262.239 92.8647C262.248 92.9 262.247 92.937 262.236 92.9717C262.14 93.2289 262.06 93.4921 261.999 93.7596C261.978 93.8354 261.934 93.903 261.874 93.9534L260.948 94.5787C260.917 94.6026 260.892 94.6328 260.873 94.6673C260.855 94.7018 260.844 94.7398 260.842 94.7788V95.9419C260.839 95.9568 260.84 95.9724 260.846 95.9864C260.852 96.0005 260.862 96.0124 260.875 96.0206C260.888 96.0287 260.903 96.0327 260.918 96.0321C260.934 96.0314 260.948 96.0261 260.961 96.0169L261.861 95.6105C261.876 95.6046 261.892 95.602 261.907 95.6027C261.923 95.6033 261.939 95.6074 261.953 95.6144C261.967 95.6215 261.979 95.6315 261.99 95.6438C262 95.656 262.007 95.6702 262.011 95.6855C262.059 95.8414 262.126 95.9906 262.211 96.1295C262.228 96.1634 262.237 96.2009 262.237 96.2389C262.237 96.2769 262.228 96.3144 262.211 96.3483L261.586 97.5551C261.572 97.587 261.569 97.623 261.58 97.6564C261.59 97.6898 261.612 97.7182 261.642 97.7365L262.267 98.1117C262.297 98.1267 262.331 98.1305 262.363 98.1225C262.395 98.1145 262.424 98.0951 262.443 98.0679L263.193 96.9424C263.215 96.9122 263.244 96.8879 263.278 96.8715C263.312 96.8552 263.349 96.8473 263.387 96.8486C263.551 96.8499 263.714 96.8331 263.874 96.7985C263.89 96.7938 263.906 96.7926 263.922 96.7949C263.938 96.7973 263.953 96.8032 263.966 96.8122C263.979 96.8212 263.99 96.8331 263.998 96.847C264.006 96.8609 264.011 96.8764 264.012 96.8923L264.112 97.874C264.112 97.9428 264.168 97.9741 264.231 97.9366L265.244 97.355C265.276 97.3325 265.303 97.3037 265.323 97.2704C265.344 97.237 265.357 97.1999 265.363 97.1612L265.463 96.0357C265.475 95.9572 265.512 95.8849 265.569 95.8293C265.772 95.6352 265.96 95.4262 266.132 95.204C266.156 95.176 266.188 95.1557 266.223 95.1456C266.259 95.1356 266.297 95.1364 266.332 95.1478L266.957 95.3729C266.991 95.3835 267.027 95.3825 267.06 95.37C267.093 95.3575 267.12 95.3343 267.139 95.3041L267.883 94.016C267.898 93.984 267.903 93.9477 267.897 93.9127C267.89 93.8777 267.872 93.8458 267.845 93.8221L267.326 93.3782C267.3 93.3525 267.282 93.3203 267.273 93.2851C267.265 93.2498 267.265 93.2128 267.276 93.1781C267.372 92.9209 267.452 92.6577 267.514 92.3902C267.531 92.3129 267.576 92.2443 267.639 92.1964L268.564 91.5711C268.595 91.5466 268.62 91.5163 268.638 91.4819C268.656 91.4475 268.667 91.4098 268.67 91.371ZM264.712 95.0602C263.768 95.6105 263.005 95.1665 263.005 94.0785C263.035 93.4845 263.205 92.906 263.501 92.3907C263.798 91.8754 264.213 91.438 264.712 91.1146C265.657 90.5706 266.419 91.0145 266.419 92.1026C266.389 92.6955 266.219 93.2727 265.922 93.7869C265.625 94.301 265.211 94.7374 264.712 95.0602Z" fill="#37474F"/>
<path d="M238.187 120.197C245.866 115.764 252.088 119.359 252.088 128.226C252.088 137.093 245.866 147.866 238.187 152.3C230.509 156.733 224.287 153.138 224.287 144.277C224.287 135.417 230.509 124.63 238.187 120.197Z" fill="#455A64"/>
<path d="M238.093 127.175C240.595 125.737 242.602 126.9 242.602 129.777C242.516 131.34 242.063 132.861 241.28 134.217C240.497 135.573 239.405 136.725 238.093 137.58C235.592 139.019 233.579 137.855 233.579 134.979C233.665 133.415 234.118 131.893 234.903 130.537C235.687 129.181 236.78 128.03 238.093 127.175Z" fill="#407BFF"/>
<path d="M246.991 142.508C246.991 137.787 243.671 135.867 239.582 138.231L236.987 139.706C232.897 142.07 229.577 147.835 229.577 152.544V153.838C230.349 154.085 231.155 154.209 231.966 154.207C234.159 154.132 236.295 153.486 238.162 152.331C241.734 150.137 244.754 147.153 246.991 143.608V142.508Z" fill="#407BFF"/>
<path d="M225.644 165.487L250.743 150.999C251.487 150.568 252.094 150.874 252.094 151.687C252.06 152.141 251.92 152.58 251.686 152.97C251.451 153.36 251.128 153.69 250.743 153.932L225.65 168.42C224.9 168.858 224.293 168.545 224.293 167.738C224.325 167.283 224.465 166.843 224.699 166.451C224.934 166.06 225.257 165.73 225.644 165.487Z" fill="#407BFF"/>
<path d="M222.949 175.855L253.426 158.215C254.176 157.784 254.783 158.09 254.783 158.903C254.749 159.357 254.608 159.798 254.372 160.188C254.136 160.578 253.812 160.907 253.426 161.148L222.949 178.787C222.198 179.219 221.592 178.913 221.592 178.1C221.626 177.645 221.766 177.205 222.002 176.815C222.238 176.425 222.562 176.096 222.949 175.855Z" fill="#455A64"/>
<path d="M254.239 172.434L262.774 167.507C263.224 167.251 263.587 167.369 263.587 167.776C263.553 168.025 263.462 168.263 263.321 168.471C263.18 168.68 262.993 168.852 262.774 168.976L254.239 173.904C253.795 174.16 253.426 174.041 253.426 173.641C253.46 173.391 253.551 173.152 253.692 172.943C253.833 172.734 254.02 172.56 254.239 172.434Z" fill="#37474F"/>
<path d="M211.6 194.126L224.137 186.891C224.881 186.46 225.487 186.81 225.487 187.673V196.277C225.462 196.746 225.326 197.203 225.091 197.61C224.857 198.018 224.53 198.364 224.137 198.622L211.6 205.856C210.855 206.288 210.249 205.938 210.249 205.075V196.471C210.275 196.001 210.41 195.545 210.645 195.138C210.88 194.73 211.207 194.384 211.6 194.126Z" fill="#407BFF"/>
<path d="M213.6 195.326L222.136 190.399C222.586 190.143 222.949 190.262 222.949 190.662C222.916 190.912 222.825 191.151 222.684 191.361C222.543 191.57 222.355 191.744 222.136 191.869L213.6 196.796C213.15 197.052 212.788 196.933 212.788 196.533C212.821 196.283 212.911 196.044 213.052 195.834C213.193 195.625 213.381 195.451 213.6 195.326Z" fill="#FAFAFA"/>
<path d="M212.788 199.666V202.167C212.788 202.686 213.15 202.893 213.6 202.636L222.136 197.709C222.372 197.555 222.569 197.347 222.711 197.103C222.852 196.858 222.933 196.584 222.949 196.302V193.801C222.949 193.282 222.586 193.076 222.136 193.332L213.6 198.234C213.361 198.391 213.163 198.603 213.021 198.852C212.88 199.101 212.8 199.38 212.788 199.666Z" fill="#FAFAFA"/>
<path d="M231.922 182.395L244.428 175.161C245.178 174.729 245.785 175.079 245.785 175.942V184.546C245.759 185.016 245.623 185.474 245.387 185.881C245.151 186.289 244.822 186.635 244.428 186.891L231.922 194.126C231.171 194.557 230.571 194.207 230.571 193.344V184.74C230.595 184.271 230.73 183.813 230.965 183.406C231.2 182.998 231.528 182.652 231.922 182.395Z" fill="#407BFF"/>
<path d="M233.923 183.596L242.458 178.669C242.902 178.412 243.265 178.531 243.265 178.931C243.231 179.181 243.141 179.419 243.002 179.628C242.862 179.838 242.676 180.012 242.458 180.138L233.923 185.065C233.472 185.322 233.11 185.203 233.11 184.796C233.144 184.547 233.235 184.309 233.376 184.101C233.517 183.893 233.704 183.72 233.923 183.596Z" fill="#FAFAFA"/>
<path d="M233.11 187.935V190.437C233.11 190.956 233.472 191.162 233.923 190.906L242.458 185.978C242.693 185.823 242.888 185.615 243.028 185.37C243.168 185.126 243.249 184.852 243.265 184.571V182.07C243.265 181.551 242.896 181.345 242.452 181.601L233.916 186.529C233.681 186.683 233.485 186.891 233.345 187.136C233.205 187.38 233.124 187.654 233.11 187.935Z" fill="#FAFAFA"/>
<path d="M252.244 170.665L264.75 163.424C265.494 162.992 266.1 163.343 266.1 164.205V172.816C266.075 173.285 265.939 173.742 265.704 174.149C265.47 174.556 265.143 174.903 264.75 175.161L252.244 182.395C251.493 182.827 250.887 182.477 250.887 181.614V173.01C250.912 172.54 251.049 172.082 251.284 171.675C251.52 171.267 251.849 170.921 252.244 170.665Z" fill="#407BFF"/>
<path d="M254.239 171.865L262.774 166.969C263.224 166.707 263.587 166.825 263.587 167.232C263.554 167.482 263.464 167.72 263.323 167.929C263.182 168.137 262.994 168.31 262.774 168.432L254.239 173.36C253.795 173.622 253.426 173.504 253.426 173.097C253.455 172.842 253.544 172.598 253.685 172.384C253.826 172.17 254.016 171.992 254.239 171.865Z" fill="#FAFAFA"/>
<path d="M253.426 176.205V178.706C253.426 179.219 253.795 179.431 254.239 179.175L262.774 174.241C263.011 174.088 263.208 173.88 263.349 173.636C263.491 173.391 263.572 173.117 263.587 172.835V170.333C263.587 169.814 263.224 169.602 262.774 169.864L254.239 174.792C254.001 174.947 253.804 175.156 253.663 175.401C253.522 175.647 253.44 175.922 253.426 176.205Z" fill="#FAFAFA"/>
<path d="M212.956 213.866L263.418 184.734C264.919 183.871 266.125 184.484 266.125 186.103C266.06 187.013 265.781 187.894 265.31 188.676C264.84 189.457 264.191 190.116 263.418 190.599L212.956 219.732C211.462 220.595 210.249 219.982 210.249 218.362C210.316 217.453 210.596 216.572 211.066 215.791C211.536 215.01 212.184 214.351 212.956 213.866Z" fill="#E0E0E0"/>
<path d="M212.956 225.603L263.418 196.471C264.919 195.608 266.125 196.221 266.125 197.84C266.06 198.75 265.781 199.631 265.31 200.412C264.84 201.194 264.191 201.853 263.418 202.336L212.956 231.475C211.462 232.338 210.249 231.725 210.249 230.099C210.316 229.19 210.596 228.309 211.066 227.528C211.536 226.747 212.184 226.088 212.956 225.603Z" fill="#E0E0E0"/>
<path d="M229.383 230.787L246.991 220.62C247.742 220.188 248.348 220.538 248.348 221.401V227.073C248.323 227.543 248.187 228 247.951 228.408C247.715 228.815 247.386 229.161 246.991 229.418L229.383 239.585C228.633 240.016 228.026 239.666 228.026 238.803V233.132C228.052 232.662 228.188 232.204 228.424 231.797C228.659 231.389 228.988 231.043 229.383 230.787Z" fill="#407BFF"/>
<path d="M214.057 214.736C213.691 214.979 213.387 215.305 213.17 215.687C212.952 216.069 212.828 216.497 212.806 216.937C212.806 217.743 213.375 218.075 214.057 217.668C214.423 217.425 214.727 217.099 214.944 216.717C215.162 216.334 215.286 215.906 215.308 215.467C215.326 214.661 214.757 214.329 214.057 214.736Z" fill="#FAFAFA"/>
<path d="M218.084 212.41C217.717 212.652 217.413 212.978 217.195 213.36C216.978 213.743 216.854 214.171 216.833 214.611C216.833 215.417 217.396 215.749 218.084 215.342C218.45 215.099 218.754 214.773 218.971 214.391C219.189 214.008 219.313 213.58 219.335 213.141C219.353 212.335 218.784 211.991 218.084 212.41Z" fill="#FAFAFA"/>
<path d="M222.105 210.115C221.738 210.358 221.434 210.684 221.217 211.066C221 211.449 220.876 211.877 220.854 212.316C220.854 213.122 221.423 213.454 222.105 213.047C222.471 212.804 222.775 212.478 222.992 212.096C223.209 211.714 223.334 211.286 223.355 210.846C223.374 210.008 222.805 209.677 222.105 210.115Z" fill="#FAFAFA"/>
<path d="M226.131 207.757C225.765 208 225.461 208.326 225.243 208.708C225.026 209.091 224.902 209.519 224.881 209.958C224.881 210.765 225.45 211.096 226.131 210.69C226.498 210.446 226.802 210.12 227.019 209.738C227.236 209.356 227.361 208.928 227.382 208.489C227.401 207.682 226.832 207.351 226.131 207.757Z" fill="#FAFAFA"/>
<path d="M230.152 205.431C229.786 205.674 229.482 206 229.265 206.383C229.048 206.765 228.923 207.193 228.902 207.632C228.902 208.439 229.471 208.77 230.152 208.364C230.518 208.12 230.822 207.795 231.04 207.412C231.257 207.03 231.381 206.602 231.403 206.163C231.422 205.356 230.853 205.025 230.152 205.431Z" fill="#FAFAFA"/>
<path d="M234.173 203.105C233.807 203.349 233.503 203.675 233.285 204.057C233.068 204.439 232.944 204.867 232.922 205.306C232.922 206.113 233.491 206.444 234.173 206.038C234.54 205.795 234.844 205.47 235.062 205.087C235.279 204.705 235.403 204.276 235.423 203.837C235.442 203.03 234.879 202.699 234.173 203.105Z" fill="#FAFAFA"/>
<path d="M238.2 200.779C237.833 201.022 237.529 201.348 237.312 201.731C237.095 202.113 236.971 202.541 236.949 202.98C236.949 203.787 237.518 204.118 238.2 203.712C238.566 203.468 238.87 203.142 239.087 202.76C239.304 202.378 239.429 201.95 239.45 201.511C239.488 200.735 238.9 200.373 238.2 200.779Z" fill="#FAFAFA"/>
<path d="M214.057 226.479C213.691 226.723 213.388 227.049 213.171 227.431C212.954 227.813 212.829 228.241 212.806 228.68C212.806 229.493 213.375 229.818 214.057 229.411C214.423 229.169 214.727 228.845 214.944 228.463C215.162 228.082 215.286 227.655 215.308 227.217C215.326 226.404 214.757 226.079 214.057 226.479Z" fill="#FAFAFA"/>
<path d="M218.084 224.152C217.717 224.395 217.413 224.721 217.196 225.104C216.979 225.486 216.854 225.914 216.833 226.353C216.833 227.166 217.396 227.491 218.084 227.085C218.45 226.843 218.754 226.518 218.971 226.137C219.189 225.756 219.313 225.329 219.335 224.89C219.353 224.077 218.784 223.752 218.084 224.152Z" fill="#FAFAFA"/>
<path d="M222.105 221.827C221.739 222.071 221.436 222.397 221.218 222.779C221.001 223.161 220.877 223.589 220.854 224.028C220.854 224.84 221.423 225.166 222.105 224.759C222.471 224.517 222.775 224.192 222.992 223.811C223.209 223.43 223.334 223.003 223.355 222.564C223.374 221.751 222.805 221.42 222.105 221.827Z" fill="#FAFAFA"/>
<path d="M226.131 219.494C225.765 219.737 225.461 220.063 225.244 220.446C225.027 220.828 224.902 221.256 224.881 221.695C224.881 222.508 225.45 222.833 226.131 222.427C226.498 222.185 226.802 221.86 227.019 221.479C227.236 221.097 227.361 220.67 227.382 220.232C227.401 219.425 226.832 219.094 226.131 219.494Z" fill="#FAFAFA"/>
<path d="M230.152 217.174C229.786 217.418 229.482 217.743 229.265 218.126C229.048 218.508 228.923 218.936 228.902 219.375C228.902 220.188 229.471 220.513 230.152 220.107C230.518 219.865 230.822 219.54 231.04 219.159C231.257 218.777 231.381 218.35 231.403 217.912C231.422 217.099 230.853 216.768 230.152 217.174Z" fill="#FAFAFA"/>
<path d="M234.173 214.848C233.807 215.091 233.503 215.417 233.285 215.8C233.068 216.182 232.944 216.61 232.922 217.049C232.922 217.862 233.491 218.187 234.173 217.781C234.54 217.539 234.846 217.213 235.063 216.831C235.28 216.448 235.404 216.019 235.423 215.58C235.442 214.773 234.879 214.442 234.173 214.848Z" fill="#FAFAFA"/>
<path d="M238.2 212.522C237.833 212.766 237.529 213.092 237.312 213.474C237.095 213.856 236.971 214.284 236.949 214.723C236.949 215.536 237.518 215.861 238.2 215.455C238.566 215.212 238.871 214.886 239.088 214.504C239.305 214.121 239.429 213.693 239.45 213.254C239.488 212.447 238.9 212.116 238.2 212.522Z" fill="#FAFAFA"/>
<path d="M294.633 238.96C292.472 238.975 290.346 238.413 288.473 237.334C283.965 234.726 281.383 229.286 281.383 222.389C281.383 210.271 289.086 196.333 298.891 190.656C304.187 187.598 309.446 187.266 313.704 189.724C318.206 192.325 320.795 197.771 320.795 204.662C320.795 216.78 313.091 230.725 303.255 236.402C300.654 237.994 297.681 238.876 294.633 238.96ZM307.551 196.827C306.029 196.935 304.557 197.418 303.268 198.234C296.14 202.33 290.137 213.404 290.137 222.389C290.137 226.029 291.156 228.792 292.863 229.774C294.808 230.9 297.515 229.674 298.947 228.842C306.094 224.722 312.122 213.648 312.122 204.662C312.122 201.023 311.103 198.265 309.396 197.277C308.833 196.963 308.196 196.807 307.551 196.827Z" fill="#455A64"/>
<path d="M313.654 206.601C313.654 199.791 309.365 197.278 309.365 197.278C311.072 198.266 312.091 201.029 312.091 204.662C312.091 213.648 306.063 224.722 298.916 228.843C297.484 229.674 294.783 230.9 292.832 229.774C292.832 229.774 296.452 232.025 301.455 229.293C308.696 225.347 313.654 215.586 313.654 206.601Z" fill="#37474F"/>
<path d="M306.776 121.504C306.732 120.337 306.238 119.232 305.397 118.421C304.555 117.61 303.433 117.157 302.264 117.157C301.096 117.157 299.973 117.61 299.132 118.421C298.291 119.232 297.796 120.337 297.753 121.504V193.232C297.785 193.634 297.924 194.02 298.157 194.35C298.389 194.68 298.705 194.941 299.072 195.108C300.061 195.607 301.153 195.868 302.261 195.868C303.369 195.868 304.461 195.607 305.45 195.108C305.819 194.943 306.137 194.682 306.37 194.352C306.604 194.022 306.744 193.635 306.776 193.232V121.517V121.504Z" fill="#37474F"/>
<path d="M303.174 137.537C303.125 136.632 302.863 135.752 302.41 134.968C301.957 134.183 301.325 133.517 300.567 133.022C300.299 132.826 299.982 132.707 299.652 132.678C299.321 132.649 298.988 132.712 298.691 132.859L287.573 139.269L287.304 139.425C287.263 139.442 287.225 139.465 287.192 139.494C287.002 139.622 286.824 139.766 286.66 139.925C286.033 140.55 285.652 141.38 285.586 142.263C285.52 143.146 285.773 144.023 286.3 144.734C286.828 145.446 287.593 145.944 288.457 146.138C289.321 146.332 290.225 146.208 291.006 145.791L291.219 145.665L302.418 139.219C302.681 139.03 302.89 138.775 303.023 138.48C303.156 138.184 303.208 137.859 303.174 137.537Z" fill="#455A64"/>
<path d="M303.174 155.495C303.124 154.592 302.861 153.713 302.408 152.93C301.955 152.146 301.325 151.481 300.567 150.987C300.3 150.788 299.984 150.667 299.653 150.637C299.321 150.608 298.989 150.67 298.691 150.818L285.647 158.321L285.378 158.478C285.338 158.495 285.3 158.519 285.266 158.547C285.075 158.673 284.897 158.817 284.734 158.978C284.327 159.383 284.02 159.878 283.837 160.423C283.654 160.968 283.6 161.548 283.68 162.117C283.76 162.686 283.972 163.229 284.298 163.702C284.624 164.175 285.056 164.566 285.56 164.843C286.103 165.131 286.708 165.282 287.323 165.281C287.936 165.284 288.54 165.133 289.08 164.843C289.155 164.806 289.224 164.756 289.293 164.718L302.424 157.215C302.692 157.022 302.904 156.761 303.036 156.458C303.168 156.156 303.216 155.823 303.174 155.495Z" fill="#455A64"/>
</svg>
