<svg width="817" height="83" viewBox="0 0 817 83" fill="none" xmlns="http://www.w3.org/2000/svg">
<g filter="url(#filter0_d_16_2513)">
<path d="M0.68892 67V1.54545H14.5277V28.5518H42.6207V1.54545H56.4276V67H42.6207V39.9616H14.5277V67H0.68892ZM127.987 34.2727C127.987 41.4105 126.634 47.483 123.928 52.4901C121.243 57.4972 117.578 61.3217 112.933 63.9638C108.31 66.5845 103.111 67.8949 97.3366 67.8949C91.5199 67.8949 86.2997 66.5739 81.6761 63.9318C77.0526 61.2898 73.3984 57.4652 70.7138 52.4581C68.0291 47.451 66.6868 41.3892 66.6868 34.2727C66.6868 27.1349 68.0291 21.0625 70.7138 16.0554C73.3984 11.0483 77.0526 7.23437 81.6761 4.61364C86.2997 1.97159 91.5199 0.650566 97.3366 0.650566C103.111 0.650566 108.31 1.97159 112.933 4.61364C117.578 7.23437 121.243 11.0483 123.928 16.0554C126.634 21.0625 127.987 27.1349 127.987 34.2727ZM113.956 34.2727C113.956 29.6491 113.263 25.75 111.879 22.5753C110.515 19.4006 108.587 16.9929 106.094 15.3523C103.601 13.7116 100.682 12.8913 97.3366 12.8913C93.9915 12.8913 91.0724 13.7116 88.5795 15.3523C86.0866 16.9929 84.1477 19.4006 82.7628 22.5753C81.3991 25.75 80.7173 29.6491 80.7173 34.2727C80.7173 38.8963 81.3991 42.7955 82.7628 45.9702C84.1477 49.1449 86.0866 51.5526 88.5795 53.1932C91.0724 54.8338 93.9915 55.6541 97.3366 55.6541C100.682 55.6541 103.601 54.8338 106.094 53.1932C108.587 51.5526 110.515 49.1449 111.879 45.9702C113.263 42.7955 113.956 38.8963 113.956 34.2727ZM150.51 67L131.782 1.54545H146.899L157.733 47.0249H158.277L170.23 1.54545H183.174L195.095 47.1207H195.67L206.505 1.54545H221.622L202.893 67H189.406L176.942 24.2053H176.43L163.998 67H150.51ZM249.859 67V1.54545H293.197V12.9553H263.698V28.5518H290.32V39.9616H263.698V67H249.859ZM362.654 34.2727C362.654 41.4105 361.301 47.483 358.596 52.4901C355.911 57.4972 352.246 61.3217 347.601 63.9638C342.978 66.5845 337.779 67.8949 332.005 67.8949C326.188 67.8949 320.968 66.5739 316.344 63.9318C311.721 61.2898 308.066 57.4652 305.382 52.4581C302.697 47.451 301.355 41.3892 301.355 34.2727C301.355 27.1349 302.697 21.0625 305.382 16.0554C308.066 11.0483 311.721 7.23437 316.344 4.61364C320.968 1.97159 326.188 0.650566 332.005 0.650566C337.779 0.650566 342.978 1.97159 347.601 4.61364C352.246 7.23437 355.911 11.0483 358.596 16.0554C361.301 21.0625 362.654 27.1349 362.654 34.2727ZM348.624 34.2727C348.624 29.6491 347.931 25.75 346.547 22.5753C345.183 19.4006 343.255 16.9929 340.762 15.3523C338.269 13.7116 335.35 12.8913 332.005 12.8913C328.659 12.8913 325.74 13.7116 323.248 15.3523C320.755 16.9929 318.816 19.4006 317.431 22.5753C316.067 25.75 315.385 29.6491 315.385 34.2727C315.385 38.8963 316.067 42.7955 317.431 45.9702C318.816 49.1449 320.755 51.5526 323.248 53.1932C325.74 54.8338 328.659 55.6541 332.005 55.6541C335.35 55.6541 338.269 54.8338 340.762 53.1932C343.255 51.5526 345.183 49.1449 346.547 45.9702C347.931 42.7955 348.624 38.8963 348.624 34.2727ZM372.906 67V1.54545H398.73C403.673 1.54545 407.892 2.42969 411.386 4.19815C414.901 5.94531 417.575 8.42756 419.408 11.6449C421.262 14.8409 422.188 18.6016 422.188 22.9268C422.188 27.2734 421.251 31.0128 419.376 34.1449C417.501 37.2557 414.784 39.642 411.226 41.304C407.689 42.9659 403.406 43.7969 398.378 43.7969H381.088V32.6747H396.141C398.783 32.6747 400.977 32.3125 402.725 31.5881C404.472 30.8636 405.771 29.777 406.624 28.3281C407.497 26.8793 407.934 25.0788 407.934 22.9268C407.934 20.7535 407.497 18.9212 406.624 17.4297C405.771 15.9382 404.461 14.8089 402.693 14.0419C400.945 13.2536 398.74 12.8594 396.077 12.8594H386.744V67H372.906ZM408.254 37.2131L424.521 67H409.244L393.328 37.2131H408.254ZM475.37 22.7031C474.923 21.1477 474.294 19.7734 473.485 18.5803C472.675 17.3658 471.684 16.343 470.512 15.5121C469.362 14.6598 468.041 14.0099 466.549 13.5625C465.079 13.1151 463.449 12.8913 461.659 12.8913C458.314 12.8913 455.374 13.7223 452.838 15.3842C450.324 17.0462 448.364 19.4645 446.958 22.6392C445.551 25.7926 444.848 29.6491 444.848 34.2088C444.848 38.7685 445.541 42.6463 446.926 45.8423C448.311 49.0384 450.271 51.478 452.806 53.1612C455.342 54.8232 458.335 55.6541 461.787 55.6541C464.919 55.6541 467.593 55.1001 469.809 53.9922C472.046 52.8629 473.751 51.2756 474.923 49.2301C476.116 47.1847 476.713 44.7663 476.713 41.9751L479.525 42.3906H462.65V31.9716H490.04V40.2173C490.04 45.9702 488.825 50.9134 486.396 55.0469C483.968 59.1591 480.622 62.3338 476.361 64.571C472.1 66.7869 467.22 67.8949 461.723 67.8949C455.587 67.8949 450.196 66.5419 445.551 63.8359C440.906 61.1087 437.284 57.2415 434.685 52.2344C432.107 47.206 430.818 41.2401 430.818 34.3366C430.818 29.0312 431.585 24.3011 433.119 20.1463C434.674 15.9702 436.847 12.4332 439.639 9.53551C442.43 6.63778 445.679 4.43253 449.387 2.91974C453.094 1.40696 457.11 0.650566 461.436 0.650566C465.143 0.650566 468.595 1.19389 471.791 2.28054C474.987 3.34588 477.82 4.85866 480.292 6.81889C482.785 8.77912 484.82 11.1122 486.396 13.8182C487.973 16.5028 488.985 19.4645 489.433 22.7031H475.37ZM500.435 67V1.54545H544.54V12.9553H514.274V28.5518H542.271V39.9616H514.274V55.5902H544.668V67H500.435ZM553.05 12.9553V1.54545H606.807V12.9553H586.768V67H573.089V12.9553H553.05ZM615.66 67V1.54545H658.998V12.9553H629.498V28.5518H656.121V39.9616H629.498V67H615.66ZM708.736 1.54545H722.575V44.0526C722.575 48.8253 721.435 53.0014 719.155 56.581C716.896 60.1605 713.732 62.9517 709.663 64.9545C705.593 66.9361 700.852 67.9268 695.44 67.9268C690.007 67.9268 685.256 66.9361 681.186 64.9545C677.116 62.9517 673.952 60.1605 671.694 56.581C669.435 53.0014 668.306 48.8253 668.306 44.0526V1.54545H682.145V42.87C682.145 45.3629 682.688 47.5788 683.775 49.5178C684.883 51.4567 686.438 52.9801 688.441 54.0881C690.444 55.196 692.777 55.75 695.44 55.75C698.125 55.75 700.458 55.196 702.44 54.0881C704.442 52.9801 705.987 51.4567 707.074 49.5178C708.182 47.5788 708.736 45.3629 708.736 42.87V1.54545ZM733.96 67V1.54545H747.799V55.5902H775.86V67H733.96ZM801.037 1.54545L799.79 47.3764H788.093L786.815 1.54545H801.037ZM793.942 67.831C791.832 67.831 790.021 67.0852 788.509 65.5938C786.996 64.081 786.25 62.2699 786.271 60.1605C786.25 58.0724 786.996 56.2827 788.509 54.7912C790.021 53.2997 791.832 52.554 793.942 52.554C795.966 52.554 797.745 53.2997 799.279 54.7912C800.813 56.2827 801.591 58.0724 801.612 60.1605C801.591 61.5668 801.218 62.8558 800.494 64.0277C799.79 65.1783 798.864 66.1051 797.713 66.8082C796.562 67.4901 795.305 67.831 793.942 67.831Z" fill="white" fill-opacity="0.7" shape-rendering="crispEdges"/>
</g>
<defs>
<filter id="filter0_d_16_2513" x="0.688919" y="0.650635" width="815.923" height="82.2761" filterUnits="userSpaceOnUse" color-interpolation-filters="sRGB">
<feFlood flood-opacity="0" result="BackgroundImageFix"/>
<feColorMatrix in="SourceAlpha" type="matrix" values="0 0 0 0 0 0 0 0 0 0 0 0 0 0 0 0 0 0 127 0" result="hardAlpha"/>
<feOffset dx="15" dy="15"/>
<feComposite in2="hardAlpha" operator="out"/>
<feColorMatrix type="matrix" values="0 0 0 0 0 0 0 0 0 0 0 0 0 0 0 0 0 0 0.25 0"/>
<feBlend mode="normal" in2="BackgroundImageFix" result="effect1_dropShadow_16_2513"/>
<feBlend mode="normal" in="SourceGraphic" in2="effect1_dropShadow_16_2513" result="shape"/>
</filter>
</defs>
</svg>
