<svg width="438" height="394" viewBox="0 0 438 394" fill="none" xmlns="http://www.w3.org/2000/svg">
<g filter="url(#filter0_d_3_419)">
<path d="M313.053 70.8016C340.853 91.2259 371.651 102.391 394.272 123.905C416.894 145.418 431.066 177.553 429.431 208.597C427.523 239.642 409.263 269.598 392.637 301.46C376.284 333.594 361.294 367.362 335.13 377.438C309.238 387.514 272.171 373.626 238.921 367.634C205.398 361.643 175.417 363.55 138.351 359.737C101.285 356.197 56.8595 347.21 29.8774 321.339C3.16781 295.469 -6.37133 252.442 4.25799 215.95C14.8873 179.186 45.6851 148.686 67.7614 114.101C89.5651 79.516 102.647 40.846 129.084 19.6048C155.521 -1.63648 195.313 -5.44901 227.746 7.35021C260.452 20.4217 285.254 50.3774 313.053 70.8016Z" fill="#C5C6D0"/>
</g>
<path d="M242.546 315.52H263.958V315.359H242.546V315.52Z" fill="#E7E8E5"/>
<path d="M324.886 313.767H319.267V313.605H324.886V313.767Z" fill="#E7E8E5"/>
<path d="M267.928 310.908H312.479V310.747H267.928V310.908Z" fill="#E7E8E5"/>
<path d="M182.065 314.724H201.654V314.562H182.065V314.724Z" fill="#E7E8E5"/>
<path d="M163.883 314.724H176.309V314.562H163.883V314.724Z" fill="#E7E8E5"/>
<path d="M93.1764 210.895H203.261V109.546H93.1764V210.895Z" fill="#E2E2E0"/>
<path d="M90.5627 210.895H202.125V109.546H90.5627V210.895Z" fill="#F3F2F1"/>
<path d="M95.2542 205.826H197.434V114.616H95.2542V205.826Z" fill="#FAFAF9"/>
<path d="M184.809 205.826L150.447 114.616H135.978L170.341 205.826H184.809Z" fill="white"/>
<path d="M166.24 205.826L131.877 114.616H121.915L156.278 205.826H166.24Z" fill="white"/>
<path d="M135.44 205.826V114.616H129.844V205.826H135.44Z" fill="#E2E2E0"/>
<path d="M160.997 205.826H166.594V114.616H160.997V205.826Z" fill="#E2E2E0"/>
<path d="M134.431 209.042V110.846H127.356V209.042H134.431Z" fill="#F3F2F1"/>
<path d="M158.51 209.042H165.585V110.846H158.51V209.042Z" fill="#F3F2F1"/>
<path d="M95.7521 205.826V114.616H95.2542V205.826H95.7521Z" fill="#E2E2E0"/>
<path d="M104.594 306.344H315.135V235.737H104.594V306.344Z" fill="#EDEDEB"/>
<path d="M306.568 264.278V241.504C306.568 240.531 305.78 239.743 304.807 239.743H114.922C113.949 239.743 113.16 240.531 113.16 241.504V264.278C113.16 265.25 113.949 266.038 114.922 266.038H304.807C305.78 266.038 306.568 265.25 306.568 264.278Z" fill="#F3F2F1"/>
<path d="M306.568 300.217V270.76C306.568 269.787 305.78 268.999 304.807 268.999H114.922C113.949 268.999 113.16 269.787 113.16 270.76V300.217C113.16 301.19 113.949 301.978 114.922 301.978H304.807C305.78 301.978 306.568 301.19 306.568 300.217Z" fill="#F3F2F1"/>
<path d="M267.851 239.306H151.877C151.877 241.195 153.408 242.726 155.297 242.726H264.432C266.32 242.726 267.851 241.195 267.851 239.306Z" fill="#EDEDEB"/>
<path d="M267.851 268.562H151.877C151.877 270.45 153.408 271.982 155.297 271.982H264.432C266.32 271.982 267.851 270.45 267.851 268.562Z" fill="#EDEDEB"/>
<path d="M330.848 306.344V235.737H315.135V306.344H330.848Z" fill="#E2E2E0"/>
<path d="M104.594 235.737H315.135V231.384H104.594V235.737Z" fill="#FAFAF9"/>
<path d="M296.622 225.081C296.622 228.562 299.444 231.384 302.925 231.384C306.406 231.384 309.228 228.562 309.228 225.081H296.622Z" fill="#F3F2F1"/>
<path d="M279.822 225.081C279.822 228.562 282.643 231.384 286.124 231.384C289.605 231.384 292.427 228.562 292.427 225.081H279.822Z" fill="#F3F2F1"/>
<path d="M106.857 229.255C106.857 230.431 112.099 231.384 118.564 231.384C125.029 231.384 130.271 230.431 130.271 229.255H106.857Z" fill="#F3F2F1"/>
<path d="M106.857 228.143C106.857 229.318 112.099 230.272 118.564 230.272C125.029 230.272 130.271 229.318 130.271 228.143H106.857Z" fill="#F3F2F1"/>
<path d="M330.848 231.384V235.737H315.135V231.384H330.848Z" fill="#DADBD8"/>
<path d="M323.996 158.316H285.57V108.251H323.996V158.316Z" fill="#E7E8E5"/>
<path d="M322.208 158.316H283.782V108.251H322.208V158.316Z" fill="#F3F2F1"/>
<path d="M317.045 151.589H288.945V114.977H317.045V151.589Z" fill="white"/>
<path d="M236.418 211.637H297.128V173.212H236.418V211.637Z" fill="#E7E8E5"/>
<path d="M234.569 211.637H295.28V173.212H234.569V211.637Z" fill="#F3F2F1"/>
<path d="M241.296 206.475H288.553V178.374H241.296V206.475Z" fill="white"/>
<path d="M345.179 199.403H313.935V168.618H345.179V199.403Z" fill="#E7E8E5"/>
<path d="M343.391 199.403H312.147V168.618H343.391V199.403Z" fill="#F3F2F1"/>
<path d="M338.228 192.677H317.309V175.344H338.228V192.677Z" fill="white"/>
<path d="M244.396 162.586H275.64V131.801H244.396V162.586Z" fill="#E7E8E5"/>
<path d="M242.608 162.586H273.852V131.801H242.608V162.586Z" fill="#F3F2F1"/>
<path d="M247.77 155.86H268.689V138.527H247.77V155.86Z" fill="white"/>
<path d="M343.058 328.22C343.058 332.262 286.943 335.539 217.72 335.539C148.498 335.539 92.3828 332.262 92.3828 328.22C92.3828 324.177 148.498 320.9 217.72 320.9C286.943 320.9 343.058 324.177 343.058 328.22Z" fill="#F3F2F1"/>
<path d="M260.895 146.199H260.223V141.944H260.895V146.199Z" fill="#406FBF"/>
<path d="M260.895 138.485H260.223C260.223 133.333 256.031 129.142 250.879 129.142V128.47C256.402 128.47 260.895 132.963 260.895 138.485Z" fill="#406FBF"/>
<path d="M250.879 130.821H161.655C157.439 130.821 153.991 134.271 153.991 138.485V320.465C153.991 324.68 157.439 328.129 161.655 328.129H250.879C255.094 328.129 258.543 324.68 258.543 320.465V138.485C258.543 134.271 255.094 130.821 250.879 130.821Z" fill="#406FBF"/>
<path d="M250.358 325.177H161.134C158.536 325.177 156.422 323.063 156.422 320.465V317.324L156.574 314.673L158.15 313.755L156.748 311.618L157.067 306.032C157.067 306.032 157.967 294.442 157.967 282.594C157.967 278.189 157.843 273.749 157.502 269.855C157.644 258.139 158.759 243.836 158.76 231.765C158.761 224.701 158.379 218.4 157.198 213.829L157.276 213.836C157.293 213.838 157.311 213.838 157.327 213.838C157.543 213.838 157.707 213.714 157.662 213.573L157.435 211.659C157.404 211.56 157.278 211.485 157.123 211.472L157.097 211.469C157.972 204.513 158.956 199.316 163.833 186.679C167.314 182.052 165.513 177.253 165.513 177.253C165.513 177.253 164.614 178.825 163.242 178.825C162.676 178.825 162.03 178.558 161.332 177.804C158.944 175.219 169.495 159.962 161.24 156.372C160.14 153.79 158.408 152.186 156.422 151.335V138.485C156.422 135.887 158.536 133.774 161.134 133.774H250.358C252.956 133.774 255.07 135.887 255.07 138.485V269.856C250.489 270.887 246.777 275.255 246.953 279.861C247.786 301.603 254.698 315.096 254.698 315.096L255.07 315.035V320.465C255.07 323.063 252.956 325.177 250.358 325.177ZM177.291 270.315C172.42 270.315 168.435 274.3 168.435 279.171V299.179L177.291 293.932H199.678C204.549 293.932 208.534 289.946 208.534 285.076V279.171C208.534 274.3 204.549 270.315 199.678 270.315H177.291ZM177.291 230.99C172.421 230.99 168.435 234.976 168.435 239.847V245.751C168.435 250.621 172.421 254.607 177.291 254.607H234.856L243.713 259.855V239.847C243.713 234.976 239.727 230.99 234.856 230.99H177.291ZM177.291 191.665C172.42 191.665 168.435 195.651 168.435 200.522V220.53L177.291 215.282H234.856C239.727 215.282 243.713 211.297 243.713 206.426V200.522C243.713 195.651 239.727 191.665 234.856 191.665H177.291ZM177.291 152.341C172.421 152.341 168.435 156.327 168.435 161.197V167.101C168.435 171.972 172.421 175.958 177.291 175.958H234.856L243.713 181.205V161.197C243.713 156.327 239.727 152.341 234.856 152.341H177.291Z" fill="#F2F7FC"/>
<path d="M211.076 312.537C211.076 315.481 208.69 317.867 205.746 317.867C202.802 317.867 200.415 315.481 200.415 312.537C200.415 309.593 202.802 307.206 205.746 307.206C208.69 307.206 211.076 309.593 211.076 312.537Z" fill="#406FBF"/>
<path d="M201.671 133.234C201.671 135.666 203.643 137.637 206.074 137.637C208.506 137.637 210.476 135.666 210.476 133.234H201.671Z" fill="#406FBF"/>
<path d="M243.713 181.205L234.856 175.958H177.291C172.421 175.958 168.435 171.972 168.435 167.101V161.197C168.435 156.327 172.421 152.341 177.291 152.341H234.856C239.727 152.341 243.713 156.327 243.713 161.197V181.205Z" fill="#6A94D4"/>
<path d="M233.253 162.272H178.895V160.797H233.253V162.272Z" fill="white"/>
<path d="M233.253 167.502H189.355V166.026H233.253V167.502Z" fill="white"/>
<path d="M168.435 220.53V200.522C168.435 195.651 172.42 191.666 177.291 191.666H234.856C239.727 191.666 243.713 195.651 243.713 200.522V206.426C243.713 211.297 239.727 215.282 234.856 215.282H177.291L168.435 220.53ZM208.042 205.351V206.827H218.293V205.351H208.042ZM178.895 205.351V206.827H204.106V205.351H178.895ZM178.895 200.122V201.597H233.253V200.122H178.895Z" fill="#D0E0F4"/>
<path d="M178.895 201.597H233.253V200.121H178.895V201.597Z" fill="#7DA6DD"/>
<path d="M178.895 206.827H204.106V205.351H178.895V206.827Z" fill="#7DA6DD"/>
<path d="M208.042 206.827H218.293V205.351H208.042V206.827Z" fill="#7DA6DD"/>
<path d="M243.713 259.855L234.856 254.607H177.291C172.421 254.607 168.435 250.622 168.435 245.751V239.847C168.435 234.976 172.421 230.991 177.291 230.991H234.856C239.727 230.991 243.713 234.976 243.713 239.847V259.855Z" fill="#6A94D4"/>
<path d="M233.253 240.922H178.895V239.446H233.253V240.922Z" fill="white"/>
<path d="M233.253 246.152H189.355V244.676H233.253V246.152Z" fill="white"/>
<path d="M168.435 299.18V279.172C168.435 274.3 172.42 270.315 177.291 270.315H199.678C204.549 270.315 208.534 274.3 208.534 279.172V285.076C208.534 289.946 204.549 293.932 199.678 293.932H177.291L168.435 299.18ZM194.855 282.647C193.411 282.647 192.24 283.818 192.24 285.262C192.24 286.706 193.411 287.877 194.855 287.877C196.299 287.877 197.47 286.706 197.47 285.262C197.47 283.818 196.299 282.647 194.855 282.647ZM179.164 279.509C177.721 279.509 176.549 280.68 176.549 282.124C176.549 283.568 177.721 284.739 179.164 284.739C180.609 284.739 181.78 283.568 181.78 282.124C181.78 280.68 180.609 279.509 179.164 279.509ZM187.009 277.417C185.565 277.417 184.395 278.588 184.395 280.032C184.395 281.476 185.565 282.647 187.009 282.647C188.454 282.647 189.625 281.476 189.625 280.032C189.625 278.588 188.454 277.417 187.009 277.417Z" fill="#D0E0F4"/>
<path d="M179.164 284.739C177.721 284.739 176.549 283.568 176.549 282.124C176.549 280.68 177.721 279.509 179.164 279.509C180.609 279.509 181.78 280.68 181.78 282.124C181.78 283.568 180.609 284.739 179.164 284.739Z" fill="#7DA6DD"/>
<path d="M187.009 282.647C185.565 282.647 184.395 281.476 184.395 280.032C184.395 278.588 185.565 277.417 187.009 277.417C188.454 277.417 189.625 278.588 189.625 280.032C189.625 281.476 188.454 282.647 187.009 282.647Z" fill="#7DA6DD"/>
<path d="M194.855 287.877C193.411 287.877 192.24 286.706 192.24 285.262C192.24 283.818 193.411 282.647 194.855 282.647C196.299 282.647 197.47 283.818 197.47 285.262C197.47 286.706 196.299 287.877 194.855 287.877Z" fill="#7DA6DD"/>
<path d="M278.699 275.833C279.41 277.247 280.046 278.672 280.708 280.097C281.363 281.523 281.986 282.963 282.6 284.411C283.207 285.862 283.815 287.315 284.384 288.794C284.963 290.272 285.528 291.753 286.052 293.3L283.734 291.121C284.857 291.552 286.343 291.792 287.922 291.846C289.502 291.896 291.183 291.813 292.878 291.618C294.579 291.439 296.303 291.156 298.034 290.832C299.752 290.507 301.528 290.109 303.198 289.716L304.729 293.435C303.003 294.393 301.309 295.16 299.524 295.876C297.75 296.586 295.924 297.194 294.035 297.699C292.14 298.182 290.185 298.584 288.11 298.733C286.042 298.897 283.833 298.843 281.458 298.189L279.943 297.77L279.139 296.009C277.9 293.291 276.56 290.493 275.238 287.707C274.579 286.31 273.914 284.913 273.27 283.505C272.632 282.097 271.962 280.692 271.351 279.284L278.699 275.833Z" fill="#F9A8B3"/>
<path d="M301.12 290.87L303.66 288.386L307.692 292.754C307.692 292.754 306.23 295.303 302.601 293.819L301.12 290.87Z" fill="#F9A8B3"/>
<path d="M307.484 286.745L309.708 290.374L307.692 292.754L303.66 288.387L307.484 286.745Z" fill="#F9A8B3"/>
<path d="M267.284 270.02C272.477 268.026 276.465 271.005 282.998 279.256L275.347 287.122C275.347 287.122 257.202 273.891 267.284 270.02Z" fill="#17282F"/>
<path d="M277.578 284.83C277.578 284.829 277.578 284.83 277.577 284.829L279.615 282.734C279.615 282.734 279.615 282.734 279.615 282.735L277.578 284.83Z" fill="#D8898C"/>
<path d="M277.577 284.829C277.356 282.572 277.182 280.477 277.002 278.559C278.348 279.427 279.293 280.809 279.615 282.734L277.577 284.829Z" fill="#111D23"/>
<path d="M306.671 324.861L312.86 324.143L312.348 311.442L306.159 312.161L306.671 324.861Z" fill="#F9A8B3"/>
<path d="M312.916 321.472L305.943 321.569C305.717 321.572 305.53 321.749 305.495 321.996L304.706 327.483C304.625 328.052 305.056 328.584 305.578 328.566C307.746 328.493 308.741 328.329 311.476 328.289C313.159 328.264 318.244 328.386 320.567 328.352C322.84 328.318 323.052 325.759 322.088 325.542C317.765 324.566 315.277 323.182 313.836 321.837C313.576 321.594 313.247 321.466 312.916 321.472Z" fill="#17282F"/>
<path d="M313.831 321.832C314.378 321.361 315.048 320.653 315.007 320.299C315.001 320.255 314.983 320.196 314.891 320.145C314.72 320.05 314.575 320.039 314.449 320.108C314.149 320.271 313.924 320.907 313.831 321.832ZM314.395 319.853C314.575 319.781 314.776 319.806 314.994 319.926C315.178 320.029 315.231 320.177 315.244 320.284C315.323 320.957 313.922 322.091 313.762 322.217L313.632 322.224L313.567 322.1C313.613 321.403 313.774 320.189 314.328 319.885L314.395 319.853Z" fill="#406FBF"/>
<path d="M315.535 322.241L315.604 322.209C315.71 322.148 315.773 322.058 315.795 321.934C315.823 321.777 315.768 321.721 315.717 321.689C315.406 321.493 314.454 321.75 313.946 322.077C314.39 322.221 315.138 322.4 315.535 322.241ZM314.33 321.61C314.862 321.397 315.508 321.273 315.831 321.476C315.929 321.538 316.085 321.688 316.03 321.994C315.996 322.189 315.894 322.335 315.727 322.43C315.103 322.785 313.71 322.256 313.65 322.233L313.569 322.137L313.604 322.019C313.752 321.884 314.023 321.732 314.33 321.61Z" fill="#406FBF"/>
<path d="M306.391 318.022L306.25 314.497C306.251 314.502 306.252 314.507 306.253 314.511L306.395 318.022H306.391Z" fill="#C3C5C2"/>
<path d="M306.395 318.022L306.253 314.511C306.295 314.706 306.315 314.813 306.315 314.813L312.479 314.693L312.61 317.993L306.395 318.022Z" fill="#D8898C"/>
<path d="M275.797 304.791C275.797 304.791 291.865 289.842 302.279 289.619C309.897 289.455 315.343 314.637 315.343 314.637L306.314 314.813C306.314 314.813 304.726 305.908 298.807 303.447C290.265 316.274 255.43 341.619 258.749 314.145C263.894 312.201 275.797 304.791 275.797 304.791Z" fill="#406FBF"/>
<path d="M265.421 326.438C261.481 326.438 258.776 324.174 258.543 318.386C258.532 318.116 258.527 317.836 258.527 317.55C258.527 316.6 258.588 315.562 258.715 314.434L282.762 310.471C281.661 307.224 280.797 304.094 280.108 301.101C285.603 296.659 295.234 289.77 302.279 289.619C302.303 289.618 302.329 289.618 302.353 289.618C309.933 289.618 315.343 314.637 315.343 314.637L306.314 314.813C306.314 314.813 305.435 309.881 302.546 306.344C301.552 305.128 300.322 304.077 298.807 303.447C298.201 304.357 297.463 305.331 296.614 306.344V306.345C296.569 306.399 296.523 306.452 296.478 306.506C295.326 307.87 293.979 309.302 292.494 310.747C292.439 310.801 292.384 310.855 292.328 310.908C284.452 318.524 272.783 326.438 265.421 326.438Z" fill="#3563B7"/>
<path d="M315.323 315.896L304.686 316.915L304.719 313.037L315.975 311.699L315.323 315.896Z" fill="#17282F"/>
<path d="M254.698 315.096C254.698 315.096 247.786 301.603 246.953 279.861C246.757 274.74 251.368 269.915 256.634 269.64C261.073 269.408 265.762 269.35 269.544 269.364C273.341 269.38 276.255 271.9 276.689 275.554C277.647 283.626 277.811 295.871 282.762 310.471L254.698 315.096Z" fill="#17282F"/>
<path d="M251.846 299.403C250.885 294.582 250.127 288.922 249.881 282.555C249.85 281.677 249.953 280.812 250.181 279.974C252.306 277.569 253.653 276.936 254.528 276.936C255.218 276.936 255.614 277.33 255.866 277.559C261.143 282.34 253.396 297.21 251.846 299.403Z" fill="#111D23"/>
<path d="M261.781 256.721C261.355 260.681 260.307 266.766 257.61 269.592C259.732 271.584 263.182 273.551 268.09 274.371C270.626 273.322 270.963 270.991 269.735 269.368C265.403 268.611 265.45 267.383 267.091 264.623L261.781 256.721Z" fill="#F9A8B3"/>
<path d="M266.127 266.693C266.174 266.489 266.249 266.271 266.347 266.038H266.349C266.255 266.263 266.178 266.484 266.127 266.693Z" fill="#B6B8B6"/>
<path d="M266.349 266.038H266.347C266.381 265.958 266.418 265.876 266.457 265.793C266.419 265.875 266.383 265.957 266.349 266.038Z" fill="#BABCBA"/>
<path d="M266.127 266.693C264.801 266.157 263.349 264.316 263.196 262.712C264.233 263.874 265.558 264.582 266.951 264.852C266.776 265.155 266.603 265.475 266.457 265.793C266.418 265.876 266.381 265.958 266.347 266.038C266.249 266.271 266.175 266.489 266.127 266.693Z" fill="#D8898C"/>
<path d="M273.133 249.414C275.672 252.11 281.014 252.124 278.721 248.928C276.428 245.732 271.155 247.314 273.133 249.414Z" fill="#17282F"/>
<path d="M262.836 249.126C261.42 254.267 260.335 257.192 261.943 260.764C264.362 266.139 271.237 266.272 274.13 261.731C276.734 257.642 278.613 249.921 274.471 245.994C270.389 242.125 264.253 243.984 262.836 249.126Z" fill="#F9A8B3"/>
<path d="M261.689 253.918C262.324 253.806 265.53 252.834 267.089 251.336C268.844 249.65 268.856 248.021 268.37 247.274C267.886 246.528 264.197 245.102 262.473 245.432C259.748 245.954 260.421 250.782 260.458 252.089C260.495 253.395 261.689 253.918 261.689 253.918Z" fill="#F9A8B3"/>
<path d="M261.689 253.918C261.689 253.918 260.495 253.395 260.458 252.089C260.445 251.642 260.358 250.784 260.358 249.828C260.358 247.985 260.68 245.776 262.473 245.432C262.647 245.398 262.841 245.383 263.051 245.383C264.91 245.383 267.934 246.603 268.37 247.274C268.536 247.529 268.644 247.888 268.644 248.316C268.644 249.141 268.244 250.227 267.088 251.336C265.53 252.834 262.324 253.806 261.689 253.918Z" fill="#5C4F55"/>
<path d="M258.968 254.276C259.497 255.475 260.512 256.341 261.498 256.743C262.982 257.346 263.829 256.071 263.506 254.58C263.215 253.239 262.093 251.309 260.561 251.337C259.053 251.366 258.362 252.906 258.968 254.276Z" fill="#F9A8B3"/>
<path d="M263.832 246.97C270.422 248.381 275.109 252.092 278.229 249.86C280.434 248.281 278.986 245.405 276.457 243.324C274.299 241.547 271.312 240.996 270.381 239.539C269.938 241.136 271.401 242.126 271.401 242.126C271.401 242.126 265.444 241.21 263.798 239.658C263.402 240.584 264.931 242.367 264.931 242.367C264.931 242.367 263.247 243.963 258.431 242.16C258.75 243.707 260.085 246.167 263.832 246.97Z" fill="#17282F"/>
<path d="M276.929 250.384C276.843 250.384 276.756 250.381 276.668 250.375L276.69 250.04C277.966 250.121 278.995 249.528 279.437 248.446C279.886 247.347 279.692 245.681 278.244 244.437C277.727 243.991 277.079 243.667 276.393 243.323C274.859 242.553 273.119 241.68 272.28 239.14L272.599 239.035C273.395 241.442 274.996 242.245 276.544 243.022C277.249 243.376 277.915 243.71 278.463 244.182C280.037 245.535 280.242 247.362 279.748 248.573C279.28 249.72 278.236 250.384 276.929 250.384Z" fill="#17282F"/>
<path d="M270.307 254.147C270.167 254.556 270.266 254.973 270.529 255.077C270.792 255.182 271.118 254.936 271.258 254.527C271.398 254.118 271.299 253.702 271.036 253.597C270.774 253.492 270.447 253.738 270.307 254.147Z" fill="#17282F"/>
<path d="M275.185 255.616C275.044 256.025 275.144 256.442 275.406 256.547C275.669 256.651 275.995 256.405 276.135 255.996C276.275 255.588 276.176 255.171 275.913 255.066C275.651 254.962 275.324 255.208 275.185 255.616Z" fill="#17282F"/>
<path d="M273.393 255.124C273.393 255.124 273.498 257.848 274.113 259.388C273.172 259.779 272.069 258.987 272.069 258.987L273.393 255.124Z" fill="#F46878"/>
<path d="M269.429 259.968C267.973 259.148 267.634 257.785 267.619 257.722C267.602 257.652 267.643 257.584 267.71 257.569C267.777 257.556 267.845 257.6 267.861 257.67C267.865 257.686 268.264 259.27 270.021 259.972C270.086 259.999 270.121 260.073 270.098 260.14C270.076 260.206 270.004 260.238 269.939 260.213C269.756 260.139 269.585 260.057 269.429 259.968Z" fill="#17282F"/>
<path d="M268.981 251.472L268.886 251.382C268.809 251.26 268.841 251.101 268.955 251.027C270.105 250.283 271.17 250.782 271.215 250.803C271.342 250.865 271.4 251.018 271.346 251.148C271.292 251.276 271.146 251.33 271.019 251.27C270.984 251.254 270.15 250.873 269.233 251.467C269.154 251.517 269.059 251.516 268.981 251.472Z" fill="#17282F"/>
<path d="M276.843 254.41C276.765 254.384 276.7 254.32 276.674 254.233C276.344 253.134 275.484 252.83 275.448 252.817C275.316 252.772 275.239 252.627 275.277 252.492C275.314 252.357 275.452 252.283 275.584 252.327C275.631 252.344 276.737 252.721 277.151 254.098C277.192 254.235 277.119 254.377 276.987 254.414L276.843 254.41Z" fill="#17282F"/>
<path d="M328.154 327.877L331.839 322.517L321.912 313.874L318.228 319.235L328.154 327.877Z" fill="#F9A8B3"/>
<path d="M329.292 319.985L324.964 325.372C324.819 325.552 324.824 325.814 324.975 326.002L328.339 330.193C328.687 330.628 329.343 330.633 329.672 330.209C331.032 328.451 331.943 327.1 333.697 324.918C334.776 323.575 338.174 319.642 339.664 317.787C341.121 315.973 339.45 314.141 338.668 314.761C335.162 317.536 332.039 319.234 330.149 319.496C329.809 319.544 329.504 319.72 329.292 319.985Z" fill="#17282F"/>
<path d="M330.254 319.409C330.203 318.689 330.036 317.729 329.728 317.551C329.689 317.528 329.632 317.508 329.536 317.551C329.358 317.631 329.261 317.741 329.241 317.884C329.193 318.221 329.569 318.782 330.254 319.409ZM329.005 317.774C329.055 317.586 329.195 317.439 329.421 317.338C329.613 317.251 329.764 317.297 329.857 317.351C330.444 317.69 330.516 319.49 330.522 319.695L330.449 319.803L330.311 319.781C329.78 319.327 328.902 318.472 328.99 317.847L329.005 317.774Z" fill="#406FBF"/>
<path d="M331.601 318.287L331.615 318.213C331.63 318.09 331.596 317.987 331.51 317.895C331.401 317.78 331.323 317.79 331.266 317.812C330.924 317.944 330.561 318.86 330.52 319.463C330.901 319.193 331.491 318.701 331.601 318.287ZM330.374 318.876C330.522 318.323 330.808 317.73 331.165 317.593C331.273 317.551 331.486 317.516 331.698 317.743C331.834 317.886 331.891 318.056 331.868 318.246C331.778 318.959 330.522 319.76 330.468 319.793L330.342 319.801L330.269 319.703C330.249 319.504 330.288 319.196 330.374 318.876Z" fill="#406FBF"/>
<path d="M322.807 323.227L318.23 319.239L318.231 319.237L322.81 323.224L322.807 323.227Z" fill="#C3C5C2"/>
<path d="M322.81 323.224L318.231 319.237L321.916 313.876L323.05 314.864L327.03 318.333L322.81 323.224Z" fill="#D8898C"/>
<path d="M264.788 313.129C264.788 313.129 293.039 284.423 305.75 296.707C313.67 304.361 325.308 314.905 325.308 314.905L318.538 321.463C318.538 321.463 301.46 312.383 297.016 307.366C273.674 333.456 252.82 335.242 254.698 315.096C260.137 313.658 264.788 313.129 264.788 313.129Z" fill="#406FBF"/>
<path d="M327.315 314.966L319.91 324.275L316.767 322.161L324.335 312.278L327.315 314.966Z" fill="#17282F"/>
<path d="M254.791 278.037L255.348 289.805C255.453 291.758 255.573 293.704 255.725 295.608C255.801 296.561 255.902 297.498 256.012 298.396C256.065 298.846 256.126 299.287 256.195 299.687C256.259 300.096 256.344 300.464 256.398 300.687L256.421 300.796C256.403 300.742 256.37 300.72 256.332 300.654C256.25 300.554 256.129 300.403 255.985 300.316C255.848 300.215 255.714 300.162 255.632 300.145C255.564 300.123 255.522 300.139 255.557 300.152C255.676 300.237 256.412 300.221 257.14 300.049C258.653 299.711 260.415 299.051 262.113 298.283C263.834 297.526 265.557 296.654 267.278 295.751C269.001 294.863 270.728 293.882 272.405 292.943L274.822 296.156C271.766 298.956 268.589 301.468 264.991 303.701C264.088 304.252 263.156 304.781 262.173 305.279C261.19 305.78 260.155 306.242 258.987 306.622C258.401 306.811 257.782 306.983 257.085 307.105C256.387 307.224 255.61 307.305 254.67 307.216C254.209 307.177 253.681 307.069 253.143 306.885C252.595 306.691 252.02 306.399 251.488 305.994C250.966 305.584 250.488 305.075 250.154 304.544C249.971 304.275 249.849 304.017 249.711 303.745L249.466 303.155C249.2 302.435 249.033 301.837 248.893 301.271C248.748 300.697 248.633 300.157 248.528 299.623C248.318 298.554 248.158 297.515 248.012 296.488C247.715 294.432 247.501 292.405 247.32 290.381C246.959 286.331 246.748 282.333 246.676 278.267L254.791 278.037Z" fill="#F9A8B3"/>
<path d="M252.806 270.452C249.761 270.8 245.205 273.668 245.043 287.121L258.106 286.091C258.106 286.091 264.242 269.146 252.806 270.452Z" fill="#17282F"/>
<path d="M283.367 286.145L278.521 286.463C277.979 286.498 277.437 286.987 277.318 287.549L275.049 298.2C274.929 298.761 275.274 299.192 275.817 299.156L280.663 298.838C281.205 298.803 281.746 298.314 281.866 297.752L284.135 287.102C284.255 286.54 283.91 286.109 283.367 286.145Z" fill="#406FBF"/>
<path d="M272.779 292.698L276.795 291.305L275.803 297.595C275.803 297.595 271.331 298.579 270.962 296.174L271.611 294.029C271.801 293.401 272.259 292.878 272.779 292.698Z" fill="#F9A8B3"/>
<path d="M281.382 291.832L279.642 297.429L275.803 297.594L276.795 291.305L281.382 291.832Z" fill="#F9A8B3"/>
<path d="M142.329 159.962C139.179 152.638 156.382 144.969 161.24 156.372C169.495 159.962 158.944 175.219 161.332 177.804C163.721 180.389 165.513 177.253 165.513 177.253C165.513 177.253 167.923 183.674 161.78 188.824C156.267 193.446 139.703 194.699 139.664 185.595C139.612 173.782 146.471 169.592 142.329 159.962Z" fill="#17282F"/>
<path d="M158.15 313.756L153.522 316.448L142.41 303.744L148.177 298.545L158.15 313.756Z" fill="#F46B74"/>
<path d="M152.994 315.283L157.767 311.62C157.94 311.487 158.167 311.492 158.31 311.631L161.508 314.748C161.84 315.071 161.763 315.677 161.359 315.977C159.674 317.227 158.804 317.752 156.705 319.363C155.414 320.354 152.837 322.529 151.055 323.898C149.31 325.236 147.937 323.689 148.567 322.97C151.393 319.745 152.009 317.815 152.468 316.073C152.551 315.759 152.74 315.478 152.994 315.283Z" fill="#17282F"/>
<path d="M150.546 316.96C150.469 317.02 150.413 317.08 150.384 317.139L150.394 317.293C150.477 317.429 150.59 317.498 150.736 317.505C151.157 317.524 151.886 317.026 152.717 316.156C151.937 316.342 150.949 316.652 150.546 316.96ZM151.921 317.202C151.499 317.527 151.064 317.764 150.707 317.748C150.481 317.738 150.304 317.631 150.181 317.429C150.107 317.309 150.102 317.177 150.164 317.048C150.484 316.381 152.785 315.891 153.046 315.837L153.172 315.894L153.152 316.034C152.841 316.378 152.389 316.843 151.921 317.202Z" fill="#406FBF"/>
<path d="M150.911 315.216L150.853 315.266C150.681 315.424 150.722 315.502 150.734 315.527C150.89 315.834 152.077 315.986 152.813 315.883C152.529 315.61 151.905 315.076 151.351 315.072C151.183 315.071 151.038 315.118 150.911 315.216ZM153.133 316.051L153.086 316.074C152.418 316.249 150.773 316.16 150.513 315.65C150.451 315.529 150.433 315.334 150.692 315.094C150.886 314.916 151.111 314.827 151.371 314.829C152.217 314.835 153.119 315.829 153.157 315.872L153.179 315.989L153.133 316.051Z" fill="#406FBF"/>
<path d="M141.326 186.548C141.02 187.936 140.672 189.194 140.287 190.493C139.907 191.78 139.502 193.059 139.037 194.32C138.124 196.847 137.12 199.352 135.894 201.782L134.945 203.594C134.601 204.189 134.267 204.786 133.908 205.373L133.352 206.247C133.156 206.545 133.01 206.809 132.745 207.156C132.616 207.325 132.487 207.494 132.315 207.692C132.134 207.891 131.968 208.088 131.577 208.388C131.325 208.549 131.141 208.733 130.472 208.909C130.35 208.942 130.105 208.974 129.901 208.973C129.706 208.977 129.452 208.945 129.211 208.876C128.743 208.751 128.318 208.441 128.103 208.203C127.645 207.699 127.551 207.327 127.476 207.106C127.401 206.852 127.377 206.68 127.355 206.514C127.296 205.899 127.335 205.513 127.375 205.113C127.421 204.723 127.481 204.363 127.547 204.012C127.676 203.312 127.848 202.649 128.024 201.993C128.388 200.683 128.814 199.428 129.32 198.167L131.871 198.735L131.701 202.584C131.67 203.213 131.658 203.84 131.651 204.436C131.65 204.733 131.658 205.022 131.677 205.283C131.694 205.533 131.727 205.801 131.76 205.832C131.765 205.826 131.772 205.815 131.748 205.715C131.718 205.65 131.697 205.429 131.349 205.045C131.188 204.867 130.834 204.605 130.445 204.499C130.242 204.438 130.028 204.419 129.874 204.416C129.71 204.412 129.508 204.448 129.424 204.466C128.916 204.606 128.866 204.69 128.746 204.76C128.612 204.857 128.66 204.805 128.686 204.753L128.833 204.502L129.701 202.948C129.993 202.407 130.259 201.847 130.544 201.301L131.337 199.617C132.344 197.337 133.259 194.991 134.052 192.596C134.45 191.4 134.822 190.192 135.191 188.984C135.548 187.786 135.887 186.53 136.181 185.383L141.326 186.548Z" fill="#F46B74"/>
<path d="M139.115 179.819C137.236 180.122 134.266 192.036 134.266 192.036L138.587 195.364C138.587 195.364 142.93 186.754 143.112 182.883C143.244 180.074 140.529 179.59 139.115 179.819Z" fill="#F46B74"/>
<path d="M132.333 199.337L131.602 193.412L128.209 198.39C128.209 198.39 128.644 200.438 130.737 200.776L132.333 199.337Z" fill="#F46B74"/>
<path d="M156.052 323.805L150.881 323.983L149.889 305.93L157.067 306.032L156.052 323.805Z" fill="#F46B74"/>
<path d="M150.528 322.335L156.328 322.294C156.538 322.292 156.7 322.437 156.715 322.643L157.065 327.225C157.101 327.7 156.662 328.153 156.175 328.148C154.155 328.128 153.189 328.016 150.639 328.034C149.069 328.046 146.766 328.225 144.599 328.24C142.479 328.255 142.462 326.114 143.377 325.914C147.482 325.016 148.202 323.812 149.643 322.658C149.903 322.45 150.219 322.337 150.528 322.335Z" fill="#17282F"/>
<path d="M138.798 179.783C138.798 179.783 136.225 180.43 136.188 211.021C144.417 211.749 152.921 212.502 156.926 212.856C157.961 204.329 158.804 199.089 165.677 182.008C165.677 182.008 161.487 180.673 157.061 180.062C153.598 179.584 150.758 179.219 147.644 179.229C143.538 179.243 138.798 179.783 138.798 179.783Z" fill="#406FBF"/>
<path d="M160.509 195.931C159.878 192.45 160.754 187.902 161.591 185.914L162.694 189.682C161.829 192.014 161.11 194.076 160.509 195.931Z" fill="#3563B7"/>
<path d="M131.602 193.412L128.209 198.391L132.33 198.149L134.531 193.601L131.602 193.412Z" fill="#F46B74"/>
<path d="M133.752 204.858L137.661 204.801C138.203 204.793 138.615 204.313 138.541 203.777L137.331 195.081C137.268 194.631 136.881 194.297 136.426 194.304L132.516 194.361C131.975 194.369 131.563 194.849 131.637 195.386L132.847 204.082C132.909 204.532 133.297 204.865 133.752 204.858Z" fill="#17282F"/>
<path d="M157.865 169.306C156.775 172.303 155.272 177.839 157.061 180.062C157.061 180.062 153.197 183.561 146.779 186.301C144.617 181.244 147.644 179.229 147.644 179.229C151.155 178.716 151.478 176.185 151.276 173.763L157.865 169.306Z" fill="#F46B74"/>
<path d="M143.659 165.87C143.116 174.845 137.715 177.419 138.985 182.012C140.774 188.482 148.08 183.412 148.08 183.412C148.08 183.412 144.105 184.699 143.853 181.564C143.647 178.996 152.821 179.381 150.275 173.297C148.643 169.4 143.659 165.87 143.659 165.87Z" fill="#17282F"/>
<path d="M151.296 175.468C151.296 175.468 151.296 175.468 151.295 175.468C151.299 175.428 151.302 175.388 151.305 175.348C151.302 175.388 151.299 175.428 151.296 175.468Z" fill="#111D23"/>
<path d="M151.462 175.475C151.403 175.475 151.347 175.473 151.296 175.468C151.299 175.428 151.302 175.388 151.305 175.348C151.343 174.829 151.325 174.293 151.279 173.76L151.281 173.759L155.983 171.577C156.041 171.903 156.152 172.626 155.784 173.23C154.871 174.729 152.54 175.475 151.462 175.475Z" fill="#EA5B5B"/>
<path d="M158.68 160.862C159.153 165.961 159.462 168.109 157.313 171.097C154.08 175.592 147.714 175.057 145.727 170.203C143.938 165.833 143.465 158.227 148.098 155.451C152.662 152.715 158.207 155.762 158.68 160.862Z" fill="#F46B74"/>
<path d="M157.554 155.754C153.534 152.992 150.192 158.289 157.331 163.446C164.469 168.603 162.118 158.89 157.554 155.754Z" fill="#17282F"/>
<path d="M155.415 154.27C157.075 155.763 147.184 161.269 141.81 159.449C136.435 157.629 140.746 153.515 142.706 153.011C141.026 154.635 143.965 157.098 145.393 155.558C146.82 154.018 152.083 151.275 155.415 154.27Z" fill="#17282F"/>
<path d="M136.188 211.021C136.188 211.021 125.243 257.366 126.201 269.064C127.32 282.744 142.281 304.791 142.281 304.791L149.153 298.558C149.153 298.558 142.329 280.493 137.283 268.728C138.902 256.966 153.185 223.723 153.185 212.525L136.188 211.021Z" fill="#406FBF"/>
<path d="M141.215 303.168C137.775 297.833 127.138 280.517 126.201 269.064C126.161 268.573 126.141 268.021 126.141 267.413C126.143 254.768 134.506 218.249 135.97 211.952L137.287 212.068L137.283 212.143C137.283 212.144 137.283 212.146 137.283 212.147C137.283 212.217 137.371 212.281 137.48 212.291L138.042 212.341C138.051 212.341 138.06 212.342 138.069 212.342C138.169 212.342 138.249 212.294 138.253 212.228L138.257 212.154L140.205 212.326C140.529 215.568 141.433 224.609 142.425 234.541C138.198 243.197 138.005 256.106 138.338 263.742C139.073 260.922 140.097 257.607 141.265 254.026C139.764 258.633 138.502 262.798 137.782 266.038C137.563 267.025 137.393 267.927 137.283 268.728C141.365 278.244 146.61 291.884 148.466 296.749C148.486 296.969 148.506 297.187 148.526 297.402L141.215 303.168Z" fill="#213664"/>
<path d="M150.419 299.487L142.301 305.541L140.216 303.957L149.125 296.929L150.419 299.487Z" fill="#406FBF"/>
<path d="M141.265 254.026C142.015 251.729 142.824 249.321 143.655 246.865L143.656 246.869C142.825 249.323 142.015 251.729 141.265 254.026Z" fill="#BABCBA"/>
<path d="M138.338 263.742C138.005 256.106 138.198 243.197 142.425 234.541C142.832 238.613 143.253 242.832 143.655 246.865C142.824 249.321 142.015 251.729 141.265 254.026C140.097 257.607 139.073 260.922 138.338 263.742Z" fill="#1B294A"/>
<path d="M140.078 211.059C140.078 211.059 144.081 251.084 145.421 264.592C147.011 280.63 149.345 306.353 149.345 306.353L157.067 306.032C157.067 306.032 158.76 284.225 157.502 269.855C157.732 250.781 160.544 224.854 156.926 212.856L140.078 211.059Z" fill="#406FBF"/>
<path d="M149.345 306.353C149.345 306.353 149.147 304.167 148.827 300.674C148.736 299.682 148.635 298.584 148.526 297.402C147.703 288.457 146.416 274.629 145.421 264.592C145.015 260.5 144.365 253.974 143.655 246.865C143.253 242.832 142.832 238.612 142.425 234.541C141.433 224.609 140.529 215.568 140.205 212.326L145.663 212.809L145.659 212.883C145.659 212.885 145.659 212.886 145.659 212.888C145.659 212.958 145.746 213.022 145.855 213.032L146.418 213.081C146.427 213.082 146.437 213.083 146.446 213.083C146.546 213.083 146.625 213.035 146.628 212.969L146.632 212.895L154.038 213.55L154.033 213.624C154.033 213.626 154.033 213.628 154.033 213.629C154.034 213.699 154.121 213.763 154.23 213.772L154.793 213.822C154.802 213.823 154.811 213.823 154.819 213.823C154.92 213.823 155 213.776 155.004 213.71L155.007 213.635L157.198 213.829C158.379 218.4 158.761 224.7 158.76 231.765C158.759 243.836 157.644 258.139 157.502 269.855C157.843 273.749 157.967 278.189 157.967 282.594C157.967 294.442 157.067 306.032 157.067 306.032L149.911 306.329L149.345 306.353Z" fill="#213664"/>
<path d="M157.651 307.443L148.796 307.193L148.177 304.407L158.194 304.129L157.651 307.443Z" fill="#406FBF"/>
<path d="M150.755 163.675C150.819 164.086 150.652 164.453 150.383 164.495C150.115 164.536 149.844 164.237 149.781 163.825C149.717 163.414 149.884 163.047 150.153 163.006C150.421 162.964 150.691 163.263 150.755 163.675Z" fill="#17282F"/>
<path d="M146.106 164.395C146.169 164.807 146.003 165.174 145.735 165.216C145.466 165.257 145.196 164.957 145.132 164.547C145.068 164.135 145.235 163.768 145.503 163.726C145.772 163.684 146.042 163.984 146.106 164.395Z" fill="#17282F"/>
<path d="M145.626 163.73L144.594 163.599C144.594 163.599 145.22 164.292 145.626 163.73Z" fill="#17282F"/>
<path d="M147.631 164.799C147.631 164.799 147.208 166.679 146.572 167.652C147.193 168.074 148.08 167.699 148.08 167.699L147.631 164.799Z" fill="#F14358"/>
<path d="M150.756 168.827C150.548 168.898 150.322 168.955 150.075 168.994C150.009 169.004 149.946 168.958 149.936 168.891C149.926 168.825 149.97 168.763 150.038 168.752C151.842 168.473 152.49 167.081 152.497 167.067C152.524 167.004 152.597 166.977 152.658 167.005C152.72 167.032 152.747 167.105 152.72 167.166C152.695 167.221 152.174 168.343 150.756 168.827Z" fill="#17282F"/>
<path d="M160.094 164.344C160.033 165.404 159.488 166.337 158.827 166.907C157.834 167.764 156.781 167.01 156.592 165.781C156.421 164.675 156.733 162.896 157.955 162.512C159.158 162.133 160.164 163.132 160.094 164.344Z" fill="#F46B74"/>
<path d="M152.871 161.127C152.808 161.14 152.739 161.128 152.682 161.088C151.786 160.467 150.949 160.796 150.94 160.8C150.816 160.849 150.672 160.791 150.621 160.665C150.57 160.54 150.63 160.399 150.756 160.347C150.8 160.329 151.849 159.916 152.961 160.687C153.071 160.764 153.099 160.916 153.022 161.027C152.985 161.08 152.93 161.115 152.871 161.127Z" fill="#17282F"/>
<path d="M144.092 162.609C144.034 162.628 143.969 162.626 143.91 162.599C143.787 162.542 143.734 162.397 143.79 162.275C144.359 161.048 145.473 160.872 145.521 160.865C145.655 160.847 145.779 160.939 145.798 161.073C145.818 161.206 145.725 161.33 145.592 161.35C145.548 161.355 144.686 161.504 144.235 162.48C144.205 162.543 144.152 162.587 144.092 162.609Z" fill="#17282F"/>
<path d="M167.069 188.217C167.168 189.154 167.219 189.972 167.249 190.843C167.28 191.702 167.292 192.559 167.287 193.417C167.26 195.134 167.151 196.853 166.953 198.578C166.762 200.304 166.442 202.032 165.983 203.756C165.757 204.619 165.472 205.478 165.146 206.331C164.985 206.758 164.802 207.182 164.613 207.604C164.608 207.62 164.519 207.808 164.453 207.928C164.382 208.062 164.305 208.188 164.217 208.304C164.045 208.55 163.857 208.741 163.659 208.926C163.27 209.264 162.882 209.479 162.527 209.639C161.825 209.936 161.238 210.039 160.693 210.104C160.15 210.166 159.652 210.177 159.171 210.169C158.21 210.151 157.32 210.051 156.447 209.928C154.71 209.659 153.053 209.289 151.424 208.846C149.798 208.4 148.2 207.908 146.616 207.385C145.038 206.83 143.483 206.279 141.926 205.627L142.733 203.141C144.304 203.484 145.901 203.848 147.49 204.152C149.076 204.486 150.663 204.785 152.245 205.032C153.825 205.276 155.399 205.503 156.924 205.6C157.682 205.652 158.432 205.677 159.112 205.638C159.451 205.619 159.774 205.584 160.044 205.53C160.309 205.479 160.531 205.402 160.58 205.365C160.596 205.351 160.562 205.352 160.483 205.42C160.428 205.458 160.388 205.507 160.328 205.579L160.253 205.694C160.233 205.723 160.196 205.822 160.226 205.741C160.349 205.405 160.471 205.067 160.577 204.718C160.793 204.022 160.976 203.306 161.135 202.573C161.451 201.108 161.643 199.587 161.787 198.048C161.924 196.509 161.971 194.946 161.969 193.38C161.976 192.598 161.965 191.814 161.938 191.033C161.908 190.265 161.87 189.443 161.82 188.745L167.069 188.217Z" fill="#F46B74"/>
<path d="M165.656 182.006C167.887 183.464 167.131 196.142 167.131 196.142L161.881 197.193C161.881 197.193 161.833 190.759 161.272 186.537C160.892 183.687 164.067 180.968 165.656 182.006Z" fill="#F46B74"/>
<path d="M149.741 322.881C149.128 322.5 148.253 322.07 147.928 322.216C147.887 322.234 147.836 322.268 147.815 322.371C147.775 322.562 147.808 322.705 147.911 322.805C148.156 323.041 148.83 323.067 149.741 322.881ZM147.684 322.932C147.561 322.781 147.525 322.581 147.575 322.339C147.618 322.132 147.743 322.037 147.842 321.993C148.461 321.719 149.96 322.718 150.129 322.833L150.174 322.956L150.075 323.054C149.396 323.217 148.189 323.425 147.734 322.986L147.684 322.932Z" fill="#406FBF"/>
<path d="M149.625 321.133L149.573 321.077C149.483 320.993 149.379 320.96 149.254 320.976C149.097 320.995 149.059 321.065 149.043 321.123C148.948 321.479 149.477 322.311 149.941 322.698C149.946 322.232 149.894 321.465 149.625 321.133ZM149.38 322.472C149.019 322.026 148.708 321.447 148.807 321.077C148.837 320.966 148.933 320.773 149.241 320.734C149.437 320.709 149.608 320.762 149.748 320.893C150.272 321.384 150.181 322.872 150.177 322.934L150.109 323.04L149.987 323.042C149.814 322.941 149.588 322.729 149.38 322.472Z" fill="#406FBF"/>
<path d="M157.435 211.659L157.662 213.573C157.711 213.725 157.516 213.858 157.276 213.836L135.932 211.949C135.745 211.932 135.606 211.826 135.613 211.707L135.73 209.822C135.738 209.692 135.918 209.596 136.122 209.614L157.123 211.472C157.278 211.485 157.404 211.56 157.435 211.659Z" fill="white"/>
<path d="M154.23 213.772L154.793 213.822C154.905 213.832 155 213.781 155.004 213.71L155.135 211.258C155.139 211.187 155.05 211.12 154.938 211.11L154.376 211.061C154.263 211.05 154.169 211.101 154.165 211.173L154.033 213.624C154.03 213.695 154.118 213.762 154.23 213.772Z" fill="#406FBF"/>
<path d="M154.819 213.823C154.811 213.823 154.802 213.823 154.793 213.822L154.23 213.772C154.12 213.763 154.034 213.699 154.033 213.629C154.033 213.627 154.033 213.626 154.033 213.624L154.165 211.173C154.168 211.107 154.248 211.059 154.347 211.059C154.356 211.059 154.366 211.059 154.376 211.06L154.938 211.11C155.047 211.119 155.134 211.183 155.135 211.254C155.135 211.255 155.135 211.257 155.135 211.258L155.133 211.295L155.007 213.635L155.004 213.71C155 213.776 154.919 213.823 154.819 213.823Z" fill="#213664"/>
<path d="M137.48 212.291L138.042 212.341C138.155 212.35 138.249 212.3 138.253 212.228L138.384 209.777C138.388 209.705 138.3 209.638 138.188 209.629L137.625 209.579C137.513 209.569 137.418 209.619 137.415 209.691L137.283 212.143C137.279 212.214 137.368 212.281 137.48 212.291Z" fill="#406FBF"/>
<path d="M138.069 212.342C138.06 212.342 138.051 212.341 138.042 212.341L137.48 212.291C137.371 212.281 137.283 212.217 137.283 212.147C137.283 212.146 137.283 212.144 137.283 212.143L137.415 209.691C137.418 209.625 137.498 209.578 137.597 209.578C137.607 209.578 137.616 209.578 137.625 209.579L138.188 209.629C138.298 209.638 138.384 209.702 138.385 209.772C138.385 209.773 138.385 209.775 138.384 209.777L138.382 209.814L138.257 212.154L138.253 212.228C138.249 212.294 138.169 212.342 138.069 212.342Z" fill="#213664"/>
<path d="M145.855 213.032L146.418 213.082C146.53 213.091 146.624 213.041 146.628 212.969L146.76 210.518C146.763 210.447 146.675 210.379 146.563 210.37L146.001 210.319C145.889 210.31 145.794 210.361 145.79 210.432L145.659 212.883C145.655 212.955 145.743 213.022 145.855 213.032Z" fill="#406FBF"/>
<path d="M146.446 213.083C146.437 213.083 146.427 213.082 146.418 213.081L145.855 213.032C145.746 213.022 145.659 212.958 145.659 212.888C145.659 212.886 145.659 212.885 145.659 212.883L145.79 210.432C145.794 210.366 145.874 210.319 145.974 210.319C145.983 210.319 145.992 210.319 146.001 210.319L146.563 210.37C146.673 210.379 146.76 210.443 146.76 210.513C146.76 210.514 146.76 210.516 146.76 210.518L146.758 210.555L146.632 212.895L146.628 212.969C146.625 213.035 146.546 213.083 146.446 213.083Z" fill="#213664"/>
<path d="M143.542 203.375L140.332 199.063L138.985 204.221C138.985 204.221 141.388 206.324 143.432 205.505L143.542 203.375Z" fill="#F46B74"/>
<path d="M136.17 198.114L135.272 202.476L139.637 204.705L140.332 199.063L136.17 198.114Z" fill="#F46B74"/>
<path d="M150.275 163.01L149.243 162.878C149.243 162.878 149.869 163.571 150.275 163.01Z" fill="#17282F"/>
<defs>
<filter id="filter0_d_3_419" x="0" y="0" width="437.559" height="394" filterUnits="userSpaceOnUse" color-interpolation-filters="sRGB">
<feFlood flood-opacity="0" result="BackgroundImageFix"/>
<feColorMatrix in="SourceAlpha" type="matrix" values="0 0 0 0 0 0 0 0 0 0 0 0 0 0 0 0 0 0 127 0" result="hardAlpha"/>
<feOffset dx="6" dy="11"/>
<feGaussianBlur stdDeviation="1"/>
<feComposite in2="hardAlpha" operator="out"/>
<feColorMatrix type="matrix" values="0 0 0 0 0 0 0 0 0 0 0 0 0 0 0 0 0 0 0.8 0"/>
<feBlend mode="normal" in2="BackgroundImageFix" result="effect1_dropShadow_3_419"/>
<feBlend mode="normal" in="SourceGraphic" in2="effect1_dropShadow_3_419" result="shape"/>
</filter>
</defs>
</svg>
