<svg width="668" height="687" viewBox="0 0 668 687" fill="none" xmlns="http://www.w3.org/2000/svg">
<path d="M632.25 617.849L506.151 491.75H105.375C86.7435 491.75 68.8752 484.349 55.7007 471.174C42.5263 458 35.125 440.131 35.125 421.5V105.375C35.125 86.7435 42.5263 68.8752 55.7007 55.7007C68.8752 42.5263 86.7435 35.125 105.375 35.125H562C580.631 35.125 598.5 42.5263 611.674 55.7007C624.849 68.8752 632.25 86.7435 632.25 105.375V617.849ZM632.25 667.375H667.375V105.375C667.375 77.4278 656.273 50.6253 636.511 30.8636C616.75 11.102 589.947 0 562 0H105.375C77.4278 0 50.6252 11.102 30.8636 30.8636C11.1019 50.6253 0 77.4278 0 105.375V421.5C0 449.447 11.1019 476.25 30.8636 496.011C50.6252 515.773 77.4278 526.875 105.375 526.875H491.75L632.25 667.375Z" fill="#FFF4F4"/>
<path d="M148.404 175.741L296.908 260.495C299.1 261.708 301.609 262.226 304.102 261.983C306.596 261.739 308.956 260.745 310.872 259.13C312.788 257.516 314.169 255.358 314.833 252.943C315.496 250.527 315.41 247.966 314.587 245.6L287.185 165.62L287.185 165.558C287.04 165.152 287.04 164.709 287.185 164.303L314.587 84.1813C315.256 82.3172 315.468 80.3197 315.205 78.3566C314.942 76.3935 314.212 74.5223 313.076 72.9001C311.939 71.2778 310.43 69.9521 308.675 69.0341C306.92 68.1162 304.97 67.6329 302.99 67.6249C300.846 67.6294 298.739 68.1865 296.873 69.2425L148.439 154.164C146.524 155.24 144.93 156.807 143.821 158.703C142.711 160.599 142.126 162.756 142.126 164.953C142.126 167.149 142.711 169.307 143.821 171.203C144.93 173.099 146.524 174.665 148.439 175.741L148.404 175.741ZM153.663 163.366L302.106 78.471C302.415 78.2776 302.779 78.1918 303.142 78.2269C303.505 78.2621 303.846 78.4163 304.112 78.6655C304.406 78.8993 304.614 79.224 304.704 79.5887C304.793 79.9534 304.759 80.3375 304.607 80.6809L277.62 159.556L225.202 159.556C223.795 159.556 222.446 160.115 221.451 161.11C220.457 162.104 219.898 163.453 219.898 164.86C219.898 166.266 220.457 167.615 221.451 168.61C222.446 169.605 223.795 170.164 225.202 170.164L277.55 170.164L304.634 249.101C304.764 249.441 304.785 249.813 304.696 250.167C304.606 250.52 304.409 250.837 304.132 251.074C303.856 251.311 303.512 251.456 303.15 251.491C302.787 251.525 302.422 251.447 302.106 251.266L153.601 166.504C153.327 166.353 153.1 166.13 152.944 165.859C152.788 165.588 152.71 165.279 152.718 164.966C152.716 164.642 152.803 164.324 152.97 164.047C153.137 163.769 153.377 163.543 153.663 163.392L153.663 163.366Z" fill="white"/>
<path d="M333.061 171.932C587.639 171.932 681.338 417.671 163.341 417.671" stroke="white" stroke-width="14"/>
<circle cx="98.9109" cy="416.885" r="6.2859" fill="white"/>
<circle cx="120.911" cy="416.886" r="6.2859" fill="white"/>
<circle cx="142.912" cy="416.886" r="6.2859" fill="white"/>
<path d="M114.452 605.909H125.429L118.27 649.013C117.634 652.93 116.281 656.301 114.213 659.125C112.165 661.929 109.56 664.087 106.398 665.598C103.256 667.089 99.696 667.835 95.7188 667.835C92.1193 667.835 88.9773 667.199 86.2926 665.926C83.608 664.634 81.6293 662.724 80.3565 660.199C79.0838 657.653 78.7557 654.511 79.3722 650.773H90.2301C89.9915 652.463 90.1108 653.905 90.5881 655.098C91.0852 656.291 91.8807 657.196 92.9744 657.812C94.0881 658.429 95.4602 658.737 97.0909 658.737C98.9006 658.737 100.501 658.349 101.893 657.574C103.305 656.798 104.479 655.665 105.413 654.173C106.348 652.682 107.004 650.862 107.382 648.714L114.452 605.909ZM175.945 605.909H187.012L180.39 645.821C179.674 650.196 178.004 654.044 175.379 657.365C172.773 660.686 169.452 663.281 165.415 665.151C161.379 667 156.884 667.925 151.933 667.925C146.941 667.925 142.745 667 139.344 665.151C135.944 663.281 133.488 660.686 131.977 657.365C130.485 654.044 130.097 650.196 130.813 645.821L137.435 605.909H148.502L142.029 644.896C141.612 647.442 141.8 649.709 142.596 651.697C143.411 653.666 144.744 655.217 146.593 656.351C148.462 657.484 150.799 658.051 153.603 658.051C156.407 658.051 158.933 657.484 161.18 656.351C163.427 655.217 165.266 653.666 166.698 651.697C168.13 649.709 169.055 647.442 169.472 644.896L175.945 605.909ZM209.735 667L219.877 605.909H242.786C247.479 605.909 251.277 606.784 254.181 608.534C257.084 610.264 259.103 612.661 260.236 615.723C261.37 618.766 261.608 622.236 260.952 626.134C260.316 630.051 258.914 633.531 256.746 636.574C254.598 639.616 251.765 642.013 248.245 643.763C244.725 645.493 240.608 646.358 235.895 646.358H220.712L222.233 637.26H235.925C238.669 637.26 240.996 636.783 242.905 635.828C244.834 634.874 246.355 633.561 247.469 631.891C248.583 630.22 249.319 628.301 249.676 626.134C250.015 623.966 249.905 622.057 249.348 620.406C248.792 618.756 247.708 617.473 246.097 616.558C244.506 615.624 242.328 615.156 239.564 615.156H229.422L220.801 667H209.735ZM323.251 637.17C322.177 643.653 320.059 649.182 316.897 653.756C313.755 658.31 309.917 661.8 305.383 664.226C300.869 666.632 296.007 667.835 290.797 667.835C285.328 667.835 280.635 666.562 276.717 664.017C272.799 661.452 269.975 657.783 268.245 653.01C266.535 648.237 266.237 642.51 267.35 635.828C268.424 629.365 270.532 623.837 273.674 619.243C276.816 614.649 280.664 611.139 285.218 608.713C289.772 606.287 294.684 605.074 299.954 605.074C305.383 605.074 310.037 606.357 313.914 608.922C317.812 611.467 320.616 615.136 322.326 619.929C324.056 624.722 324.365 630.469 323.251 637.17ZM312.363 635.828C313.099 631.314 313.029 627.506 312.154 624.403C311.299 621.301 309.778 618.964 307.591 617.393C305.403 615.803 302.708 615.007 299.507 615.007C296.047 615.007 292.845 615.872 289.902 617.602C286.978 619.312 284.493 621.818 282.444 625.119C280.416 628.42 279.024 632.437 278.268 637.17C277.473 641.705 277.522 645.513 278.417 648.595C279.312 651.678 280.863 654.004 283.071 655.575C285.278 657.126 287.973 657.902 291.154 657.902C294.595 657.902 297.777 657.047 300.7 655.337C303.623 653.626 306.099 651.131 308.127 647.849C310.176 644.568 311.588 640.561 312.363 635.828ZM369.241 623.001C369.32 620.237 368.475 618.119 366.705 616.648C364.955 615.176 362.44 614.44 359.158 614.44C356.852 614.44 354.813 614.788 353.043 615.484C351.293 616.161 349.881 617.105 348.808 618.318C347.734 619.511 347.067 620.874 346.809 622.405C346.59 623.658 346.7 624.751 347.137 625.686C347.575 626.621 348.241 627.416 349.136 628.072C350.05 628.729 351.085 629.276 352.238 629.713C353.411 630.151 354.604 630.518 355.817 630.817L361.306 632.249C363.494 632.786 365.582 633.511 367.57 634.426C369.559 635.321 371.279 636.474 372.731 637.886C374.202 639.278 375.276 640.959 375.952 642.928C376.629 644.896 376.738 647.203 376.281 649.848C375.684 653.428 374.242 656.58 371.955 659.304C369.688 662.009 366.705 664.126 363.006 665.658C359.327 667.169 355.042 667.925 350.15 667.925C345.417 667.925 341.42 667.189 338.158 665.717C334.897 664.226 332.511 662.068 330.999 659.244C329.508 656.42 329.031 652.99 329.567 648.953H340.455C340.237 651.081 340.585 652.851 341.499 654.263C342.434 655.675 343.776 656.729 345.526 657.425C347.276 658.121 349.305 658.469 351.612 658.469C354.018 658.469 356.195 658.111 358.144 657.395C360.093 656.659 361.684 655.645 362.917 654.352C364.17 653.04 364.935 651.509 365.214 649.759C365.492 648.187 365.263 646.875 364.528 645.821C363.792 644.767 362.648 643.892 361.097 643.196C359.566 642.48 357.737 641.844 355.609 641.287L348.987 639.497C344.194 638.185 340.555 636.216 338.069 633.591C335.603 630.966 334.728 627.466 335.444 623.091C336.04 619.472 337.542 616.32 339.948 613.635C342.354 610.93 345.367 608.832 348.987 607.341C352.606 605.83 356.563 605.074 360.859 605.074C365.194 605.074 368.863 605.83 371.866 607.341C374.888 608.852 377.096 610.96 378.488 613.665C379.9 616.349 380.367 619.462 379.89 623.001H369.241ZM389.219 615.186L390.77 605.909H439.512L437.961 615.186H419.078L410.488 667H399.51L408.101 615.186H389.219ZM479.245 623.001C479.324 620.237 478.479 618.119 476.709 616.648C474.959 615.176 472.444 614.44 469.162 614.44C466.855 614.44 464.817 614.788 463.047 615.484C461.297 616.161 459.885 617.105 458.811 618.318C457.738 619.511 457.071 620.874 456.813 622.405C456.594 623.658 456.703 624.751 457.141 625.686C457.578 626.621 458.245 627.416 459.14 628.072C460.054 628.729 461.088 629.276 462.242 629.713C463.415 630.151 464.608 630.518 465.821 630.817L471.31 632.249C473.498 632.786 475.586 633.511 477.574 634.426C479.563 635.321 481.283 636.474 482.735 637.886C484.206 639.278 485.28 640.959 485.956 642.928C486.632 644.896 486.742 647.203 486.284 649.848C485.688 653.428 484.246 656.58 481.959 659.304C479.692 662.009 476.709 664.126 473.01 665.658C469.331 667.169 465.046 667.925 460.154 667.925C455.421 667.925 451.424 667.189 448.162 665.717C444.901 664.226 442.515 662.068 441.003 659.244C439.512 656.42 439.034 652.99 439.571 648.953H450.459C450.24 651.081 450.588 652.851 451.503 654.263C452.438 655.675 453.78 656.729 455.53 657.425C457.28 658.121 459.309 658.469 461.615 658.469C464.022 658.469 466.199 658.111 468.148 657.395C470.097 656.659 471.688 655.645 472.921 654.352C474.174 653.04 474.939 651.509 475.218 649.759C475.496 648.187 475.267 646.875 474.532 645.821C473.796 644.767 472.652 643.892 471.101 643.196C469.57 642.48 467.74 641.844 465.613 641.287L458.99 639.497C454.198 638.185 450.559 636.216 448.073 633.591C445.607 630.966 444.732 627.466 445.448 623.091C446.044 619.472 447.546 616.32 449.952 613.635C452.358 610.93 455.371 608.832 458.99 607.341C462.61 605.83 466.567 605.074 470.863 605.074C475.198 605.074 478.867 605.83 481.87 607.341C484.892 608.852 487.1 610.96 488.492 613.665C489.904 616.349 490.371 619.462 489.894 623.001H479.245Z" fill="white"/>
</svg>
