<svg width="316" height="504" viewBox="0 0 316 504" fill="none" xmlns="http://www.w3.org/2000/svg">
<rect width="315.493" height="504" rx="48" fill="#D9D9D9"/>
<rect y="83" width="315" height="357" fill="#AFAFAF"/>
<path d="M195.033 199.19C195.221 219.468 212.806 226.217 213 226.303C212.851 226.778 210.191 235.92 203.737 245.361C198.157 253.524 192.365 261.657 183.244 261.827C174.281 261.991 171.399 256.505 161.151 256.505C150.905 256.505 147.704 261.657 139.219 261.991C130.413 262.325 123.708 253.163 118.082 245.031C106.587 228.395 97.8018 198.02 109.597 177.517C115.457 167.335 125.931 160.888 137.297 160.722C145.943 160.557 154.105 166.544 159.39 166.544C164.672 166.544 174.589 159.343 185.016 160.4C189.381 160.583 201.632 162.165 209.499 173.693C208.867 174.087 194.881 182.237 195.033 199.19ZM178.188 149.395C182.863 143.731 186.009 135.845 185.151 128C178.413 128.271 170.264 132.495 165.432 138.156C161.1 143.168 157.307 151.193 158.33 158.883C165.841 159.465 173.513 155.062 178.188 149.395Z" fill="black"/>
<circle cx="115.182" cy="452.402" r="3.02392" transform="rotate(90 115.182 452.402)" fill="#141414"/>
<circle cx="84.9426" cy="452.213" r="3.02392" transform="rotate(90 84.9426 452.213)" fill="#141414"/>
<circle cx="54.7034" cy="452.024" r="3.02392" transform="rotate(90 54.7034 452.024)" fill="#141414"/>
<circle cx="100.062" cy="452.402" r="3.02392" transform="rotate(90 100.062 452.402)" fill="#141414"/>
<circle cx="69.823" cy="452.213" r="3.02392" transform="rotate(90 69.823 452.213)" fill="#141414"/>
<circle cx="39.5837" cy="452.024" r="3.02392" transform="rotate(90 39.5837 452.024)" fill="#141414"/>
<circle cx="107.622" cy="452.402" r="3.02392" transform="rotate(90 107.622 452.402)" fill="#141414"/>
<circle cx="77.3828" cy="452.213" r="3.02392" transform="rotate(90 77.3828 452.213)" fill="#141414"/>
<circle cx="47.1436" cy="452.024" r="3.02392" transform="rotate(90 47.1436 452.024)" fill="#141414"/>
<circle cx="92.5024" cy="452.402" r="3.02392" transform="rotate(90 92.5024 452.402)" fill="#141414"/>
<circle cx="62.2632" cy="452.213" r="3.02392" transform="rotate(90 62.2632 452.213)" fill="#141414"/>
<circle cx="32.0239" cy="452.024" r="3.02392" transform="rotate(90 32.0239 452.024)" fill="#141414"/>
<circle cx="115.182" cy="459.017" r="3.02392" transform="rotate(90 115.182 459.017)" fill="#141414"/>
<circle cx="84.9426" cy="458.828" r="3.02392" transform="rotate(90 84.9426 458.828)" fill="#141414"/>
<circle cx="54.7034" cy="458.639" r="3.02392" transform="rotate(90 54.7034 458.639)" fill="#141414"/>
<circle cx="100.062" cy="459.017" r="3.02392" transform="rotate(90 100.062 459.017)" fill="#141414"/>
<circle cx="69.823" cy="458.828" r="3.02392" transform="rotate(90 69.823 458.828)" fill="#141414"/>
<circle cx="39.5837" cy="458.639" r="3.02392" transform="rotate(90 39.5837 458.639)" fill="#141414"/>
<circle cx="107.622" cy="459.017" r="3.02392" transform="rotate(90 107.622 459.017)" fill="#141414"/>
<circle cx="77.3828" cy="458.828" r="3.02392" transform="rotate(90 77.3828 458.828)" fill="#141414"/>
<circle cx="47.1436" cy="458.639" r="3.02392" transform="rotate(90 47.1436 458.639)" fill="#141414"/>
<circle cx="92.5024" cy="459.017" r="3.02392" transform="rotate(90 92.5024 459.017)" fill="#141414"/>
<circle cx="62.2632" cy="458.828" r="3.02392" transform="rotate(90 62.2632 458.828)" fill="#141414"/>
<circle cx="32.0239" cy="458.639" r="3.02392" transform="rotate(90 32.0239 458.639)" fill="#141414"/>
<circle cx="115.182" cy="465.631" r="3.02392" transform="rotate(90 115.182 465.631)" fill="#141414"/>
<circle cx="84.9426" cy="465.442" r="3.02392" transform="rotate(90 84.9426 465.442)" fill="#141414"/>
<circle cx="54.7034" cy="465.253" r="3.02392" transform="rotate(90 54.7034 465.253)" fill="#141414"/>
<circle cx="100.062" cy="465.631" r="3.02392" transform="rotate(90 100.062 465.631)" fill="#141414"/>
<circle cx="69.823" cy="465.442" r="3.02392" transform="rotate(90 69.823 465.442)" fill="#141414"/>
<circle cx="39.5837" cy="465.253" r="3.02392" transform="rotate(90 39.5837 465.253)" fill="#141414"/>
<circle cx="107.622" cy="465.631" r="3.02392" transform="rotate(90 107.622 465.631)" fill="#141414"/>
<circle cx="77.3828" cy="465.442" r="3.02392" transform="rotate(90 77.3828 465.442)" fill="#141414"/>
<circle cx="47.1436" cy="465.253" r="3.02392" transform="rotate(90 47.1436 465.253)" fill="#141414"/>
<circle cx="92.5024" cy="465.631" r="3.02392" transform="rotate(90 92.5024 465.631)" fill="#141414"/>
<circle cx="62.2632" cy="465.442" r="3.02392" transform="rotate(90 62.2632 465.442)" fill="#141414"/>
<circle cx="32.0239" cy="465.253" r="3.02392" transform="rotate(90 32.0239 465.253)" fill="#141414"/>
<circle cx="115.182" cy="472.247" r="3.02392" transform="rotate(90 115.182 472.247)" fill="#141414"/>
<circle cx="84.9426" cy="472.058" r="3.02392" transform="rotate(90 84.9426 472.058)" fill="#141414"/>
<circle cx="54.7034" cy="471.869" r="3.02392" transform="rotate(90 54.7034 471.869)" fill="#141414"/>
<circle cx="100.062" cy="472.247" r="3.02392" transform="rotate(90 100.062 472.247)" fill="#141414"/>
<circle cx="69.823" cy="472.058" r="3.02392" transform="rotate(90 69.823 472.058)" fill="#141414"/>
<circle cx="39.5837" cy="471.869" r="3.02392" transform="rotate(90 39.5837 471.869)" fill="#141414"/>
<circle cx="107.622" cy="472.247" r="3.02392" transform="rotate(90 107.622 472.247)" fill="#141414"/>
<circle cx="77.3828" cy="472.058" r="3.02392" transform="rotate(90 77.3828 472.058)" fill="#141414"/>
<circle cx="47.1436" cy="471.869" r="3.02392" transform="rotate(90 47.1436 471.869)" fill="#141414"/>
<circle cx="92.5024" cy="472.247" r="3.02392" transform="rotate(90 92.5024 472.247)" fill="#141414"/>
<circle cx="62.2632" cy="472.058" r="3.02392" transform="rotate(90 62.2632 472.058)" fill="#141414"/>
<circle cx="32.0239" cy="471.869" r="3.02392" transform="rotate(90 32.0239 471.869)" fill="#141414"/>
<circle cx="115.182" cy="478.861" r="3.02392" transform="rotate(90 115.182 478.861)" fill="#141414"/>
<circle cx="84.9426" cy="478.672" r="3.02392" transform="rotate(90 84.9426 478.672)" fill="#141414"/>
<circle cx="54.7034" cy="478.483" r="3.02392" transform="rotate(90 54.7034 478.483)" fill="#141414"/>
<circle cx="100.062" cy="478.861" r="3.02392" transform="rotate(90 100.062 478.861)" fill="#141414"/>
<circle cx="69.823" cy="478.672" r="3.02392" transform="rotate(90 69.823 478.672)" fill="#141414"/>
<circle cx="39.5837" cy="478.483" r="3.02392" transform="rotate(90 39.5837 478.483)" fill="#141414"/>
<circle cx="107.622" cy="478.861" r="3.02392" transform="rotate(90 107.622 478.861)" fill="#141414"/>
<circle cx="77.3828" cy="478.672" r="3.02392" transform="rotate(90 77.3828 478.672)" fill="#141414"/>
<circle cx="47.1436" cy="478.483" r="3.02392" transform="rotate(90 47.1436 478.483)" fill="#141414"/>
<circle cx="92.5024" cy="478.861" r="3.02392" transform="rotate(90 92.5024 478.861)" fill="#141414"/>
<circle cx="62.2632" cy="478.672" r="3.02392" transform="rotate(90 62.2632 478.672)" fill="#141414"/>
<circle cx="32.0239" cy="478.483" r="3.02392" transform="rotate(90 32.0239 478.483)" fill="#141414"/>
<circle cx="115.182" cy="485.476" r="3.02392" transform="rotate(90 115.182 485.476)" fill="#141414"/>
<circle cx="84.9426" cy="485.287" r="3.02392" transform="rotate(90 84.9426 485.287)" fill="#141414"/>
<circle cx="54.7034" cy="485.098" r="3.02392" transform="rotate(90 54.7034 485.098)" fill="#141414"/>
<circle cx="100.062" cy="485.476" r="3.02392" transform="rotate(90 100.062 485.476)" fill="#141414"/>
<circle cx="69.823" cy="485.287" r="3.02392" transform="rotate(90 69.823 485.287)" fill="#141414"/>
<circle cx="39.5837" cy="485.098" r="3.02392" transform="rotate(90 39.5837 485.098)" fill="#141414"/>
<circle cx="107.622" cy="485.476" r="3.02392" transform="rotate(90 107.622 485.476)" fill="#141414"/>
<circle cx="77.3828" cy="485.287" r="3.02392" transform="rotate(90 77.3828 485.287)" fill="#141414"/>
<circle cx="47.1436" cy="485.098" r="3.02392" transform="rotate(90 47.1436 485.098)" fill="#141414"/>
<circle cx="92.5024" cy="485.476" r="3.02392" transform="rotate(90 92.5024 485.476)" fill="#141414"/>
<circle cx="62.2632" cy="485.287" r="3.02392" transform="rotate(90 62.2632 485.287)" fill="#141414"/>
<circle cx="32.0239" cy="485.098" r="3.02392" transform="rotate(90 32.0239 485.098)" fill="#141414"/>
<rect x="38.5" y="28.5" width="98" height="39" rx="19.5" fill="#EDEDED" stroke="#FFD910"/>
<circle cx="115.5" cy="47.5" r="16.5" fill="black"/>
</svg>
